<svg xmlns="http://www.w3.org/2000/svg" viewBox="0 0 40 40" xmlns:xlink="http://www.w3.org/1999/xlink">
<defs/>
<g fill="#b3b3b3" fill-rule="evenodd" transform="matrix(.56077 0 0 .56077 -325.34544 -420.44464)">
<path d="m649.0938,892c-7.6185,2.49-13.1562,9.6055-13.1562,18.0625 0,10.525 8.5375,19.0625 19.0625,19.0625 10.525-0 19.0625-8.5375 19.0625-19.0625-0-8.4579-5.5644-15.5741-13.1875-18.0625v6.8125c4.0673,2.1357 6.9062,6.3406 6.9062,11.25 0,7.0463-5.735,12.7812-12.7812,12.7812-7.0463,0-12.7812-5.735-12.7812-12.7812-0-4.9066 2.8087-9.1136 6.875-11.25v-6.8125z" transform="matrix(.93548 0 0 .93548 3.10089 -64.47165)"/>
<path d="m651.7812,887.9062 0,22.625 6.4375,0 0-22.625-6.4375,0z" transform="matrix(.93548 0 0 .93548 3.10089 -64.47165)"/>
</g>
</svg>
