<?xml version="1.0" encoding="UTF-8" standalone="no"?>
<!-- Created with Inkscape (http://www.inkscape.org/) -->

<svg
   xmlns:dc="http://purl.org/dc/elements/1.1/"
   xmlns:cc="http://creativecommons.org/ns#"
   xmlns:rdf="http://www.w3.org/1999/02/22-rdf-syntax-ns#"
   xmlns:svg="http://www.w3.org/2000/svg"
   xmlns="http://www.w3.org/2000/svg"
   xmlns:sodipodi="http://sodipodi.sourceforge.net/DTD/sodipodi-0.dtd"
   xmlns:inkscape="http://www.inkscape.org/namespaces/inkscape"
   width="40"
   height="40"
   id="svg4676"
   version="1.1"
   inkscape:version="0.48.4 r9939"
   sodipodi:docname="xmpp.svg"
   inkscape:export-filename="/home/adansdpc/Desarrollo/GitHub/waalt/loqui/src-next/img/providers/squares/xmpp.png"
   inkscape:export-xdpi="90"
   inkscape:export-ydpi="90">
  <defs
     id="defs4678" />
  <sodipodi:namedview
     id="base"
     pagecolor="#ffffff"
     bordercolor="#666666"
     borderopacity="1.0"
     inkscape:pageopacity="0.0"
     inkscape:pageshadow="2"
     inkscape:zoom="13.7625"
     inkscape:cx="29.139389"
     inkscape:cy="12.649007"
     inkscape:document-units="px"
     inkscape:current-layer="layer1"
     showgrid="false"
     borderlayer="true"
     inkscape:showpageshadow="false"
     inkscape:window-width="2560"
     inkscape:window-height="1391"
     inkscape:window-x="0"
     inkscape:window-y="25"
     inkscape:window-maximized="1"
     inkscape:snap-page="true"
     inkscape:snap-bbox="true"
     inkscape:bbox-paths="true"
     inkscape:bbox-nodes="true"
     inkscape:snap-bbox-edge-midpoints="true" />
  <metadata
     id="metadata4681">
    <rdf:RDF>
      <cc:Work
         rdf:about="">
        <dc:format>image/svg+xml</dc:format>
        <dc:type
           rdf:resource="http://purl.org/dc/dcmitype/StillImage" />
        <dc:title></dc:title>
      </cc:Work>
    </rdf:RDF>
  </metadata>
  <g
     inkscape:label="Capa 1"
     inkscape:groupmode="layer"
     id="layer1"
     transform="translate(0,-1012.3622)">
    <g
       style="fill:#4ea43b;fill-opacity:1"
       transform="matrix(2,0,0,2,528.27869,-2165.0672)"
       id="g8426">
      <rect
         style="fill:#4ea43b;fill-opacity:1;stroke:none"
         id="rect8428"
         width="20"
         height="20"
         x="-264.13934"
         y="1588.7147" />
      <g
         style="fill:#4ea43b;fill-opacity:1"
         id="g24637-9-0-6-5"
         transform="matrix(0.54403215,0,0,0.54403215,-273.82503,1591.2147)">
        <rect
           style="fill:#4ea43b;fill-opacity:1;stroke:none"
           id="rect4928-5-4-8-7-9"
           width="15.719699"
           height="11.372466"
           x="27.188944"
           y="5.5834799" />
        <path
           style="fill:#ffffff;fill-opacity:1"
           d="m 36.181766,25.60649 0,-1.96536 -0.47896,-0.0169 c -2.60091,-0.0921 -5.10997,-1.06414 -7.14286,-2.76718 -0.34269,-0.28705 -0.99852,-0.93436 -1.3017,-1.28468 -1.69482,-1.95868 -2.67964,-4.33876 -2.86898,-6.93381 -0.0389,-0.52925 -0.0176,-1.6111 0.041,-2.11792 0.20393,-1.7554609 0.76315,-3.3926409 1.65905,-4.8563709 1.61148,-2.63309 4.17295,-4.52966 7.14499,-5.29040993 2.43195,-0.6225 4.96476,-0.46507 7.29079,0.45317992 3.96309,1.56456001 6.78779,5.15545001 7.36424,9.36191091 0.22115,1.61411 0.11032,3.3364 -0.32781,5.09363 -0.26147,1.04865 -0.5892,1.93138 -1.10181,2.96779 -0.82905,1.67605 -1.86913,3.1003 -3.33012,4.56009 -1.41649,1.41527 -3.04358,2.64455 -4.96527,3.7513 -0.44737,0.25766 -1.9052,1.01014 -1.95703,1.01014 -0.0161,0 -0.0257,-0.7227 -0.0257,-1.96535 z m -3.93706,-8.54641 c 1.27692,-0.21882 2.32009,-1.12093 2.73681,-2.36679 0.17548,-0.52459 0.17475,-0.51079 0.1749,-3.34394 0,-2.7976009 0.008,-2.6603809 -0.1565,-2.8354209 -0.0403,-0.0427 -0.12132,-0.10009 -0.18069,-0.12757 -0.10219,-0.0473 -0.22299,-0.05 -2.29326,-0.05 -2.0562,0 -2.19174,0.003 -2.29348,0.0491 -0.13517,0.0614 -0.27152,0.21401 -0.31015,0.34719 -0.0205,0.0709 -0.0271,0.76261 -0.0213,2.2889709 l 0.008,2.18735 0.0744,0.11245 c 0.0411,0.0619 0.12506,0.14594 0.18685,0.18688 l 0.11244,0.0744 1.56193,0.008 1.56192,0.008 -0.0183,0.15429 c -0.0572,0.46864 -0.22203,0.83869 -0.49655,1.11279 -0.21705,0.21669 -0.41225,0.32156 -0.79694,0.42811 -0.23941,0.0663 -0.3111,0.0981 -0.37099,0.16437 l -0.0742,0.0821 0,0.69026 0,0.69026 0.0917,0.0917 c 0.10702,0.10696 0.1414,0.11026 0.50388,0.0482 z m 7.31153,0 c 1.46978,-0.25187 2.6314,-1.42446 2.87008,-2.89722 0.063,-0.38711 0.0623,-5.3208209 0,-5.4710309 -0.0557,-0.13302 -0.1631,-0.24424 -0.29534,-0.30547 -0.10226,-0.0473 -0.22306,-0.05 -2.29333,-0.05 -2.0562,0 -2.19174,0.003 -2.29348,0.0491 -0.13517,0.0614 -0.27152,0.21401 -0.31015,0.34719 -0.0205,0.0709 -0.0271,0.76261 -0.0213,2.2889709 l 0.008,2.18735 0.0744,0.11245 c 0.0411,0.0619 0.12506,0.14594 0.18692,0.18688 l 0.11237,0.0744 1.56193,0.008 1.56192,0.008 -0.0183,0.15429 c -0.0572,0.46864 -0.22203,0.83869 -0.49655,1.11279 -0.21705,0.21669 -0.41225,0.32156 -0.79694,0.42811 -0.23941,0.0663 -0.3111,0.0981 -0.37099,0.16437 l -0.0742,0.0821 0,0.69026 0,0.69026 0.0918,0.0917 c 0.10694,0.10696 0.1414,0.11026 0.5038,0.0482 z"
           id="path4912-7-0-1-4-2"
           inkscape:connector-curvature="0" />
      </g>
    </g>
  </g>
</svg>
