<?xml version="1.0" encoding="UTF-8" standalone="no"?>
<!-- Created with Inkscape (http://www.inkscape.org/) -->

<svg
   xmlns:dc="http://purl.org/dc/elements/1.1/"
   xmlns:cc="http://creativecommons.org/ns#"
   xmlns:rdf="http://www.w3.org/1999/02/22-rdf-syntax-ns#"
   xmlns:svg="http://www.w3.org/2000/svg"
   xmlns="http://www.w3.org/2000/svg"
   version="1.1"
   width="60"
   height="60"
   id="svg3952">
  <defs
     id="defs3954" />
  <metadata
     id="metadata3957">
    <rdf:RDF>
      <cc:Work
         rdf:about="">
        <dc:format>image/svg+xml</dc:format>
        <dc:type
           rdf:resource="http://purl.org/dc/dcmitype/StillImage" />
        <dc:title></dc:title>
      </cc:Work>
    </rdf:RDF>
  </metadata>
  <g
     transform="translate(-395.71429,-499.50504)"
     id="layer1">
    <g
       transform="matrix(0.2,0,0,0.2,141.36463,512.09594)"
       id="g3933">
      <rect
         width="300"
         height="300"
         x="1271.7483"
         y="-62.954494"
         id="rect3931"
         style="fill:#39b006;fill-opacity:1;stroke:none" />
      <path
         d="m 1333.0129,153.50392 c -22.7754,-6.13368 -34.6511,-24.11676 -35.9842,-54.489944 -1.7488,-39.84147 18.4945,-63.933743 53.7196,-63.933743 34.5338,0 54.4769,23.984383 52.7171,63.399553 -0.2963,6.636154 -1.2712,14.765724 -2.1665,18.065724 -5.3577,19.74908 -17.3057,32.33603 -35.0922,36.96881 -7.4079,1.92953 -26.0122,1.9237 -33.1938,-0.0104 z m 26.4912,-20.28453 c 6.88,-4.89896 9.6669,-15.95512 9.6224,-38.173884 -0.062,-30.86591 -5.811,-41.08288 -22.5934,-40.1508 -3.7528,0.20843 -9.6538,5.68085 -11.9876,11.11694 -6.1685,14.36811 -4.1545,53.642244 3.2893,64.143554 4.3267,6.10392 15.2343,7.64633 21.6693,3.06419 z m 78.2442,20.70539 c -3.4626,-1.37667 -7.8403,-5.71089 -9.9784,-9.87927 -0.9874,-1.925 -5.0379,-14.75 -9.0011,-28.5 -3.9632,-13.75 -10.5391,-36.428964 -14.6131,-50.397704 -4.0741,-13.96873 -7.4074,-26.00623 -7.4074,-26.75 0,-1.08316 3.37,-1.3523 16.9326,-1.3523 15.2723,0 16.9808,0.17159 17.4243,1.75 0.2704,0.9625 4.5988,19.21054 9.6186,40.55121 5.0197,21.340674 9.4489,39.671944 9.8426,40.736174 0.4695,1.26913 3.9459,-11.05005 10.1029,-35.801224 5.1628,-20.75489 10.0101,-39.87366 10.7717,-42.48616 l 1.3848,-4.75 14.5286,0 c 13.3678,0 14.4872,0.13983 14.0099,1.75 -0.2853,0.9625 -3.2778,10.75 -6.6499,21.75 -3.3721,11 -7.1899,23.6 -8.484,28 -5.8798,19.991124 -15.3941,50.368694 -16.9087,53.986354 -3.7277,8.90421 -9.9473,12.54251 -21.2836,12.45026 -4.2844,-0.0349 -8.9148,-0.51066 -10.2898,-1.05734 z m 84.9664,0.30044 c -2.3782,-1.05402 -5.4918,-3.52466 -6.5276,-5.17971 -0.5293,-0.8457 -1.1569,-21.33978 -1.4388,-46.98346 l -0.5,-45.483464 -3.9183,-0.63648 c -6.5773,-1.0684 -9.2881,-7.73865 -5.9348,-14.60311 l 1.8531,-3.79349 20.7829,-0.27039 20.7829,-0.270387 -0.2829,54.270387 c -0.3151,60.442414 -0.1272,58.807784 -7.14,62.135554 -3.4864,1.65439 -14.6236,2.16761 -17.6765,0.81455 z m -0.516,-130.58631 c -10.3034,-4.487883 -12.4261,-18.696503 -3.7785,-25.292327 2.9258,-2.231575 4.8864,-2.823753 10.3764,-3.133966 8.5133,-0.481043 12.9977,0.98229 17.0083,5.550098 2.9618,3.373278 3.1317,3.984521 2.7546,9.906638 -0.4521,7.100977 -2.7,10.456896 -8.6833,12.963471 -4.2093,1.763379 -13.6356,1.766625 -17.6775,0.0061 z"
         id="path3929"
         style="fill:#ffffff" />
    </g>
  </g>
</svg>
