<svg xmlns="http://www.w3.org/2000/svg" viewBox="0 0 40 40">
<g fill="#b3b3b3" transform="matrix(.36803 0 0 .36803 -116.94739 -105.84118)">
<path color="#000" d="m399.28,314.12-9.125,7.25c-4.799-4.0243-10.962-6.4688-17.656-6.4688-15.129,0-27.562,12.434-27.562,27.562 0,15.129 12.434,27.281 27.562,27.281 11.86,0 22.052-7.4546 25.906-17.969l-9.875-2.4062c-2.6427,6.2319-8.7668,10.531-16.031,10.531-9.7241,0-17.438-7.7134-17.438-17.438 0-9.7241 7.7134-17.719 17.438-17.719 3.6079,0 6.923,1.1171 9.6875,3l-9.0312,7.1875 26.125,4.8438v-25.656z"/>
</g>
</svg>
