<?xml version="1.0" encoding="UTF-8" standalone="no"?>
<!-- Created with Inkscape (http://www.inkscape.org/) -->

<svg
   xmlns:dc="http://purl.org/dc/elements/1.1/"
   xmlns:cc="http://creativecommons.org/ns#"
   xmlns:rdf="http://www.w3.org/1999/02/22-rdf-syntax-ns#"
   xmlns:svg="http://www.w3.org/2000/svg"
   xmlns="http://www.w3.org/2000/svg"
   xmlns:sodipodi="http://sodipodi.sourceforge.net/DTD/sodipodi-0.dtd"
   xmlns:inkscape="http://www.inkscape.org/namespaces/inkscape"
   width="40"
   height="40"
   id="svg4676"
   version="1.1"
   inkscape:version="0.48.4 r9939"
   sodipodi:docname="add.svg">
  <defs
     id="defs4678" />
  <sodipodi:namedview
     id="base"
     pagecolor="#ffffff"
     bordercolor="#666666"
     borderopacity="1.0"
     inkscape:pageopacity="0.0"
     inkscape:pageshadow="2"
     inkscape:zoom="13.7625"
     inkscape:cx="-14.457341"
     inkscape:cy="12.503685"
     inkscape:document-units="px"
     inkscape:current-layer="layer1"
     showgrid="false"
     borderlayer="true"
     inkscape:showpageshadow="false"
     inkscape:window-width="2560"
     inkscape:window-height="1391"
     inkscape:window-x="0"
     inkscape:window-y="25"
     inkscape:window-maximized="1" />
  <metadata
     id="metadata4681">
    <rdf:RDF>
      <cc:Work
         rdf:about="">
        <dc:format>image/svg+xml</dc:format>
        <dc:type
           rdf:resource="http://purl.org/dc/dcmitype/StillImage" />
        <dc:title></dc:title>
      </cc:Work>
    </rdf:RDF>
  </metadata>
  <g
     inkscape:label="Capa 1"
     inkscape:groupmode="layer"
     id="layer1"
     transform="translate(0,-1012.3622)">
    <path
       inkscape:connector-curvature="0"
       style="color:#000000;fill:#b3b3b3;fill-opacity:1;fill-rule:nonzero;stroke:none;stroke-width:0.54249871;marker:none;visibility:visible;display:inline;overflow:visible"
       d="m 19.475937,1022.3628 c -0.210932,0.014 -0.415991,0.047 -0.623239,0.071 l -0.01404,0 -0.495723,2.7054 c -0.80808,0.184 -1.568284,0.4963 -2.252183,0.9206 l -2.223807,-1.6005 c -0.601165,0.4667 -1.148215,1.011 -1.628908,1.6005 l 1.543912,2.2521 c -0.468771,0.7164 -0.821306,1.5344 -1.019848,2.3937 -1.6e-5,0 -1.6e-5,0.013 0,0.014 l -2.69125,0.4249 c -0.04921,0.4019 -0.07085,0.8172 -0.07085,1.2323 0,0.3396 0.0094,0.6748 0.04244,1.0057 l 2.691258,0.4816 c 0.191399,0.9345 0.554996,1.8073 1.062317,2.5779 l -1.600568,2.1953 c 0.458393,0.5691 0.987605,1.0873 1.558074,1.544 l 2.266302,-1.5582 c 0.792071,0.5053 1.676215,0.8596 2.634602,1.0341 l 0.424915,2.677 c 0.301978,0.028 0.61166,0.028 0.920723,0.028 0.436311,0 0.853122,-0.017 1.274803,-0.071 l 0.509927,-2.7336 c 0.909919,-0.2265 1.764729,-0.6194 2.507087,-1.1473 l 2.181314,1.5863 c 0.56569,-0.4812 1.082979,-1.0344 1.529759,-1.6289 l -1.586407,-2.2945 c 0.429653,-0.742 0.727294,-1.5607 0.878171,-2.4362 l 2.677121,-0.4249 c 0.02356,-0.2794 0.02816,-0.5504 0.02816,-0.8358 0,-0.4959 -0.05765,-0.9822 -0.127515,-1.4589 l -2.719591,-0.4956 c -0.213122,-0.787 -0.562807,-1.5213 -1.005644,-2.1814 l 1.600552,-2.1954 c -0.496134,-0.6067 -1.062083,-1.1672 -1.68554,-1.643 l -2.308829,1.5864 c -0.663578,-0.3924 -1.377646,-0.6936 -2.153007,-0.864 l -0.424915,-2.6912 c -0.386749,-0.046 -0.776714,-0.071 -1.175628,-0.071 -0.107831,0 -0.218786,0 -0.325815,0 -0.05214,0 -0.103787,0 -0.155781,0 -0.01404,0 -0.02857,0 -0.04261,0 z m 0.368284,6.8837 c 0.0518,0 0.103436,0 0.155831,0 1.676666,0 3.045338,1.3688 3.045338,3.0454 0,1.6766 -1.368673,3.031 -3.045338,3.031 -1.676709,0 -3.031202,-1.3544 -3.031202,-3.031 0,-1.6242 1.271236,-2.9639 2.875371,-3.0454 z"
       id="path3243" />
  </g>
</svg>
