<?xml version="1.0" encoding="UTF-8" standalone="no"?>
<!-- Created with Inkscape (http://www.inkscape.org/) -->

<svg
   xmlns:dc="http://purl.org/dc/elements/1.1/"
   xmlns:cc="http://creativecommons.org/ns#"
   xmlns:rdf="http://www.w3.org/1999/02/22-rdf-syntax-ns#"
   xmlns:svg="http://www.w3.org/2000/svg"
   xmlns="http://www.w3.org/2000/svg"
   xmlns:sodipodi="http://sodipodi.sourceforge.net/DTD/sodipodi-0.dtd"
   xmlns:inkscape="http://www.inkscape.org/namespaces/inkscape"
   width="40"
   height="40"
   id="svg4676"
   version="1.1"
   inkscape:version="0.48.4 r9939"
   sodipodi:docname="loqui.svg"
   inkscape:export-filename="/home/adansdpc/Desarrollo/GitHub/waalt/loqui/src-next/img/providers/squares/xmpp.png"
   inkscape:export-xdpi="90"
   inkscape:export-ydpi="90">
  <defs
     id="defs4678" />
  <sodipodi:namedview
     id="base"
     pagecolor="#ffffff"
     bordercolor="#666666"
     borderopacity="1.0"
     inkscape:pageopacity="0.0"
     inkscape:pageshadow="2"
     inkscape:zoom="13.7625"
     inkscape:cx="29.139389"
     inkscape:cy="12.649007"
     inkscape:document-units="px"
     inkscape:current-layer="layer1"
     showgrid="false"
     borderlayer="true"
     inkscape:showpageshadow="false"
     inkscape:window-width="2560"
     inkscape:window-height="1391"
     inkscape:window-x="0"
     inkscape:window-y="25"
     inkscape:window-maximized="1"
     inkscape:snap-page="true"
     inkscape:snap-bbox="true"
     inkscape:bbox-paths="true"
     inkscape:bbox-nodes="true"
     inkscape:snap-bbox-edge-midpoints="true" />
  <metadata
     id="metadata4681">
    <rdf:RDF>
      <cc:Work
         rdf:about="">
        <dc:format>image/svg+xml</dc:format>
        <dc:type
           rdf:resource="http://purl.org/dc/dcmitype/StillImage" />
        <dc:title></dc:title>
      </cc:Work>
    </rdf:RDF>
  </metadata>
  <g
     inkscape:label="Capa 1"
     inkscape:groupmode="layer"
     id="layer1"
     transform="translate(0,-1012.3622)">
    <g
       transform="matrix(2,0,0,2,528.27869,-2165.0672)"
       id="g8560">
      <rect
         style="fill:#149ed2;fill-opacity:1;stroke:none"
         id="rect8562"
         width="20"
         height="20"
         x="-264.13934"
         y="1588.7147" />
      <g
         style="fill:#ffffff"
         id="g4341-8-4-2-1-1-8-4"
         transform="matrix(0.08675886,0,0,0.08675886,-261.63969,1593.196)">
        <path
           d="m 136.29,14.189 c 0.077,1.313 -1.786,0.968 -1.786,2.293 0,38.551 -44.72,96.831 -89.847,108.19 v 1.182 c 59.957,-5.51 126.73,-66.8 128.24,-125.85 l -36.6,14.189 z"
           id="path4308-2-1-4-7-2-5-0"
           inkscape:connector-curvature="0"
           style="fill:#ffffff" />
        <path
           d="m 120.23,17.96 c 0.077,1.313 0.121,2.633 0.121,3.958 0,38.551 -30.7,90.497 -75.827,101.86 v 1.637 c 59.065,-3.823 105.81,-63.023 105.81,-109.2 0,-2.375 -0.125,-4.729 -0.371,-7.056 l -29.73,8.796 z"
           id="path4310-5-2-3-2-2-1-2"
           inkscape:connector-curvature="0"
           style="fill:#ffffff" />
        <path
           d="m 36.599,14.189 c -0.077,1.313 1.787,0.968 1.787,2.293 0,38.551 46.558,97.366 91.688,108.73 v 1.639 C 70.121,121.331 1.514,59.051 0.004,0.001 L 36.603,14.19 z"
           id="path4319-6-8-0-9-0-6-7"
           inkscape:connector-curvature="0"
           style="fill:#ffffff" />
        <path
           d="m 54.731,18.932 c -0.076,1.313 -0.12,2.63 -0.12,3.957 0,38.551 30.699,90.497 75.827,101.86 v 1.639 c -59.044,-2.79 -105.81,-63.024 -105.81,-109.2 0,-2.375 0.128,-4.729 0.371,-7.056 l 29.73,8.798 z"
           id="path4321-1-5-4-9-5-2-5"
           inkscape:connector-curvature="0"
           style="fill:#ffffff" />
        <path
           d="m 24.713,9.583 7.617,2.722 c -0.041,0.962 -0.066,2.254 -0.066,3.225 0,41.219 37.271,98.204 87.272,107.12 3.245,1.088 7.538,2.077 10.932,2.931 v 1.638 C 65.214,121.659 19.368,55.353 24.708,9.579 z"
           id="path4323-1-1-0-3-9-7-8"
           inkscape:connector-curvature="0"
           style="fill:#ffffff" />
        <path
           d="m 150.34,8.76 -7.833,2.625 c 0.041,0.963 0.191,2.203 0.191,3.173 0,41.219 -37.272,98.205 -87.274,107.12 -3.243,1.089 -7.538,2.077 -10.93,2.932 v 1.639 c 68.344,-8.66 111.18,-71.719 105.84,-117.49 z"
           id="path4325-4-9-3-7-0-4-6"
           inkscape:connector-curvature="0"
           style="fill:#ffffff" />
      </g>
    </g>
  </g>
</svg>
