<?xml version="1.0" encoding="UTF-8" standalone="no"?>
<svg
   xmlns:dc="http://purl.org/dc/elements/1.1/"
   xmlns:cc="http://creativecommons.org/ns#"
   xmlns:rdf="http://www.w3.org/1999/02/22-rdf-syntax-ns#"
   xmlns:svg="http://www.w3.org/2000/svg"
   xmlns="http://www.w3.org/2000/svg"
   xmlns:sodipodi="http://sodipodi.sourceforge.net/DTD/sodipodi-0.dtd"
   xmlns:inkscape="http://www.inkscape.org/namespaces/inkscape"
   viewBox="0 0 40 40"
   id="svg2"
   version="1.1"
   inkscape:version="0.48.4 r9939"
   width="100%"
   height="100%"
   sodipodi:docname="close.svg">
  <metadata
     id="metadata14">
    <rdf:RDF>
      <cc:Work
         rdf:about="">
        <dc:format>image/svg+xml</dc:format>
        <dc:type
           rdf:resource="http://purl.org/dc/dcmitype/StillImage" />
      </cc:Work>
    </rdf:RDF>
  </metadata>
  <sodipodi:namedview
     pagecolor="#ffffff"
     bordercolor="#666666"
     borderopacity="1"
     objecttolerance="10"
     gridtolerance="10"
     guidetolerance="10"
     inkscape:pageopacity="0"
     inkscape:pageshadow="2"
     inkscape:window-width="1096"
     inkscape:window-height="819"
     id="namedview12"
     showgrid="false"
     inkscape:zoom="5.9"
     inkscape:cx="20"
     inkscape:cy="19.661017"
     inkscape:window-x="0"
     inkscape:window-y="24"
     inkscape:window-maximized="0"
     inkscape:current-layer="svg2" />
  <defs
     id="defs4" />
  <g
     fill="#b3b3b3"
     fill-rule="evenodd"
     transform="matrix(.56077 0 0 .56077 -325.34544 -420.44464)"
     id="g6"
     style="fill:#666666;fill-opacity:1">
    <path
       d="m649.0938,892c-7.6185,2.49-13.1562,9.6055-13.1562,18.0625 0,10.525 8.5375,19.0625 19.0625,19.0625 10.525-0 19.0625-8.5375 19.0625-19.0625-0-8.4579-5.5644-15.5741-13.1875-18.0625v6.8125c4.0673,2.1357 6.9062,6.3406 6.9062,11.25 0,7.0463-5.735,12.7812-12.7812,12.7812-7.0463,0-12.7812-5.735-12.7812-12.7812-0-4.9066 2.8087-9.1136 6.875-11.25v-6.8125z"
       transform="matrix(.93548 0 0 .93548 3.10089 -64.47165)"
       id="path8"
       style="fill:#666666;fill-opacity:1" />
    <path
       d="m651.7812,887.9062 0,22.625 6.4375,0 0-22.625-6.4375,0z"
       transform="matrix(.93548 0 0 .93548 3.10089 -64.47165)"
       id="path10"
       style="fill:#666666;fill-opacity:1" />
  </g>
</svg>
