<svg xmlns="http://www.w3.org/2000/svg" viewBox="0 0 40 40">
<g fill="#4ea43b">
<g transform="matrix(2 0 0 2 528.27869 -3177.4294)">
<path d="m-264.139,1588.71h20v20h-20z"/>
</g>
<g transform="matrix(1.08806 0 0 1.08806 -19.37137 5)">
<path d="m27.1889,5.5835h15.7197v11.3724h-15.7197z"/>
<path fill="#fff" d="m36.1818,25.6065 0-1.9654-.479-.0169c-2.6009-.0921-5.11-1.0641-7.1429-2.7672-.3427-.2871-.9985-.9344-1.3017-1.2847-1.6948-1.9587-2.6796-4.3388-2.869-6.9338-.0389-.5292-.0176-1.6111 .041-2.1179 .2039-1.7555 .7631-3.3926 1.6591-4.8564 1.6115-2.6331 4.173-4.5297 7.145-5.2904 2.432-.6225 4.9648-.4651 7.2908,.4532 3.9631,1.5646 6.7878,5.1555 7.3642,9.3619 .2212,1.6141 .1103,3.3364-.3278,5.0936-.2615,1.0486-.5892,1.9314-1.1018,2.9678-.8291,1.6761-1.8691,3.1003-3.3301,4.5601-1.4165,1.4153-3.0436,2.6445-4.9653,3.7513-.4474,.2577-1.9052,1.0101-1.957,1.0101-.0161,0-.0257-.7227-.0257-1.9654zm-3.9371-8.5464c1.2769-.2188 2.3201-1.1209 2.7368-2.3668 .1755-.5246 .1748-.5108 .1749-3.3439 0-2.7976 .008-2.6604-.1565-2.8354-.0403-.0427-.1213-.1001-.1807-.1276-.1022-.0473-.223-.05-2.2933-.05-2.0562,0-2.1917,.003-2.2935,.0491-.1352,.0614-.2715,.214-.3102,.3472-.0205,.0709-.0271,.7626-.0213,2.289l.008,2.1874 .0744,.1125c.0411,.0619 .1251,.1459 .1868,.1869l.1124,.0744 1.5619,.008 1.5619,.008-.0183,.1543c-.0572,.4686-.222,.8387-.4965,1.1128-.2171,.2167-.4123,.3216-.7969,.4281-.2394,.0663-.3111,.0981-.371,.1644l-.0742,.0821v.6903 .6903l.0917,.0917c.107,.107 .1414,.1103 .5039,.0482zm7.3115,0c1.4698-.2519 2.6314-1.4245 2.8701-2.8972 .063-.3871 .0623-5.3208 0-5.471-.0557-.133-.1631-.2442-.2953-.3055-.1023-.0473-.2231-.05-2.2933-.05-2.0562,0-2.1917,.003-2.2935,.0491-.1352,.0614-.2715,.214-.3102,.3472-.0205,.0709-.0271,.7626-.0213,2.289l.008,2.1874 .0744,.1125c.0411,.0619 .1251,.1459 .1869,.1869l.1124,.0744 1.5619,.008 1.5619,.008-.0183,.1543c-.0572,.4686-.222,.8387-.4965,1.1128-.2171,.2167-.4123,.3216-.7969,.4281-.2394,.0663-.3111,.0981-.371,.1644l-.0742,.0821v.6903 .6903l.0918,.0917c.1069,.107 .1414,.1103 .5038,.0482z"/>
</g>
</g>
</svg>
