<svg xmlns="http://www.w3.org/2000/svg" viewBox="0 0 40 40">
<g transform="translate(-752.74933 -889.94275)">
<path fill="#0071c5" d="m752.749,889.943h40v40h-40z"/>
</g>
<g transform="matrix(.30481 0 0 .30481 6 6.8931)">
<path fill="#fff" d="m46.02,0 5.97,0c-.01,5.11 .04,10.23-.04,15.34 1.86-1 3.77-2.55 6.04-2.06 4.57,.7 6.57,5.43 9.28,8.6 5.99-.37 12.39,.69 16.95,4.9 6.45,5.18 9.3,14.39 6.66,22.27-1.48,5.16-5.28,9.3-9.74,12.12 .91,2.55 1.82,5.58 .05,8-2.04,3.47-7.22,4.53-10.29,1.85-2.2-2.23-3.95-4.85-6.01-7.2-4.41,.08-8.82-.49-12.91-2.19 .02,8.12 0,16.25 .01,24.37h-6.2c-15.24-2.78-30.53-5.32-45.78-8-.01-23.33-.01-46.66-.01-69.98 15.34-2.69 30.69-5.29 46.02-8.02z"/>
<g fill="#0071c5">
<path d="m53.21,19.11c.77-2.97 5.23-4.03 7.08-1.47 4.14,5.04 8.04,10.28 12.14,15.36-4.47,.16-8.99-.38-13.42,.31-3.5,.77-5.87,3.78-7.02,7 .05-4.37-.09-8.74 .1-13.1 1.26-.54 2.53-1.06 3.82-1.59-1.24-1.96-3.44-3.96-2.7-6.51z"/>
<path d="m69.04,24.7c5.34-.02 10.9,1.55 14.66,5.51 5.44,5.22 6.79,13.99 3.37,20.66-2.11,4.31-6.08,7.41-10.47,9.15 1.14,1.85 3.02,3.62 2.73,5.99-.42,2.35-3.02,3.86-5.28,3.27-1.64-.76-2.68-2.3-3.8-3.64-3.35-4.39-6.81-8.69-10.22-13.04 4.6-.24 9.33,.56 13.87-.48 5.88-1.66 8.63-9.28 5.35-14.4-3.08-4.58-6.94-8.58-10.21-13.02z"/>
<path d="m18.99,27.24c2.01-.1 4.03-.2 6.06-.29 0,8.81-.01,17.62 0,26.43 3.31,.15 6.63,.23 9.95,.4-.01,2.07-.01,4.14 0,6.22-5.34-.39-10.68-.64-16.01-1.02-.01-10.58-.01-21.16 0-31.74z"/>
</g>
<path fill="#fff" d="m59.25,36.36c4.16-.82 8.53-.41 12.77-.29 5.35,.72 7.45,7.94 3.63,11.63-3.88,3.05-9.19,1.82-13.74,1.93-3.6,.06-7.28-2.83-7.09-6.62-.3-2.98 1.76-5.58 4.43-6.65z"/>
<path fill="#0071c5" d="m51.93,45.02c2.44,6.07 7.66,10.37 11.35,15.65-3.95,.13-7.88-.66-11.31-2.66 .02-4.33 .07-8.66-.04-12.99z"/>
</g>
</svg>
