<svg xmlns="http://www.w3.org/2000/svg" viewBox="0 0 60 60">
<g transform="matrix(.2 0 0 .2 -254.34966 12.5909)">
<path fill="#39b006" d="m1271.75-62.9545h300v300.0005h-300z"/>
<path fill="#fff" d="m1333.0129,153.5039c-22.7754-6.1337-34.6511-24.1168-35.9842-54.4899-1.7488-39.8415 18.4945-63.9337 53.7196-63.9337 34.5338,0 54.4769,23.9844 52.7171,63.3996-.2963,6.6362-1.2712,14.7657-2.1665,18.0657-5.3577,19.7491-17.3057,32.336-35.0922,36.9688-7.4079,1.9295-26.0122,1.9237-33.1938-.0104zm26.4912-20.2845c6.88-4.899 9.6669-15.9551 9.6224-38.1739-.062-30.8659-5.811-41.0829-22.5934-40.1508-3.7528,.2084-9.6538,5.6808-11.9876,11.1169-6.1685,14.3681-4.1545,53.6422 3.2893,64.1436 4.3267,6.1039 15.2343,7.6463 21.6693,3.0642zm78.2442,20.7054c-3.4626-1.3767-7.8403-5.7109-9.9784-9.8793-.9874-1.925-5.0379-14.75-9.0011-28.5-3.9632-13.75-10.5391-36.429-14.6131-50.3977-4.0741-13.9687-7.4074-26.0062-7.4074-26.75 0-1.0832 3.37-1.3523 16.9326-1.3523 15.2723,0 16.9808,.1716 17.4243,1.75 .2704,.9625 4.5988,19.2105 9.6186,40.5512 5.0197,21.3407 9.4489,39.6719 9.8426,40.7362 .4695,1.2691 3.9459-11.05 10.1029-35.8012 5.1628-20.7549 10.0101-39.8737 10.7717-42.4862l1.3848-4.75h14.5286c13.3678,0 14.4872,.1398 14.0099,1.75-.2853,.9625-3.2778,10.75-6.6499,21.75-3.3721,11-7.1899,23.6-8.484,28-5.8798,19.9911-15.3941,50.3687-16.9087,53.9864-3.7277,8.9042-9.9473,12.5425-21.2836,12.4503-4.2844-.0349-8.9148-.5107-10.2898-1.0573zm84.9664,.3004c-2.3782-1.054-5.4918-3.5247-6.5276-5.1797-.5293-.8457-1.1569-21.3398-1.4388-46.9835l-.5-45.4835-3.9183-.6365c-6.5773-1.0684-9.2881-7.7386-5.9348-14.6031l1.8531-3.7935 20.7829-.2704 20.7829-.2704-.2829,54.2704c-.3151,60.4424-.1272,58.8078-7.14,62.1356-3.4864,1.6544-14.6236,2.1676-17.6765,.8145zm-.516-130.5863c-10.3034-4.4879-12.4261-18.6965-3.7785-25.2923 2.9258-2.2316 4.8864-2.8238 10.3764-3.134 8.5133-.481 12.9977,.9823 17.0083,5.5501 2.9618,3.3733 3.1317,3.9845 2.7546,9.9066-.4521,7.101-2.7,10.4569-8.6833,12.9635-4.2093,1.7634-13.6356,1.7666-17.6775,.0061z"/>
</g>
</svg>
