<?xml version="1.0" encoding="UTF-8" standalone="no"?>
<svg
   xmlns:dc="http://purl.org/dc/elements/1.1/"
   xmlns:cc="http://creativecommons.org/ns#"
   xmlns:rdf="http://www.w3.org/1999/02/22-rdf-syntax-ns#"
   xmlns:svg="http://www.w3.org/2000/svg"
   xmlns="http://www.w3.org/2000/svg"
   xmlns:sodipodi="http://sodipodi.sourceforge.net/DTD/sodipodi-0.dtd"
   xmlns:inkscape="http://www.inkscape.org/namespaces/inkscape"
   viewBox="0 0 40 40"
   id="svg2"
   version="1.1"
   inkscape:version="0.48.4 r9939"
   width="100%"
   height="100%"
   sodipodi:docname="settings.svg">
  <metadata
     id="metadata12">
    <rdf:RDF>
      <cc:Work
         rdf:about="">
        <dc:format>image/svg+xml</dc:format>
        <dc:type
           rdf:resource="http://purl.org/dc/dcmitype/StillImage" />
      </cc:Work>
    </rdf:RDF>
  </metadata>
  <defs
     id="defs10" />
  <sodipodi:namedview
     pagecolor="#ffffff"
     bordercolor="#666666"
     borderopacity="1"
     objecttolerance="10"
     gridtolerance="10"
     guidetolerance="10"
     inkscape:pageopacity="0"
     inkscape:pageshadow="2"
     inkscape:window-width="741"
     inkscape:window-height="527"
     id="namedview8"
     showgrid="false"
     showguides="true"
     inkscape:guide-bbox="true"
     inkscape:zoom="5.9"
     inkscape:cx="20"
     inkscape:cy="19.661017"
     inkscape:window-x="0"
     inkscape:window-y="24"
     inkscape:window-maximized="0"
     inkscape:current-layer="g4" />
  <g
     transform="translate(0 -1012.3622)"
     id="g4">
    <path
       fill="#b3b3b3"
       color="#000"
       d="m19.4759,1022.3628c-.2109,.014-.416,.047-.6232,.071h-.014l-.4957,2.7054c-.8081,.184-1.5683,.4963-2.2522,.9206l-2.2238-1.6005c-.6012,.4667-1.1482,1.011-1.6289,1.6005l1.5439,2.2521c-.4688,.7164-.8213,1.5344-1.0198,2.3937-0,0-0,.013 0,.014l-2.6913,.4249c-.0492,.4019-.0709,.8172-.0709,1.2323 0,.3396 .0094,.6748 .0424,1.0057l2.6913,.4816c.1914,.9345 .555,1.8073 1.0623,2.5779l-1.6006,2.1953c.4584,.5691 .9876,1.0873 1.5581,1.544l2.2663-1.5582c.7921,.5053 1.6762,.8596 2.6346,1.0341l.4249,2.677c.302,.028 .6117,.028 .9207,.028 .4363,0 .8531-.017 1.2748-.071l.5099-2.7336c.9099-.2265 1.7647-.6194 2.5071-1.1473l2.1813,1.5863c.5657-.4812 1.083-1.0344 1.5298-1.6289l-1.5864-2.2945c.4297-.742 .7273-1.5607 .8782-2.4362l2.6771-.4249c.0236-.2794 .0282-.5504 .0282-.8358 0-.4959-.0576-.9822-.1275-1.4589l-2.7196-.4956c-.2131-.787-.5628-1.5213-1.0056-2.1814l1.6006-2.1954c-.4961-.6067-1.0621-1.1672-1.6855-1.643l-2.3088,1.5864c-.6636-.3924-1.3776-.6936-2.153-.864l-.4249-2.6912c-.3867-.046-.7767-.071-1.1756-.071-.1078,0-.2188,0-.3258,0-.0521,0-.1038,0-.1558,0-.014,0-.0286,0-.0426,0zm.3683,6.8837c.0518,0 .1034,0 .1558,0 1.6767,0 3.0453,1.3688 3.0453,3.0454 0,1.6766-1.3687,3.031-3.0453,3.031-1.6767,0-3.0312-1.3544-3.0312-3.031 0-1.6242 1.2712-2.9639 2.8754-3.0454z"
       id="path6"
       style="fill:#666666;fill-opacity:1" />
  </g>
</svg>
