<svg xmlns="http://www.w3.org/2000/svg" viewBox="0 0 40 40">
<g transform="matrix(2 0 0 2 528.27869 -3177.4294)">
<path fill="#149ed2" d="m-264.139,1588.71h20v20h-20z"/>
</g>
<g fill="#fff" transform="matrix(.17352 0 0 .17352 4.99931 8.9626)">
<path d="m136.29,14.189c.077,1.313-1.786,.968-1.786,2.293 0,38.551-44.72,96.831-89.847,108.19v1.182c59.957-5.51 126.73-66.8 128.24-125.85l-36.6,14.189z"/>
<path d="m120.23,17.96c.077,1.313 .121,2.633 .121,3.958 0,38.551-30.7,90.497-75.827,101.86v1.637c59.065-3.823 105.81-63.023 105.81-109.2 0-2.375-.125-4.729-.371-7.056l-29.73,8.796z"/>
<path d="m36.599,14.189c-.077,1.313 1.787,.968 1.787,2.293 0,38.551 46.558,97.366 91.688,108.73v1.639c-59.953-5.52-128.56-67.8-130.07-126.85l36.599,14.189z"/>
<path d="m54.731,18.932c-.076,1.313-.12,2.63-.12,3.957 0,38.551 30.699,90.497 75.827,101.86v1.639c-59.044-2.79-105.81-63.024-105.81-109.2 0-2.375 .128-4.729 .371-7.056l29.73,8.798z"/>
<path d="m24.713,9.583 7.617,2.722c-.041,.962-.066,2.254-.066,3.225 0,41.219 37.271,98.204 87.272,107.12 3.245,1.088 7.538,2.077 10.932,2.931v1.638c-65.254-5.56-111.1-71.866-105.76-117.64z"/>
<path d="m150.34,8.76-7.833,2.625c.041,.963 .191,2.203 .191,3.173 0,41.219-37.272,98.205-87.274,107.12-3.243,1.089-7.538,2.077-10.93,2.932v1.639c68.344-8.66 111.18-71.719 105.84-117.49z"/>
</g>
</svg>
