<svg xmlns="http://www.w3.org/2000/svg" viewBox="0 0 64 64" xmlns:xlink="http://www.w3.org/1999/xlink">
<defs/>
<g transform="matrix(3.2 0 0 3.2 845.24507 -5083.8815)">
<path fill="#fff" d="m-262.139,1588.71h16a2,2 0 0,1 2,2v16a2,2 0 0,1 -2,2h-16a2,2 0 0,1 -2-2v-16a2,2 0 0,1 2-2"/>
<path fill="#3d539f" d="m-245.2432,1588.7155-17.7923,0c-.6098,0-1.1039,.494-1.1039,1.1037v17.7917c0,.6096 .4941,1.1038 1.1039,1.1038h9.5788v-7.7447h-2.6064v-3.0183h2.6064v-2.2259c0-2.5831 1.5777-3.9898 3.8822-3.9898 1.1038,0 2.0525,.082 2.3291,.1189v2.6996h-1.5984c-1.2532,0-1.4959,.5955-1.4959,1.4694v1.927h2.9889l-.3892,3.0183h-2.5997v7.7447h5.0965c.6096,0 1.1038-.4942 1.1038-1.1038v-17.7917c0-.6096-.4942-1.1037-1.1038-1.1037"/>
</g>
</svg>
