<?xml version="1.0" encoding="UTF-8" standalone="no"?>
<!-- Created with Inkscape (http://www.inkscape.org/) -->

<svg
   xmlns:dc="http://purl.org/dc/elements/1.1/"
   xmlns:cc="http://creativecommons.org/ns#"
   xmlns:rdf="http://www.w3.org/1999/02/22-rdf-syntax-ns#"
   xmlns:svg="http://www.w3.org/2000/svg"
   xmlns="http://www.w3.org/2000/svg"
   xmlns:xlink="http://www.w3.org/1999/xlink"
   xmlns:sodipodi="http://sodipodi.sourceforge.net/DTD/sodipodi-0.dtd"
   xmlns:inkscape="http://www.inkscape.org/namespaces/inkscape"
   version="1.1"
   width="64"
   height="64"
   id="svg6146"
   inkscape:version="0.48.4 r9939"
   sodipodi:docname="hangouts.svg">
  <sodipodi:namedview
     pagecolor="#ffffff"
     bordercolor="#666666"
     borderopacity="1"
     objecttolerance="10"
     gridtolerance="10"
     guidetolerance="10"
     inkscape:pageopacity="0"
     inkscape:pageshadow="2"
     inkscape:window-width="2560"
     inkscape:window-height="1391"
     id="namedview13"
     showgrid="false"
     inkscape:zoom="1.22"
     inkscape:cx="12.574196"
     inkscape:cy="23.010637"
     inkscape:window-x="0"
     inkscape:window-y="25"
     inkscape:window-maximized="1"
     inkscape:current-layer="svg6146" />
  <defs
     id="defs6148">
    <linearGradient
       y2="-231.95239"
       x2="1316.665"
       y1="231.07143"
       x1="1316.665"
       gradientTransform="matrix(0.05954747,0,0,0.05954747,-42.218954,13.812119)"
       gradientUnits="userSpaceOnUse"
       id="linearGradient24641-6"
       xlink:href="#linearGradient4920-2-0"
       inkscape:collect="always" />
    <linearGradient
       inkscape:collect="always"
       id="linearGradient4920-2-0">
      <stop
         style="stop-color:#449a34;stop-opacity:1;"
         offset="0"
         id="stop4922-7-3" />
      <stop
         style="stop-color:#62b84a;stop-opacity:1"
         offset="1"
         id="stop4924-6-6" />
    </linearGradient>
    <linearGradient
       y2="-231.95239"
       x2="1316.665"
       y1="231.07143"
       x1="1316.665"
       gradientTransform="matrix(0.05954747,0,0,0.05954747,-42.218954,13.812119)"
       gradientUnits="userSpaceOnUse"
       id="linearGradient9608"
       xlink:href="#linearGradient4920-2-0"
       inkscape:collect="always" />
  </defs>
  <metadata
     id="metadata6151">
    <rdf:RDF>
      <cc:Work
         rdf:about="">
        <dc:format>image/svg+xml</dc:format>
        <dc:type
           rdf:resource="http://purl.org/dc/dcmitype/StillImage" />
        <dc:title></dc:title>
      </cc:Work>
    </rdf:RDF>
  </metadata>
  <g
     id="g4986"
     transform="matrix(0.69671101,0,0,0.69671101,-9.137791e-8,2.0414266)">
    <path
       style="fill:#0071c5"
       inkscape:connector-curvature="0"
       id="path34"
       d="m 46.02,0 5.97,0 c -0.01,5.11 0.04,10.23 -0.04,15.34 1.86,-1 3.77,-2.55 6.04,-2.06 4.57,0.7 6.57,5.43 9.28,8.6 5.99,-0.37 12.39,0.69 16.95,4.9 6.45,5.18 9.3,14.39 6.66,22.27 -1.48,5.16 -5.28,9.3 -9.74,12.12 0.91,2.55 1.82,5.58 0.05,8 -2.04,3.47 -7.22,4.53 -10.29,1.85 -2.2,-2.23 -3.95,-4.85 -6.01,-7.2 -4.41,0.08 -8.82,-0.49 -12.91,-2.19 0.02,8.12 0,16.25 0.01,24.37 l -6.2,0 C 30.55,83.22 15.26,80.68 0.01,78 0,54.67 0,31.34 0,8.02 15.34,5.33 30.69,2.73 46.02,0 z" />
    <path
       style="fill:#ffffff"
       inkscape:connector-curvature="0"
       id="path56"
       d="m 53.21,19.11 c 0.77,-2.97 5.23,-4.03 7.08,-1.47 4.14,5.04 8.04,10.28 12.14,15.36 -4.47,0.16 -8.99,-0.38 -13.42,0.31 -3.5,0.77 -5.87,3.78 -7.02,7 0.05,-4.37 -0.09,-8.74 0.1,-13.1 1.26,-0.54 2.53,-1.06 3.82,-1.59 -1.24,-1.96 -3.44,-3.96 -2.7,-6.51 z" />
    <path
       style="fill:#ffffff"
       inkscape:connector-curvature="0"
       id="path68"
       d="m 69.04,24.7 c 5.34,-0.02 10.9,1.55 14.66,5.51 5.44,5.22 6.79,13.99 3.37,20.66 -2.11,4.31 -6.08,7.41 -10.47,9.15 1.14,1.85 3.02,3.62 2.73,5.99 -0.42,2.35 -3.02,3.86 -5.28,3.27 -1.64,-0.76 -2.68,-2.3 -3.8,-3.64 -3.35,-4.39 -6.81,-8.69 -10.22,-13.04 4.6,-0.24 9.33,0.56 13.87,-0.48 5.88,-1.66 8.63,-9.28 5.35,-14.4 C 76.17,33.14 72.31,29.14 69.04,24.7 z" />
    <path
       style="fill:#ffffff"
       inkscape:connector-curvature="0"
       id="path86"
       d="m 18.99,27.24 c 2.01,-0.1 4.03,-0.2 6.06,-0.29 0,8.81 -0.01,17.62 0,26.43 3.31,0.15 6.63,0.23 9.95,0.4 -0.01,2.07 -0.01,4.14 0,6.22 -5.34,-0.39 -10.68,-0.64 -16.01,-1.02 -0.01,-10.58 -0.01,-21.16 0,-31.74 z" />
    <path
       style="fill:#ffffff"
       inkscape:connector-curvature="0"
       id="path106"
       d="m 59.25,36.36 c 4.16,-0.82 8.53,-0.41 12.77,-0.29 5.35,0.72 7.45,7.94 3.63,11.63 -3.88,3.05 -9.19,1.82 -13.74,1.93 -3.6,0.06 -7.28,-2.83 -7.09,-6.62 -0.3,-2.98 1.76,-5.58 4.43,-6.65 z" />
    <path
       style="fill:#ffffff"
       inkscape:connector-curvature="0"
       id="path112"
       d="m 51.93,45.02 c 2.44,6.07 7.66,10.37 11.35,15.65 -3.95,0.13 -7.88,-0.66 -11.31,-2.66 0.02,-4.33 0.07,-8.66 -0.04,-12.99 z" />
  </g>
</svg>
