<svg xmlns="http://www.w3.org/2000/svg" viewBox="0 0 64 64" xmlns:xlink="http://www.w3.org/1999/xlink">
<defs/>
<g transform="matrix(1.6 0 0 1.6 -1204.3989 -1423.9084)">
<path fill="#ff8702" d="m756.749,889.943h32a4,4 0 0,1 4,4v32a4,4 0 0,1 -4,4h-32a4,4 0 0,1 -4-4v-32a4,4 0 0,1 4-4"/>
<path fill="#fff" word-spacing="0" line-height="100%" d="m17.25,16.5938v30.8125h8.9688v-16.9062l11.5312,16.9062h9v-30.8125h-9v17.0625l-11.5938-17.0625h-8.9062z" letter-spacing="0" transform="matrix(.625 0 0 .625 752.74931 889.94275)"/>
</g>
</svg>
