<svg xmlns="http://www.w3.org/2000/svg" viewBox="0 0 60 60">
<g transform="matrix(.2 0 0 .2 -254.34966 12.5909)">
<path fill="#39b006" d="m1319.001,165.7432c-26.3291-7.0907-40.0577-27.8797-41.5988-62.9921-2.0217-46.058 21.3802-73.9094 62.1015-73.9094 39.9222,0 62.977,27.7267 60.9426,73.2918-.3426,7.6716-1.4695,17.0696-2.5045,20.8845-6.1937,22.8306-20.006,37.3814-40.5677,42.7371-8.5638,2.2306-30.0709,2.2239-38.3731-.012zm30.6247-23.4495c7.9535-5.6634 11.1752-18.4446 11.1238-44.1302-.071-35.6819-6.7177-47.4931-26.1187-46.4156-4.3384,.241-11.1601,6.5672-13.8581,12.8515-7.1309,16.61-4.8027,62.0121 3.8026,74.1519 5.0018,7.0563 17.6113,8.8394 25.0504,3.5423zm90.4526,23.9361c-4.0028-1.5915-9.0635-6.602-11.5353-11.4207-1.1415-2.2254-5.824-17.0515-10.4055-32.9469-4.5816-15.8954-12.1835-42.113-16.8932-58.2613-4.7098-16.1483-8.5632-30.064-8.5632-30.9238 0-1.2522 3.8959-1.5633 19.5746-1.5633 17.6553,0 19.6304,.1984 20.1431,2.0231 .3125,1.1127 5.3163,22.208 11.1193,46.8785 5.803,24.6705 10.9233,45.862 11.3784,47.0923 .5428,1.4672 4.5616-12.7742 11.6793-41.3873 5.9683-23.9933 11.5719-46.0952 12.4524-49.1153l1.6008-5.4911h16.7956c15.4535,0 16.7477,.1616 16.1958,2.0231-.3298,1.1127-3.7892,12.4273-7.6874,25.1437-3.8983,12.7163-8.3118,27.2823-9.8079,32.3689-6.7971,23.1104-17.7959,58.2278-19.5469,62.4099-4.3093,10.2935-11.4994,14.4995-24.6045,14.3929-4.9529-.0403-10.3058-.5903-11.8954-1.2223zm98.2239,.3473c-2.7493-1.2185-6.3487-4.0746-7.5461-5.9879-.6119-.9777-1.3375-24.6695-1.6633-54.3143l-.578-52.5803-4.5297-.7358c-7.6035-1.2351-10.7373-8.9461-6.8609-16.8816l2.1424-4.3854 24.0256-.3126 24.0257-.3126-.3271,62.7382c-.3643,69.8733-.147,67.9836-8.2541,71.8306-4.0303,1.9125-16.9053,2.5058-20.4345,.9417zm-.5965-150.9618c-11.911-5.1881-14.365-21.6137-4.3681-29.2387 3.3823-2.5798 5.6488-3.2643 11.9955-3.623 9.8416-.5561 15.0256,1.1356 19.6621,6.4161 3.4239,3.8996 3.6203,4.6062 3.1843,11.4524-.5226,8.2089-3.1212,12.0885-10.0381,14.9862-4.8661,2.0385-15.7632,2.0423-20.4357,.007z"/>
</g>
</svg>
