<?xml version="1.0" encoding="UTF-8" standalone="no"?>
<!-- Created with Inkscape (http://www.inkscape.org/) -->

<svg
   xmlns:dc="http://purl.org/dc/elements/1.1/"
   xmlns:cc="http://creativecommons.org/ns#"
   xmlns:rdf="http://www.w3.org/1999/02/22-rdf-syntax-ns#"
   xmlns:svg="http://www.w3.org/2000/svg"
   xmlns="http://www.w3.org/2000/svg"
   version="1.1"
   width="60"
   height="60"
   id="svg3952">
  <defs
     id="defs3954" />
  <metadata
     id="metadata3957">
    <rdf:RDF>
      <cc:Work
         rdf:about="">
        <dc:format>image/svg+xml</dc:format>
        <dc:type
           rdf:resource="http://purl.org/dc/dcmitype/StillImage" />
        <dc:title></dc:title>
        <dc:title></dc:title>
      </cc:Work>
    </rdf:RDF>
  </metadata>
  <g
     transform="translate(-395.71429,-499.50504)"
     id="layer1">
    <g
       transform="matrix(0.2,0,0,0.2,141.36463,512.09594)"
       id="g3933">
      <path
         d="m 1319.001,165.74319 c -26.3291,-7.09072 -40.0577,-27.87972 -41.5988,-62.99206 -2.0217,-46.057969 21.3802,-73.909381 62.1015,-73.909381 39.9222,0 62.977,27.726688 60.9426,73.291841 -0.3426,7.6716 -1.4695,17.06963 -2.5045,20.88453 -6.1937,22.83055 -20.006,37.38145 -40.5677,42.73709 -8.5638,2.23059 -30.0709,2.22386 -38.3731,-0.012 z m 30.6247,-23.44954 c 7.9535,-5.66335 11.1752,-18.44462 11.1238,-44.130193 -0.071,-35.681945 -6.7177,-47.493079 -26.1187,-46.415565 -4.3384,0.240951 -11.1601,6.567238 -13.8581,12.851526 -7.1309,16.609978 -4.8027,62.012092 3.8026,74.151922 5.0018,7.05633 17.6113,8.8394 25.0504,3.54231 z m 90.4526,23.93607 c -4.0028,-1.59148 -9.0635,-6.60197 -11.5353,-11.42074 -1.1415,-2.22536 -5.824,-17.05146 -10.4055,-32.94689 -4.5816,-15.89542 -12.1835,-42.113003 -16.8932,-58.261298 -4.7098,-16.148283 -8.5632,-30.064006 -8.5632,-30.923826 0,-1.252167 3.8959,-1.563301 19.5746,-1.563301 17.6553,0 19.6304,0.198364 20.1431,2.023054 0.3125,1.11268 5.3163,22.207978 11.1193,46.878452 5.803,24.670469 10.9233,45.861989 11.3784,47.092279 0.5428,1.46715 4.5616,-12.7742 11.6793,-41.387325 5.9683,-23.993293 11.5719,-46.095182 12.4524,-49.115314 l 1.6008,-5.491146 16.7956,0 c 15.4535,0 16.7477,0.161648 16.1958,2.023054 -0.3298,1.11268 -3.7892,12.427332 -7.6874,25.143672 -3.8983,12.71634 -8.3118,27.282329 -9.8079,32.368865 -6.7971,23.110364 -17.7959,58.227764 -19.5469,62.409894 -4.3093,10.29354 -11.4994,14.49953 -24.6045,14.39288 -4.9529,-0.0403 -10.3058,-0.59033 -11.8954,-1.22231 z m 98.2239,0.34732 c -2.7493,-1.21848 -6.3487,-4.07462 -7.5461,-5.98791 -0.6119,-0.97766 -1.3375,-24.66945 -1.6633,-54.31433 l -0.578,-52.580291 -4.5297,-0.735791 c -7.6035,-1.235103 -10.7373,-8.946118 -6.8609,-16.881646 l 2.1424,-4.385391 24.0256,-0.312579 24.0257,-0.312577 -0.3271,62.738244 c -0.3643,69.873301 -0.147,67.983611 -8.2541,71.830621 -4.0303,1.91252 -16.9053,2.50582 -20.4345,0.94165 z m -0.5965,-150.961814 c -11.911,-5.188131 -14.365,-21.613735 -4.3681,-29.238711 3.3823,-2.57977 5.6488,-3.264346 11.9955,-3.622962 9.8416,-0.5561 15.0256,1.135558 19.6621,6.416085 3.4239,3.8996135 3.6203,4.6062293 3.1843,11.45237946 -0.5226,8.20894884 -3.1212,12.08849454 -10.0381,14.98617254 -4.8661,2.038521 -15.7632,2.042273 -20.4357,0.007 z"
         id="path3929"
         style="fill:#39b006;fill-opacity:1" />
    </g>
  </g>
</svg>
