<svg xmlns="http://www.w3.org/2000/svg" viewBox="0 0 64 64" xmlns:xlink="http://www.w3.org/1999/xlink">
<defs>
<clipPath id="clipPath8346" clipPathUnits="userSpaceOnUse">
<path fill="#2a7fff" d="m182.8287,68.4648c-51.858,0-94.0879,42.2309-94.0879,94.0879 0,20.583 6.6175,39.5719 17.8755,55.0758l-11.7157,35.0263 36.1133-11.5949c14.851,9.823 32.7107,15.5807 51.8148,15.5807 51.856,0 93.9671-42.2329 93.9671-94.0879 0-51.857-42.1121-94.0879-93.9671-94.0879z"/>
</clipPath>
<clipPath id="clipPath8149-8-8" clipPathUnits="userSpaceOnUse">
<path fill="#67bc59" d="m600.33-223.3692c-26.891,0-48.6923,33.0089-48.6923,73.724 0,16.5789 3.6091,31.8768 9.7101,44.1914l-7.3819,26.5019 18.7245-9.9946c7.851,8.2092 17.3764,13.0253 27.6396,13.0253 26.891,0 48.6923-33.0089 48.6923-73.724 0-40.715-21.8013-73.724-48.6923-73.724z"/>
</clipPath>
<radialGradient cx="600.326" cy="-149.644" id="radialGradient8386" r="69.091" gradientUnits="userSpaceOnUse">
<stop offset="0" stop-color="#108e45"/>
<stop offset=".598" stop-color="#108e45" stop-opacity=".498"/>
<stop offset="1" stop-color="#108e45" stop-opacity="0"/>
</radialGradient>
</defs>
<g transform="matrix(.24993 0 0 .24993 -13.1634 -9.59912)">
<path fill="#f9f9f9" fill-rule="evenodd" stroke="#65bb58" stroke-width="12.209" d="m182.7756,50.6845c-61.781,0-111.863,50.08-111.863,111.861 0,21.132 5.865,40.896 16.051,57.757l-20.188,60.014 61.932-19.83c16.025,8.863 34.455,13.914 54.068,13.914 61.777,0 111.859-50.078 111.859-111.854 .001-61.782-50.081-111.862-111.859-111.862zm0,205.901c-19.104,0-36.891-5.73-51.742-15.553l-36.141,11.574 11.746-34.926c-11.258-15.504-17.91-34.555-17.91-55.138 0-51.857 42.189-94.045 94.047-94.045 51.855,0 94.045,42.188 94.045,94.045 0,51.855-42.189,94.043-94.045,94.043z"/>
<g clip-path="url(#clipPath8346)">
<path fill="#67bc59" d="m182.2826,55.7064c-59.1957,0-107.1875,47.9918-107.1875,107.1875 0,24.1041 7.9449,46.3458 21.375,64.25l-16.25,38.5313 41.2188-14.5312c17.2826,11.9354 38.2512,18.9375 60.8438,18.9375 59.1957,0 107.1875-47.9918 107.1875-107.1875 0-59.1957-47.9918-107.1875-107.1875-107.1875z"/>
<path fill="url(#radialGradient8386)" d="m669.4162-149.644c0,38.1577-30.9329,69.0906-69.0906,69.0906-38.1577,0-69.0906-30.9329-69.0906-69.0906 0-38.1577 30.9329-69.0906 69.0906-69.0906 38.1577,0 69.0906,30.9329 69.0906,69.0906z" clip-path="url(#clipPath8149-8-8)" transform="matrix(2.20132 0 0 1.4539 -1139.2374 380.46358)"/>
</g>
<g fill-rule="evenodd">
<path fill="url(#SVGID_1_-4)" d="m182.906,68.497c-51.857,0-94.047,42.188-94.047,94.045 0,20.583 6.652,39.634 17.91,55.138l-11.746,34.926 36.141-11.574c14.852,9.822 32.639,15.553 51.742,15.553 51.855,0 94.045-42.188 94.045-94.042 0-51.858-42.189-94.046-94.045-94.046z"/>
<path fill="#fff" d="m156.67,116.274c-1.812-4.367-3.2-4.515-5.999-4.648-.96-.046-2.001-.09-3.14-.09-3.606,0-7.345,1.062-9.598,3.367-2.742,2.805-9.598,9.375-9.598,22.865 0,13.492 9.826,26.529 11.195,28.359 1.373,1.828 19.164,29.919 46.844,41.388 21.605,8.949 28.02,8.152 32.949,7.074 7.172-1.566 16.178-6.848 18.463-13.248 2.285-6.404 2.285-11.893 1.6-13.033-.686-1.145-2.514-1.828-5.256-3.203-2.742-1.371-16.225-8.004-18.738-8.917-2.514-.914-4.838-.635-6.771,2.038-2.668,3.693-5.234,7.488-7.359,9.738-1.668,1.766-4.352,2.012-6.66,1.031-3.035-1.293-11.578-4.27-22.053-13.608-8.15-7.266-13.654-16.242-15.254-18.988-1.6-2.742-.141-4.379 1.092-5.871 1.406-1.703 2.703-2.926 4.074-4.525 1.371-1.602 2.137-2.455 3.051-4.287 .914-1.828 .299-3.715-.387-5.088-.687-1.373-6.177-14.861-8.455-20.354z"/>
<path fill="#f9f9f9" d="m182.7756,50.6845c-61.781,0-111.863,50.08-111.863,111.861 0,21.132 5.865,40.896 16.051,57.757l-20.188,60.014 61.932-19.83c16.025,8.863 34.455,13.914 54.068,13.914 61.777,0 111.859-50.078 111.859-111.854 .001-61.782-50.081-111.862-111.859-111.862zm0,205.901c-19.104,0-36.891-5.73-51.742-15.553l-36.141,11.574 11.746-34.926c-11.258-15.504-17.91-34.555-17.91-55.138 0-51.857 42.189-94.045 94.047-94.045 51.855,0 94.045,42.188 94.045,94.045 0,51.855-42.189,94.043-94.045,94.043z"/>
</g>
</g>
</svg>
