<?xml version="1.0" encoding="UTF-8" standalone="no"?>
<!-- Created with Inkscape (http://www.inkscape.org/) -->

<svg
   xmlns:dc="http://purl.org/dc/elements/1.1/"
   xmlns:cc="http://creativecommons.org/ns#"
   xmlns:rdf="http://www.w3.org/1999/02/22-rdf-syntax-ns#"
   xmlns:svg="http://www.w3.org/2000/svg"
   xmlns="http://www.w3.org/2000/svg"
   xmlns:xlink="http://www.w3.org/1999/xlink"
   xmlns:sodipodi="http://sodipodi.sourceforge.net/DTD/sodipodi-0.dtd"
   xmlns:inkscape="http://www.inkscape.org/namespaces/inkscape"
   version="1.1"
   width="64"
   height="64"
   id="svg6146"
   inkscape:version="0.48.4 r9939"
   sodipodi:docname="facebook.svg">
  <sodipodi:namedview
     pagecolor="#ffffff"
     bordercolor="#666666"
     borderopacity="1"
     objecttolerance="10"
     gridtolerance="10"
     guidetolerance="10"
     inkscape:pageopacity="0"
     inkscape:pageshadow="2"
     inkscape:window-width="2560"
     inkscape:window-height="1391"
     id="namedview13"
     showgrid="false"
     inkscape:zoom="7.3210538"
     inkscape:cx="30.331203"
     inkscape:cy="23.010637"
     inkscape:window-x="0"
     inkscape:window-y="25"
     inkscape:window-maximized="1"
     inkscape:current-layer="svg6146" />
  <defs
     id="defs6148">
    <linearGradient
       y2="-231.95239"
       x2="1316.665"
       y1="231.07143"
       x1="1316.665"
       gradientTransform="matrix(0.05954747,0,0,0.05954747,-42.218954,13.812119)"
       gradientUnits="userSpaceOnUse"
       id="linearGradient24641-6"
       xlink:href="#linearGradient4920-2-0"
       inkscape:collect="always" />
    <linearGradient
       inkscape:collect="always"
       id="linearGradient4920-2-0">
      <stop
         style="stop-color:#449a34;stop-opacity:1;"
         offset="0"
         id="stop4922-7-3" />
      <stop
         style="stop-color:#62b84a;stop-opacity:1"
         offset="1"
         id="stop4924-6-6" />
    </linearGradient>
    <linearGradient
       inkscape:collect="always"
       xlink:href="#SVGID_1_-0-1-0-2-9-7-0"
       id="linearGradient6104"
       gradientUnits="userSpaceOnUse"
       gradientTransform="translate(1916,0)"
       x1="-1807.2"
       y1="125.86"
       x2="-1807.2"
       y2="0.00048828" />
    <linearGradient
       id="SVGID_1_-0-1-0-2-9-7-0"
       y2="0.00048828"
       gradientUnits="userSpaceOnUse"
       x2="-1807.2"
       gradientTransform="translate(1916,0)"
       y1="125.86"
       x1="-1807.2">
      <stop
         stop-color="#1b3967"
         offset=".011"
         id="stop4302-3-4-9-3-8-9-7" />
      <stop
         stop-color="#13b5ea"
         offset=".467"
         id="stop4304-4-0-2-1-1-9-7" />
      <stop
         stop-color="#002b5c"
         offset=".9945"
         id="stop4306-7-6-1-2-1-7-7" />
    </linearGradient>
    <linearGradient
       inkscape:collect="always"
       xlink:href="#SVGID_2_-1-0-5-7-7-4-5"
       id="linearGradient6106"
       gradientUnits="userSpaceOnUse"
       gradientTransform="matrix(-1,0,0,1,-1008.2,0)"
       x1="-1073.2"
       y1="126.85"
       x2="-1073.2"
       y2="1.279e-13" />
    <linearGradient
       id="SVGID_2_-1-0-5-7-7-4-5"
       y2="1.279e-13"
       gradientUnits="userSpaceOnUse"
       x2="-1073.2"
       gradientTransform="matrix(-1,0,0,1,-1008.2,0)"
       y1="126.85"
       x1="-1073.2">
      <stop
         stop-color="#1b3967"
         offset=".011"
         id="stop4313-6-0-0-1-3-7-0" />
      <stop
         stop-color="#13b5ea"
         offset=".467"
         id="stop4315-2-1-7-7-5-3-1" />
      <stop
         stop-color="#002b5c"
         offset=".9945"
         id="stop4317-5-9-9-5-5-6-7" />
    </linearGradient>
  </defs>
  <metadata
     id="metadata6151">
    <rdf:RDF>
      <cc:Work
         rdf:about="">
        <dc:format>image/svg+xml</dc:format>
        <dc:type
           rdf:resource="http://purl.org/dc/dcmitype/StillImage" />
        <dc:title></dc:title>
      </cc:Work>
    </rdf:RDF>
  </metadata>
  <g
     transform="matrix(0.37017115,0,0,0.37017115,-0.001481,8.4534131)"
     id="g4341-8-4-2-1-1">
    <path
       style="fill:url(#linearGradient6104)"
       inkscape:connector-curvature="0"
       id="path4308-2-1-4-7-2"
       d="m 136.29,14.189 c 0.077,1.313 -1.786,0.968 -1.786,2.293 0,38.551 -44.72,96.831 -89.847,108.19 v 1.182 c 59.957,-5.51 126.73,-66.8 128.24,-125.85 l -36.6,14.189 z" />
    <path
       style="fill:#e96d1f"
       inkscape:connector-curvature="0"
       id="path4310-5-2-3-2-2"
       d="m 120.23,17.96 c 0.077,1.313 0.121,2.633 0.121,3.958 0,38.551 -30.7,90.497 -75.827,101.86 v 1.637 c 59.065,-3.823 105.81,-63.023 105.81,-109.2 0,-2.375 -0.125,-4.729 -0.371,-7.056 l -29.73,8.796 z" />
    <path
       style="fill:url(#linearGradient6106)"
       inkscape:connector-curvature="0"
       id="path4319-6-8-0-9-0"
       d="m 36.599,14.189 c -0.077,1.313 1.787,0.968 1.787,2.293 0,38.551 46.558,97.366 91.688,108.73 v 1.639 C 70.121,121.331 1.514,59.051 0.004,0.001 L 36.603,14.19 z" />
    <path
       style="fill:#a0ce67"
       inkscape:connector-curvature="0"
       id="path4321-1-5-4-9-5"
       d="m 54.731,18.932 c -0.076,1.313 -0.12,2.63 -0.12,3.957 0,38.551 30.699,90.497 75.827,101.86 v 1.639 c -59.044,-2.79 -105.81,-63.024 -105.81,-109.2 0,-2.375 0.128,-4.729 0.371,-7.056 l 29.73,8.798 z" />
    <path
       style="fill:#439639"
       inkscape:connector-curvature="0"
       id="path4323-1-1-0-3-9"
       d="m 24.713,9.583 7.617,2.722 c -0.041,0.962 -0.066,2.254 -0.066,3.225 0,41.219 37.271,98.204 87.272,107.12 3.245,1.088 7.538,2.077 10.932,2.931 v 1.638 C 65.214,121.659 19.368,55.353 24.708,9.579 z" />
    <path
       style="fill:#d9541e"
       inkscape:connector-curvature="0"
       id="path4325-4-9-3-7-0"
       d="m 150.34,8.76 -7.833,2.625 c 0.041,0.963 0.191,2.203 0.191,3.173 0,41.219 -37.272,98.205 -87.274,107.12 -3.243,1.089 -7.538,2.077 -10.93,2.932 v 1.639 c 68.344,-8.66 111.18,-71.719 105.84,-117.49 z" />
  </g>
</svg>
