<?xml version="1.0" encoding="UTF-8" standalone="no"?>
<!-- Created with Inkscape (http://www.inkscape.org/) -->

<svg
   xmlns:dc="http://purl.org/dc/elements/1.1/"
   xmlns:cc="http://creativecommons.org/ns#"
   xmlns:rdf="http://www.w3.org/1999/02/22-rdf-syntax-ns#"
   xmlns:svg="http://www.w3.org/2000/svg"
   xmlns="http://www.w3.org/2000/svg"
   xmlns:sodipodi="http://sodipodi.sourceforge.net/DTD/sodipodi-0.dtd"
   xmlns:inkscape="http://www.inkscape.org/namespaces/inkscape"
   width="30"
   height="22"
   id="svg5128"
   version="1.1"
   inkscape:version="0.48.3.1 r9886"
   sodipodi:docname="chats.svg">
  <defs
     id="defs5130" />
  <sodipodi:namedview
     id="base"
     pagecolor="#ffffff"
     bordercolor="#666666"
     borderopacity="1.0"
     inkscape:pageopacity="0.0"
     inkscape:pageshadow="2"
     inkscape:zoom="11.2"
     inkscape:cx="39.006022"
     inkscape:cy="2.002768"
     inkscape:document-units="px"
     inkscape:current-layer="layer1"
     showgrid="false"
     borderlayer="true"
     inkscape:showpageshadow="false"
     fit-margin-top="0"
     fit-margin-left="0"
     fit-margin-right="0"
     fit-margin-bottom="0"
     inkscape:window-width="2560"
     inkscape:window-height="1391"
     inkscape:window-x="0"
     inkscape:window-y="25"
     inkscape:window-maximized="1"
     inkscape:snap-page="true" />
  <metadata
     id="metadata5133">
    <rdf:RDF>
      <cc:Work
         rdf:about="">
        <dc:format>image/svg+xml</dc:format>
        <dc:type
           rdf:resource="http://purl.org/dc/dcmitype/StillImage" />
        <dc:title />
      </cc:Work>
    </rdf:RDF>
  </metadata>
  <g
     inkscape:label="Capa 1"
     inkscape:groupmode="layer"
     id="layer1"
     transform="translate(-130.71429,-238.75504)">
    <path
       inkscape:connector-curvature="0"
       id="path4649"
       style="fill:#ffffff;fill-opacity:1;stroke:none"
       d="m 133.71429,238.75504 c -1.662,0 -3,1.30827 -3,2.93333 l 0,10.26667 c 0,1.62507 1.338,2.93333 3,2.93333 l 3,0 0,5.86667 6,-5.86667 15,0 c 1.662,0 3,-1.30826 3,-2.93333 l 0,-10.26667 c 0,-1.62506 -1.338,-2.93333 -3,-2.93333 l -24,0 z m 1.5,4.4 15,0 0,1.46667 -15,0 0,-1.46667 z m 6,4.4 15,0 0,1.46667 -15,0 0,-1.46667 z" />
  </g>
</svg>
