<?xml version="1.0" encoding="UTF-8" standalone="no"?>
<!-- Created with Inkscape (http://www.inkscape.org/) -->

<svg
   xmlns:dc="http://purl.org/dc/elements/1.1/"
   xmlns:cc="http://creativecommons.org/ns#"
   xmlns:rdf="http://www.w3.org/1999/02/22-rdf-syntax-ns#"
   xmlns:svg="http://www.w3.org/2000/svg"
   xmlns="http://www.w3.org/2000/svg"
   xmlns:sodipodi="http://sodipodi.sourceforge.net/DTD/sodipodi-0.dtd"
   xmlns:inkscape="http://www.inkscape.org/namespaces/inkscape"
   width="30"
   height="22"
   id="svg6292"
   version="1.1"
   inkscape:version="0.48.3.1 r9886"
   sodipodi:docname="me.svg">
  <defs
     id="defs6294" />
  <sodipodi:namedview
     id="base"
     pagecolor="#ffffff"
     bordercolor="#666666"
     borderopacity="1.0"
     inkscape:pageopacity="0.0"
     inkscape:pageshadow="2"
     inkscape:zoom="15.839192"
     inkscape:cx="6.3748858"
     inkscape:cy="16.179669"
     inkscape:document-units="px"
     inkscape:current-layer="g6265"
     showgrid="false"
     inkscape:window-width="2560"
     inkscape:window-height="1391"
     inkscape:window-x="0"
     inkscape:window-y="25"
     inkscape:window-maximized="1"
     fit-margin-top="0"
     fit-margin-left="0"
     fit-margin-right="0"
     fit-margin-bottom="0"
     borderlayer="true"
     inkscape:showpageshadow="false" />
  <metadata
     id="metadata6297">
    <rdf:RDF>
      <cc:Work
         rdf:about="">
        <dc:format>image/svg+xml</dc:format>
        <dc:type
           rdf:resource="http://purl.org/dc/dcmitype/StillImage" />
        <dc:title />
      </cc:Work>
    </rdf:RDF>
  </metadata>
  <g
     inkscape:label="Capa 1"
     inkscape:groupmode="layer"
     id="layer1"
     transform="translate(-314.28571,-493.80791)">
    <g
       id="g6265"
       transform="matrix(0.27428571,0,0,0.27660375,-147.66262,142.03533)"
       style="fill:#ff0000"
       inkscape:export-filename="/home/adansdpc/Imágenes/Waalt/Chat/tools/people.png"
       inkscape:export-xdpi="90"
       inkscape:export-ydpi="90">
      <path
         inkscape:connector-curvature="0"
         style="fill:#ffffff;stroke:none"
         d="m 1738.4136,1271.7563 c -6.9989,0.071 -12.8704,3.5987 -14.75,11.0918 -2.7867,11.1103 0.8362,29.2319 5,32.9387 0.5157,0.2395 -0.3124,1.0084 -0.3124,1.0084 0,0 -0.9744,2.1813 -5.2188,5.1334 -4.2443,2.9521 -17.1977,9.3386 -18.9375,10.8777 -1.4662,1.2976 -3.0329,13.2871 -4.4687,18.4862 l 38.6874,0 38.6876,0 c -1.4359,-5.1991 -3.0026,-17.1886 -4.4688,-18.4862 -1.7398,-1.5391 -14.6932,-7.9256 -18.9375,-10.8777 -4.2444,-2.9521 -5.2187,-5.1334 -5.2187,-5.1334 -10e-5,0 -0.8282,-0.7689 -0.3126,-1.0084 4.1639,-3.7069 7.7868,-21.8284 5,-32.9387 -1.8795,-7.4932 -7.751,-11.0204 -14.75,-11.0918 z"
         id="path6149" />
    </g>
  </g>
</svg>
