<?xml version="1.0" encoding="UTF-8" standalone="no"?>
<!-- Generator: Adobe Illustrator 16.0.0, SVG Export Plug-In . SVG Version: 6.00 Build 0)  -->

<svg
   xmlns:dc="http://purl.org/dc/elements/1.1/"
   xmlns:cc="http://creativecommons.org/ns#"
   xmlns:rdf="http://www.w3.org/1999/02/22-rdf-syntax-ns#"
   xmlns:svg="http://www.w3.org/2000/svg"
   xmlns="http://www.w3.org/2000/svg"
   xmlns:sodipodi="http://sodipodi.sourceforge.net/DTD/sodipodi-0.dtd"
   xmlns:inkscape="http://www.inkscape.org/namespaces/inkscape"
   version="1.1"
   id="Layer_1"
   x="0px"
   y="0px"
   width="218.726"
   height="42.711758"
   viewBox="0 0 218.726 42.711758"
   enable-background="new 0 0 266 100"
   xml:space="preserve"
   inkscape:version="0.48.4 r9939"
   sodipodi:docname="Facebook_New_Logo_(2015).svg"><metadata
   id="metadata3045"><rdf:RDF><cc:Work
       rdf:about=""><dc:format>image/svg+xml</dc:format><dc:type
         rdf:resource="http://purl.org/dc/dcmitype/StillImage" /><dc:title></dc:title></cc:Work></rdf:RDF></metadata><defs
   id="defs3043">
	
	
</defs><sodipodi:namedview
   pagecolor="#ffffff"
   bordercolor="#666666"
   borderopacity="1"
   objecttolerance="10"
   gridtolerance="10"
   guidetolerance="10"
   inkscape:pageopacity="0"
   inkscape:pageshadow="2"
   inkscape:window-width="640"
   inkscape:window-height="480"
   id="namedview3041"
   showgrid="false"
   fit-margin-top="0"
   fit-margin-left="0"
   fit-margin-right="0"
   fit-margin-bottom="0"
   inkscape:zoom="1.2969925"
   inkscape:cx="109.364"
   inkscape:cy="21.355759"
   inkscape:window-x="1880"
   inkscape:window-y="114"
   inkscape:window-maximized="0"
   inkscape:current-layer="Layer_1" />
<g
   id="g3023"
   style="fill:#000000"
   transform="translate(-23.636,-28.644)">
		<path
   style="fill:#000000;fill-rule:evenodd"
   inkscape:connector-curvature="0"
   id="path3025"
   d="m 143.88,42.839 c -3.287,-0.351 -6.131,0.645 -8.535,3.536 v -0.899 l 0,0 V 29.87 29.698 28.644 l -8.705,1.054 v 41.04 h 8.705 v -2.436 c 1.174,0.838 2.316,1.847 3.652,2.325 5.072,1.818 11.76,0.336 14.1,-6.448 1.502,-4.352 1.463,-8.814 0.332,-13.215 -1.254,-4.889 -4.508,-7.588 -9.549,-8.125 z m 1.301,17.774 c -0.383,2.706 -2.537,4.124 -5.094,3.925 -0.639,-0.05 -1.217,-0.181 -1.736,-0.384 -2.061,-1.183 -2.684,-3.164 -2.865,-4.408 -0.002,10e-4 -0.004,10e-4 -0.004,0.002 -0.141,-1.925 -0.293,-5.95 0.646,-7.852 0.797,-1.458 2.188,-2.252 4.033,-2.313 2.621,-0.086 4.604,1.214 4.994,3.874 0.346,2.344 0.362,4.814 0.026,7.156 z"
   clip-rule="evenodd" />
		<path
   style="fill:#000000;fill-rule:evenodd"
   inkscape:connector-curvature="0"
   id="path3027"
   d="m 174.731,43.346 c -3.025,-0.809 -6.08,-0.799 -9.098,0.005 -4.52,1.203 -7.549,4.063 -8.525,8.612 -0.533,2.482 -0.639,5.121 -0.498,7.666 0.322,5.822 3.922,9.969 9.51,11.257 0.078,0.019 0.16,0.033 0.24,0.051 h -0.002 c 0,0 0.016,0.003 0.041,0.008 0.215,0.043 0.43,0.083 0.646,0.116 0.072,0.006 0.146,0.012 0.217,0.019 0.002,0 0.004,0 0.006,0 0.271,0.05 0.596,0.087 0.938,0.114 1.094,0.116 2.486,0.199 3.648,0.062 0.008,0 0.012,-0.002 0.018,-0.003 0.059,-0.001 0.119,-0.001 0.178,-0.005 5.77,-0.3 10.148,-3.938 11.426,-9.519 0.701,-3.061 0.701,-6.137 0.023,-9.2 -1.061,-4.808 -3.977,-7.901 -8.768,-9.183 z m 0.368,16.826 c -0.029,0.181 -0.059,0.36 -0.1,0.538 -0.578,2.568 -2.443,3.958 -4.93,3.842 -2.674,-0.122 -4.508,-1.685 -4.766,-4.357 -0.186,-1.952 -0.201,-3.945 -0.039,-5.898 0.254,-3.083 2.182,-4.769 5.074,-4.712 2.377,0.046 4.07,1.393 4.674,3.678 0.548,2.299 0.141,6.386 0.087,6.909 z"
   clip-rule="evenodd" />
		<path
   style="fill:#000000;fill-rule:evenodd"
   inkscape:connector-curvature="0"
   id="path3029"
   d="M 44.054,43.202 H 37.841 V 39.07 c 0.454,-3.906 6.906,-3.164 6.906,-3.164 l 0.002,-0.267 -0.002,-0.03 v -6.416 h -10e-4 v -0.001 h -0.005 c -0.222,-0.053 -12.834,-3.046 -15.339,6.553 0,0.002 0,0.005 -0.003,0.007 -0.005,0.021 -0.011,0.042 -0.016,0.063 -0.394,1.2 -0.367,6.696 -0.362,7.387 h -5.385 v 7.349 h 5.719 v 19.99 h 8.328 v -19.99 h 6.37 l 0.717,-7.349 h -0.716 z"
   clip-rule="evenodd" />
		<path
   style="fill:#000000;fill-rule:evenodd"
   inkscape:connector-curvature="0"
   id="path3031"
   d="m 63.915,46.718 c -0.102,-0.113 -0.203,-0.222 -0.29,-0.313 V 46.404 C 63.611,46.39 63.6,46.378 63.586,46.364 63.465,46.238 63.38,46.154 63.38,46.154 l 0,0 c -1.961,-1.994 -2.701,-2.49 -4.237,-2.943 -5.907,-1.74 -11.658,1.353 -13.479,7.296 -1.119,3.652 -1.135,7.411 -0.479,11.109 1.417,8.009 7.374,10.691 13.723,9.369 1.948,-0.406 3.396,-1.619 4.739,-3.308 0,0 0.121,-0.148 0.269,-0.436 v 3.524 H 72.04 V 43.233 h -8.124 v 3.485 z M 63.2,60.573 c -0.272,2.546 -2.332,4.075 -4.767,3.979 -2.495,-0.097 -4.146,-1.433 -4.685,-3.827 -0.646,-3.406 0.11,-7.453 0.174,-7.781 0.652,-2.286 2.315,-3.417 4.755,-3.36 2.396,0.054 4.243,1.472 4.513,3.954 0.253,2.322 0.259,4.712 0.01,7.035 z"
   clip-rule="evenodd" />
		<path
   style="fill:#000000;fill-rule:evenodd"
   inkscape:connector-curvature="0"
   id="path3033"
   d="m 96.852,68.792 c -0.377,-1.379 -0.806,-2.739 -1.221,-4.053 l -0.392,-1.461 c 0,0 -10.182,4.888 -11.77,-4.4 -0.147,-1.533 -0.102,-3.115 0.109,-4.628 0.396,-2.855 2.138,-4.384 4.909,-4.646 0.936,-0.089 1.91,-0.044 2.837,0.113 1.262,0.213 2.494,0.593 3.875,0.934 0.48,-1.469 0.971,-2.922 1.428,-4.385 0.072,-0.229 0.132,-0.427 0.179,-0.604 l 0.001,0 0.229,-0.879 c -0.057,-0.117 -0.196,-0.238 -0.382,-0.356 0,0 0,0 0,10e-4 -0.234,-0.196 -0.633,-0.359 -1.256,-0.587 -0.249,-0.091 -0.499,-0.172 -0.749,-0.25 -0.224,-0.071 -0.37,-0.113 -0.37,-0.113 h 0.001 c -2.675,-0.765 -5.421,-0.824 -8.211,-0.53 -5.88,0.621 -9.871,4.091 -10.978,9.819 -0.581,3.014 -0.554,6.065 0.113,9.088 0.999,4.527 3.743,7.452 8.204,8.76 2.911,0.853 5.894,0.896 8.862,0.433 1.248,-0.195 3.038,-0.842 4.323,-1.303 l 0.489,-0.172 -0.231,-0.783 0.001,0.002 z"
   clip-rule="evenodd" />
		<path
   style="fill:#000000;fill-rule:evenodd"
   inkscape:connector-curvature="0"
   id="path3035"
   d="m 123.657,58.021 c -0.039,-1.906 -0.013,-3.821 -0.283,-5.694 -0.743,-5.136 -3.87,-8.386 -8.927,-9.235 -1.93,-0.323 -3.971,-0.28 -5.932,-0.093 -5.367,0.512 -9.441,3.855 -10.276,8.886 -0.507,3.052 -0.572,6.291 -0.162,9.356 0.619,4.611 2.864,7.548 6.748,8.958 10e-4,0 10e-4,0 0.002,0 0.017,0.001 0.034,0.004 0.051,0.006 -0.002,0.002 -0.001,0.002 -0.002,0.003 1.773,0.53 10.45,2.799 18.099,-1.044 l -0.307,-1.126 c -0.003,0.002 -0.008,0.002 -0.011,0.002 -0.354,-1.502 -0.78,-2.988 -1.181,-4.477 l -0.043,-0.146 c 0,0 -0.159,0.057 -0.441,0.147 -0.006,10e-4 -0.014,10e-4 -0.02,0.002 -0.334,0.087 -0.664,0.189 -0.992,0.299 -0.061,0.02 -0.121,0.039 -0.182,0.057 -1.158,0.326 -2.813,0.728 -4.561,0.953 -1.467,0.148 -2.949,0.154 -4.445,0.026 -2.429,-0.402 -4.288,-1.703 -4.199,-4.779 h 1.388 c 4.762,0 9.523,0 14.286,-10e-4 0.113,0 0.228,10e-4 0.341,-0.001 l -0.001,0.002 c 0,0 1.023,-0.013 1.066,-0.023 0,0 -0.001,-0.27 0,-0.303 l -0.016,-1.775 z m -7.83,-3.754 h -9.406 c 0.049,-1.871 0.283,-3.61 1.946,-4.669 1.766,-1.122 3.717,-1.164 5.533,-0.158 1.836,1.014 1.98,2.846 1.927,4.827 z"
   clip-rule="evenodd" />
		<polygon
   style="fill:#000000;fill-rule:evenodd"
   id="polygon3037"
   points="225.108,28.669 216.403,29.724 216.403,70.765 225.108,70.765 225.108,58.205 233.128,70.783 242.362,70.783 233.659,57.129 242.362,43.52 233.128,43.52 225.108,56.058 225.108,29.896 225.108,29.724 "
   clip-rule="evenodd" />
		<path
   style="fill:#000000;fill-rule:evenodd"
   inkscape:connector-curvature="0"
   id="path3039"
   d="m 204.421,43.342 c -3.025,-0.81 -6.082,-0.8 -9.1,0.004 -4.518,1.204 -7.547,4.063 -8.523,8.611 -0.533,2.483 -0.639,5.121 -0.498,7.667 0.32,5.822 3.922,9.97 9.508,11.257 0.08,0.019 0.162,0.033 0.242,0.051 h -0.002 c 0,0 0.014,0.003 0.039,0.008 0.215,0.043 0.432,0.083 0.648,0.115 0.072,0.007 0.145,0.014 0.217,0.018 0.002,0.002 0.004,0.002 0.006,0.002 0.273,0.05 0.596,0.088 0.936,0.115 1.096,0.116 2.49,0.199 3.65,0.062 0.006,-0.002 0.01,-0.002 0.018,-0.004 0.061,-0.001 0.119,-0.001 0.176,-0.004 5.771,-0.301 10.15,-3.94 11.428,-9.519 0.701,-3.061 0.701,-6.138 0.025,-9.201 -1.065,-4.808 -3.979,-7.901 -8.77,-9.182 z m 0.367,16.825 c -0.029,0.182 -0.059,0.36 -0.1,0.539 -0.58,2.568 -2.443,3.956 -4.93,3.842 -2.674,-0.125 -4.508,-1.687 -4.766,-4.358 -0.186,-1.951 -0.203,-3.944 -0.041,-5.897 0.258,-3.084 2.184,-4.77 5.078,-4.713 2.373,0.046 4.068,1.393 4.672,3.678 0.546,2.298 0.142,6.387 0.087,6.909 z"
   clip-rule="evenodd" />
	</g>
</svg>