<?xml version="1.0" encoding="UTF-8" standalone="no"?>
<svg
   xmlns:dc="http://purl.org/dc/elements/1.1/"
   xmlns:cc="http://creativecommons.org/ns#"
   xmlns:rdf="http://www.w3.org/1999/02/22-rdf-syntax-ns#"
   xmlns:svg="http://www.w3.org/2000/svg"
   xmlns="http://www.w3.org/2000/svg"
   xmlns:sodipodi="http://sodipodi.sourceforge.net/DTD/sodipodi-0.dtd"
   xmlns:inkscape="http://www.inkscape.org/namespaces/inkscape"
   viewBox="0 0 60 60"
   id="svg2"
   version="1.1"
   inkscape:version="0.48.4 r9939"
   width="100%"
   height="100%"
   sodipodi:docname="mascot.svg">
  <metadata
     id="metadata29">
    <rdf:RDF>
      <cc:Work
         rdf:about="">
        <dc:format>image/svg+xml</dc:format>
        <dc:type
           rdf:resource="http://purl.org/dc/dcmitype/StillImage" />
      </cc:Work>
    </rdf:RDF>
  </metadata>
  <sodipodi:namedview
     pagecolor="#ffffff"
     bordercolor="#666666"
     borderopacity="1"
     objecttolerance="10"
     gridtolerance="10"
     guidetolerance="10"
     inkscape:pageopacity="0"
     inkscape:pageshadow="2"
     inkscape:window-width="1920"
     inkscape:window-height="1023"
     id="namedview27"
     showgrid="false"
     inkscape:zoom="5.6568543"
     inkscape:cx="33.305732"
     inkscape:cy="46.726338"
     inkscape:window-x="0"
     inkscape:window-y="30"
     inkscape:window-maximized="1"
     inkscape:current-layer="svg2">
    <inkscape:grid
       type="xygrid"
       id="grid3006"
       empspacing="5"
       visible="true"
       enabled="true"
       snapvisiblegridlinesonly="true" />
  </sodipodi:namedview>
  <defs
     id="defs4">
    <filter
       width="1.289"
       x="-0.14399999"
       y="-0.14399999"
       height="1.2869999"
       color-interpolation-filters="sRGB"
       id="filter7653-6">
      <feGaussianBlur
         stdDeviation="2.21025"
         id="feGaussianBlur7" />
    </filter>
    <filter
       color-interpolation-filters="sRGB"
       inkscape:collect="always"
       id="filter3860">
      <feGaussianBlur
         inkscape:collect="always"
         stdDeviation="1.473498"
         id="feGaussianBlur3862" />
    </filter>
    <filter
       color-interpolation-filters="sRGB"
       inkscape:collect="always"
       id="filter3860-1">
      <feGaussianBlur
         inkscape:collect="always"
         stdDeviation="1.473498"
         id="feGaussianBlur3862-9" />
    </filter>
  </defs>
  <g
     id="g3913"
     transform="matrix(0.30000001,0,0,0.30000001,-12.600002,-243.10866)">
    <path
       d="m 137.03711,810.87372 c -11.77684,0.24662 -23.39045,3.22945 -33.81667,9.23329 -53.87757,28.58472 -74.56935,105.30798 -52.5144,146.23205 15.69914,25.3124 52.93433,42.72264 91.2941,43.51154 21.72996,-0.4469 43.0647,-6.2823 60.36267,-15.81176 -4.9e-4,6e-4 28.63719,9.83486 29.63719,9.83486 2,0 3,-1 3,-3 0,-0.99996 -6.89964,-27.49414 -6.89964,-27.49414 1.89543,-2.2854 3.68039,-4.6003 5.19355,-7.0402 22.05494,-40.92362 1.36354,-117.64726 -52.5144,-146.23198 -10.42622,-6.00384 -22.03979,-8.98656 -33.81664,-9.23328 l -4.96306,0 -4.96307,0 z"
       id="path11"
       inkscape:connector-curvature="0"
       style="fill:#ff5a49;fill-opacity:1"
       sodipodi:nodetypes="cccccssccccccc" />
    <path
       id="path15"
       transform="matrix(4.1606576,0,0,4.1606576,-1395.1051,3752.5892)"
       d="m 368.6024,-701.5897 c -2.1691,0.052 -4.2722,0.6358 -6.1992,1.75 -9.9574,5.3048 -13.8003,19.5075 -9.7242,27.1022 4.5291,7.3328 18.7255,11.1124 28.2912,5.1283 7.0471,-4.075 8.9036,-14.1639 4.3455,-22.887 -0.1458,-0.2821 -0.2954,-0.5892 -0.4558,-0.8674 -0.1604,-0.2782 -0.3303,-0.5543 -0.5014,-0.8217 -3.6188,-5.7166 -9.3182,-9.1377 -14.8142,-9.3892 -0.3123,-0.0145 -0.6322,-0.0225 -0.942,-0.015 z"
       inkscape:connector-curvature="0"
       style="fill:#ffffff;filter:url(#filter3860-1)" />
    <g
       transform="matrix(3.6933066,0,0,3.6933066,-1222.4482,3434.7121)"
       style="fill:#ff5a49;fill-opacity:1"
       id="g19">
      <path
         style="fill:#ff5a49;fill-opacity:1"
         inkscape:connector-curvature="0"
         d="m 377.779,-690.376 c -2.4231,0 -4.3833,1.4646 -4.3833,3.2601 0,0.4545 0.1285,0.8776 0.3558,1.2705 0.6708,-1.1588 2.218,-1.9657 4.0274,-1.9657 1.8119,0 3.3743,0.8043 4.0436,1.9657 0.2256,-0.3916 0.3397,-0.8177 0.3397,-1.2705 0,-1.7956 -1.9602,-3.2601 -4.3833,-3.2601 z"
         id="path21" />
      <path
         style="fill:#ff5a49;fill-opacity:1;fill-rule:evenodd"
         inkscape:connector-curvature="0"
         d="m 373.3957,-680.5515 c 0,2.1766 -1.7719,3.9411 -3.9576,3.9411 -2.1857,0 -3.9576,-1.7645 -3.9576,-3.9411 h 7.9151 z"
         id="path23" />
      <path
         style="fill:#ff5a49;fill-opacity:1"
         inkscape:connector-curvature="0"
         d="m 361.0973,-690.376 c -2.4231,0 -4.3833,1.4646 -4.3833,3.2601 0,0.4545 0.1285,0.8776 0.3558,1.2705 0.6708,-1.1588 2.218,-1.9657 4.0274,-1.9657 1.8119,0 3.3743,0.8043 4.0436,1.9657 0.2256,-0.3916 0.3397,-0.8177 0.3397,-1.2705 0,-1.7956 -1.9602,-3.2601 -4.3833,-3.2601 z"
         id="path25" />
    </g>
  </g>
</svg>
