<svg xmlns="http://www.w3.org/2000/svg" viewBox="0 0 64 64">
<g transform="matrix(1.02425 0 0 1.02425 -348.82227 731.68774)">
<path fill="#e95644" d="m368.25-710.0625c-3.1887,.0668-6.3332,.8744-9.1562,2.5-14.5879,7.7396-20.1904,28.5132-14.2188,39.5938 4.2507,6.8536 14.3325,11.5676 24.7188,11.7812 5.8836-.121 11.6602-1.701 16.3438-4.2812 3.7899,1.7906 7.6837,3.0307 11.4062,3.1875 3.1717,.1201 5.6996,.3997 1.6875-2.4062-2.2771-1.5441-4.3816-3.6319-6.125-6.375 .5132-.6188 .9965-1.2456 1.4062-1.9062 5.9716-11.0805 .3692-31.8542-14.2188-39.5938-2.823-1.6256-5.9675-2.4332-9.1562-2.5h-1.3438-1.3438z"/>
<path fill="#fff" d="m368.6024-701.5897c-2.1691,.052-4.2722,.6358-6.1992,1.75-9.9574,5.3048-13.8003,19.5075-9.7242,27.1022 4.5291,7.3328 18.7255,11.1124 28.2912,5.1283 7.0471-4.075 8.9036-14.1639 4.3455-22.887-.1458-.2821-.2954-.5892-.4558-.8674-.1604-.2782-.3303-.5543-.5014-.8217-3.6188-5.7166-9.3182-9.1377-14.8142-9.3892-.3123-.0145-.6322-.0225-.942-.015z"/>
<g fill="#e95644">
<path d="m377.779-690.376c-2.4231,0-4.3833,1.4646-4.3833,3.2601 0,.4545 .1285,.8776 .3558,1.2705 .6708-1.1588 2.218-1.9657 4.0274-1.9657 1.8119,0 3.3743,.8043 4.0436,1.9657 .2256-.3916 .3397-.8177 .3397-1.2705 0-1.7956-1.9602-3.2601-4.3833-3.2601z"/>
<path fill-rule="evenodd" d="m373.3957-680.5515c0,2.1766-1.7719,3.9411-3.9576,3.9411-2.1857,0-3.9576-1.7645-3.9576-3.9411h7.9151z"/>
<path d="m361.0973-690.376c-2.4231,0-4.3833,1.4646-4.3833,3.2601 0,.4545 .1285,.8776 .3558,1.2705 .6708-1.1588 2.218-1.9657 4.0274-1.9657 1.8119,0 3.3743,.8043 4.0436,1.9657 .2256-.3916 .3397-.8177 .3397-1.2705 0-1.7956-1.9602-3.2601-4.3833-3.2601z"/>
</g>
</g>
</svg>
