<svg xmlns="http://www.w3.org/2000/svg" viewBox="0 0 64 64" xmlns:xlink="http://www.w3.org/1999/xlink">
<defs>
<linearGradient gradientTransform="matrix(-1 0 0 1 -1008.2 0)" id="SVGID_2_-1-0-5-7-7-4-5" y1="126.85" y2="0" gradientUnits="userSpaceOnUse" x2="0">
<stop offset=".011" stop-color="#1b3967"/>
<stop offset=".467" stop-color="#13b5ea"/>
<stop offset=".995" stop-color="#002b5c"/>
</linearGradient>
<linearGradient gradientTransform="matrix(-1 0 0 1 -1008.2 0)" xlink:href="#SVGID_2_-1-0-5-7-7-4-5" id="linearGradient6106" y1="126.85" y2="0" gradientUnits="userSpaceOnUse" x2="0"/>
<linearGradient gradientTransform="translate(1916)" xlink:href="#SVGID_1_-0-1-0-2-9-7-0" id="linearGradient6104" y1="125.86" y2="0" gradientUnits="userSpaceOnUse" x2="0"/>
<linearGradient gradientTransform="translate(1916)" id="SVGID_1_-0-1-0-2-9-7-0" y1="125.86" y2="0" gradientUnits="userSpaceOnUse" x2="0">
<stop offset=".011" stop-color="#1b3967"/>
<stop offset=".467" stop-color="#13b5ea"/>
<stop offset=".995" stop-color="#002b5c"/>
</linearGradient>
</defs>
<g transform="matrix(.37017 0 0 .37017 -.00148 8.45341)">
<path fill="url(#linearGradient6104)" d="m136.29,14.189c.077,1.313-1.786,.968-1.786,2.293 0,38.551-44.72,96.831-89.847,108.19v1.182c59.957-5.51 126.73-66.8 128.24-125.85l-36.6,14.189z"/>
<path fill="#e96d1f" d="m120.23,17.96c.077,1.313 .121,2.633 .121,3.958 0,38.551-30.7,90.497-75.827,101.86v1.637c59.065-3.823 105.81-63.023 105.81-109.2 0-2.375-.125-4.729-.371-7.056l-29.73,8.796z"/>
<path fill="url(#linearGradient6106)" d="m36.599,14.189c-.077,1.313 1.787,.968 1.787,2.293 0,38.551 46.558,97.366 91.688,108.73v1.639c-59.953-5.52-128.56-67.8-130.07-126.85l36.599,14.189z"/>
<path fill="#a0ce67" d="m54.731,18.932c-.076,1.313-.12,2.63-.12,3.957 0,38.551 30.699,90.497 75.827,101.86v1.639c-59.044-2.79-105.81-63.024-105.81-109.2 0-2.375 .128-4.729 .371-7.056l29.73,8.798z"/>
<path fill="#439639" d="m24.713,9.583 7.617,2.722c-.041,.962-.066,2.254-.066,3.225 0,41.219 37.271,98.204 87.272,107.12 3.245,1.088 7.538,2.077 10.932,2.931v1.638c-65.254-5.56-111.1-71.866-105.76-117.64z"/>
<path fill="#d9541e" d="m150.34,8.76-7.833,2.625c.041,.963 .191,2.203 .191,3.173 0,41.219-37.272,98.205-87.274,107.12-3.243,1.089-7.538,2.077-10.93,2.932v1.639c68.344-8.66 111.18-71.719 105.84-117.49z"/>
</g>
</svg>
