<?xml version="1.0" encoding="UTF-8" standalone="no"?>
<!-- Created with Inkscape (http://www.inkscape.org/) -->

<svg
   xmlns:dc="http://purl.org/dc/elements/1.1/"
   xmlns:cc="http://creativecommons.org/ns#"
   xmlns:rdf="http://www.w3.org/1999/02/22-rdf-syntax-ns#"
   xmlns:svg="http://www.w3.org/2000/svg"
   xmlns="http://www.w3.org/2000/svg"
   version="1.1"
   width="100"
   height="121.11688"
   id="svg2">
  <defs
     id="defs4" />
  <metadata
     id="metadata7">
    <rdf:RDF>
      <cc:Work
         rdf:about="">
        <dc:format>image/svg+xml</dc:format>
        <dc:type
           rdf:resource="http://purl.org/dc/dcmitype/StillImage" />
        <dc:title></dc:title>
      </cc:Work>
    </rdf:RDF>
  </metadata>
  <g
     transform="translate(-274.42937,-327.25173)"
     id="layer1">
    <g
       transform="matrix(0.12004589,0,0,0.12004589,270.14639,323.29634)"
       id="g3003">
      <g
         transform="translate(-39.57143,-5.6478968)"
         id="g2989">
        <g
           transform="translate(0.3353955,-0.12946)"
           id="g2991">
          <path
             d="m 513.60157,860.3298 c -0.42149,-0.44996 -23.2132,-0.92206 -50.64824,-1.04911 -48.10048,-0.22275 -50.18505,-0.3111 -58.37058,-2.47377 -4.66878,-1.23353 -11.66757,-3.95745 -15.55288,-6.05315 -3.97561,-2.14442 -14.03653,-5.88133 -23.01132,-8.54706 C 308.23912,825.04484 288.32696,816.2772 270.57143,800.1798 233.94485,766.97366 80.217198,612.70298 76.223519,605.14537 c -1.463384,-2.7693 -1.637124,-4.10164 -0.834939,-6.40279 0.648196,-1.85942 0.709408,-6.4489 0.169985,-12.74484 -1.308345,-15.27049 1.323089,-40.9818 6.115204,-59.75066 1.111215,-4.3522 4.206241,-14.92996 6.877836,-23.50613 15.996745,-51.35167 16.842705,-56.4861 19.539635,-118.59305 1.50256,-34.60208 4.40703,-65.17063 9.07393,-95.5 5.25018,-34.11999 10.36067,-52.94908 19.12019,-70.4463 7.71067,-15.40216 24.12109,-42.88942 31.18395,-52.23275 14.71154,-19.46167 38.91619,-38.48232 85.80312,-67.426373 8.13945,-5.024614 16.149,-10.408611 17.799,-11.964439 4.98105,-4.696763 9.90227,-6.26363 15.36718,-4.892753 4.58274,1.149585 4.93848,1.047306 32.90859,-9.461626 34.25986,-12.872116 36.48017,-13.839516 47.22423,-20.575762 20.25617,-12.700094 31.95871,-14.840376 63.08178,-11.537053 23.4954,2.493743 56.38821,8.617506 73.2836,13.643451 8.94962,2.662284 18.33875,7.201052 23.22034,11.224872 6.30571,5.197701 19.77789,23.083872 25.93322,34.429924 11.92206,21.975819 15.27437,27.197029 30.04784,46.799359 17.96035,23.83089 22.33404,30.96307 26.33188,42.93945 l 3.00429,9 4.81742,1.09113 c 5.89205,1.33454 7.67075,2.26599 16.1725,8.46908 10.81616,7.89172 14.41547,8.78671 47.96406,11.9264 23.81625,2.22888 32.02612,3.69988 47.64307,8.53643 23.30693,7.21813 35.33418,15.05883 65.88565,42.95159 34.84376,31.81152 64.9239,73.81751 90.1422,125.88077 17.64949,36.43745 23.83872,60.24037 23.82941,91.6446 -0.0116,38.9938 -9.34495,68.90795 -38.16537,122.3227 -13.50817,25.03555 -17.40162,31.52586 -31.90033,53.1773 -11.77664,17.58647 -42.09542,60.79974 -53.02361,75.5744 -8.05565,10.89106 -12.39969,19.27282 -15.76505,30.41846 -1.49344,4.94608 -3.76405,11.06238 -5.04579,13.59178 -3.35262,6.61609 -12.25415,14.29121 -21.81065,18.8057 -12.08811,4.72497 -22.45332,11.19995 -32.01771,19.92168 -12.11433,11.36645 -19.90435,16.2416 -30.45609,19.06002 -12.68204,3.38744 -21.72128,4.08263 -67.14373,5.1639 -23.9091,0.56915 -46.18717,1.41946 -49.50684,1.88958 -3.86669,0.54759 -7.83015,1.96723 -11.02892,3.95036 -2.76434,1.7138 -7.89462,3.67932 -11.49317,4.4033 l -6.5,1.3077 c 0,0 -20.46986,2.09502 -20.46986,2.09502 z"
             id="path2993"
             style="fill:#ffffff" />
          <path
             d="m 397.68463,1045.3979 c 0.65096,-1.2375 9.65228,-16.425 20.00292,-33.75 25.58399,-42.8227 39.53717,-61.30004 59.88388,-79.30048 24.29382,-21.49239 39.93998,-36.11255 40.52626,-37.86875 0.67152,-2.01155 -3.40662,-32.98579 -4.49612,-34.14887 -0.42149,-0.44996 -23.2132,-0.92206 -50.64824,-1.04911 -48.10048,-0.22275 -50.18505,-0.3111 -58.37058,-2.47377 -4.66878,-1.23353 -11.66757,-3.95745 -15.55288,-6.05315 -3.97561,-2.14442 -14.03653,-5.88133 -23.01132,-8.54706 C 308.23912,825.04484 288.32696,816.2772 270.57143,800.1798 233.94485,766.97366 80.217198,612.70298 76.223519,605.14537 c -1.463384,-2.7693 -1.637124,-4.10164 -0.834939,-6.40279 0.648196,-1.85942 0.709408,-6.4489 0.169985,-12.74484 -1.308345,-15.27049 1.323089,-40.9818 6.115204,-59.75066 1.111215,-4.3522 4.206241,-14.92996 6.877836,-23.50613 15.996745,-51.35167 16.842705,-56.4861 19.539635,-118.59305 1.50256,-34.60208 4.40703,-65.17063 9.07393,-95.5 5.25018,-34.11999 10.36067,-52.94908 19.12019,-70.4463 7.71067,-15.40216 24.12109,-42.88942 31.18395,-52.23275 14.71154,-19.46167 38.91619,-38.48232 85.80312,-67.426373 8.13945,-5.024614 16.149,-10.408611 17.799,-11.964439 4.98105,-4.696763 9.90227,-6.26363 15.36718,-4.892753 4.58274,1.149585 4.93848,1.047306 32.90859,-9.461626 34.25986,-12.872116 36.48017,-13.839516 47.22423,-20.575762 20.25617,-12.700094 31.95871,-14.840376 63.08178,-11.537053 23.4954,2.493743 56.38821,8.617506 73.2836,13.643451 8.94962,2.662284 18.33875,7.201052 23.22034,11.224872 6.30571,5.197701 19.77789,23.083872 25.93322,34.429924 11.92206,21.975819 15.27437,27.197029 30.04784,46.799359 17.96035,23.83089 22.33404,30.96307 26.33188,42.93945 l 3.00429,9 4.81742,1.09113 c 5.89205,1.33454 7.67075,2.26599 16.1725,8.46908 10.81616,7.89172 14.41547,8.78671 47.96406,11.9264 23.81625,2.22888 32.02612,3.69988 47.64307,8.53643 23.30693,7.21813 35.33418,15.05883 65.88565,42.95159 34.84376,31.81152 64.9239,73.81751 90.1422,125.88077 17.64949,36.43745 23.83872,60.24037 23.82941,91.6446 -0.0116,38.9938 -9.34495,68.90795 -38.16537,122.3227 -13.50817,25.03555 -17.40162,31.52586 -31.90033,53.1773 -11.77664,17.58647 -42.09542,60.79974 -53.02361,75.5744 -8.05565,10.89106 -12.39969,19.27282 -15.76505,30.41846 -1.49344,4.94608 -3.76405,11.06238 -5.04579,13.59178 -3.35262,6.61609 -12.25415,14.29121 -21.81065,18.8057 -4.48055,2.11661 -11.19427,5.28508 -14.91937,7.04104 -4.8847,2.30258 -9.65152,5.89355 -17.09834,12.88064 -12.11433,11.36645 -19.90435,16.2416 -30.45609,19.06002 -12.68204,3.38744 -21.72128,4.08263 -67.14373,5.1639 -23.9091,0.56915 -46.18717,1.41946 -49.50684,1.88958 -3.86669,0.54759 -7.83015,1.96723 -11.02892,3.95036 -2.76434,1.7138 -7.89462,3.67932 -11.49317,4.4033 l -6.5,1.3077 -0.24331,11.45656 c -0.23095,10.8746 -0.10263,11.71054 2.52615,16.45656 l 2.76945,5 8.97385,-0.29311 8.97386,-0.29311 28,16.63355 c 15.4,9.14845 28.675,17.21655 29.5,17.92911 0.825,0.71256 3.88364,2.49015 6.79699,3.95022 5.7536,2.88349 7.12065,4.76272 5.17238,7.11024 -1.58732,1.91261 -1.62323,1.8869 5.48792,3.92886 8.22815,2.36271 14.36412,5.64087 21.21172,11.33243 3.20705,2.66562 8.30599,6.58179 11.33099,8.70261 4.45622,3.12424 89.02611,76.6131 97.97727,85.1395 l 2.47728,2.3597 -20.56184,0 -20.56184,0 -17.41543,-19.1388 c -22.92498,-25.1936 -54.27448,-53.6584 -83.49295,-75.81008 l -22.56674,-17.10874 -27.84177,-12.97119 c -15.31298,-7.13415 -28.33052,-12.97119 -28.92788,-12.97119 -0.59735,0 -1.0861,0.60756 -1.0861,1.35013 0,0.74258 2.925,31.32394 6.5,67.95859 3.575,36.63468 6.5,67.07708 6.5,67.64988 0,0.6663 -4.50192,1.0414 -12.5,1.0414 l -12.5,0 -0.087,-8.25 c -0.35155,-33.34 -3.56028,-116.13511 -4.51308,-116.45147 -0.60505,-0.20088 -6.90505,4.3116 -14,10.02774 -9.92442,7.99572 -16.2953,14.28894 -27.62008,27.28336 -12.85117,14.74584 -17.52268,21.20083 -36.79296,50.83967 -12.14005,18.6721 -22.55858,34.5346 -23.1523,35.25 -0.78784,0.9493 -4.70315,1.3007 -14.49222,1.3007 l -13.41274,0 1.18357,-2.25 z M 530.27294,841.72199 c 8.30704,-0.79926 10.93531,-1.46714 14.15295,-3.59647 2.17329,-1.43822 6.13261,-3.27669 8.79849,-4.0855 6.34686,-1.92559 29.65438,-3.33233 55.84705,-3.37067 25.50881,-0.0373 51.37939,-1.5767 61.5,-3.65938 11.62029,-2.39129 16.70661,-5.35207 29.05377,-16.91241 10.70337,-10.0213 11.85491,-10.79373 27.33591,-18.33642 20.66062,-10.06632 22.07527,-11.51565 27.10888,-27.77366 4.50355,-14.54593 6.79285,-18.74049 20.92499,-38.33958 29.77318,-41.29079 54.83608,-77.73372 64.34241,-93.55765 8.80445,-14.65561 25.41367,-45.78486 31.85295,-59.69931 14.90513,-32.208 20.36319,-54.55456 20.37519,-83.42068 0.0124,-29.86543 -5.45386,-50.56806 -22.92439,-86.82236 -12.72208,-26.40046 -35.01629,-62.4549 -50.10343,-81.02781 -22.17343,-27.29644 -56.21854,-58.84396 -74.42937,-68.96915 -7.79605,-4.33459 -27.33585,-11.03299 -37.82557,-12.96691 -4.51623,-0.83263 -17.88634,-2.45194 -29.71134,-3.59848 -33.44605,-3.24288 -41.1147,-5.26263 -52.46811,-13.81889 -5.10661,-3.84848 -8.84701,-6.11876 -10.08099,-6.11876 -0.37431,0 -4.14251,3.36897 -8.37378,7.48661 -9.50107,9.24593 -12.51592,10.22843 -17.15404,5.59031 -4.03014,-4.03013 -3.53198,-7.44221 2.00489,-13.73243 4.7191,-5.36118 5.4449,-8.07668 4.10129,-15.34449 -1.72712,-9.34218 -8.33739,-20.96935 -22.89548,-40.2721 -17.64532,-23.39615 -20.33194,-27.42637 -29.14986,-43.7279 -4.01637,-7.425 -8.66295,-15.525 -10.32573,-18.000003 -6.18986,-9.213435 -15.14119,-19.350602 -19.57887,-22.172606 -10.99321,-6.990781 -55.90698,-16.750006 -91.549,-19.892503 -20.96764,-1.848681 -29.52071,-0.114681 -44.53032,9.027812 -14.21649,8.659397 -17.1654,9.972151 -49.52153,22.045332 -16.40625,6.12173 -31.47123,11.967947 -33.47774,12.991593 -2.00651,1.023645 -6.47323,2.180795 -9.92604,2.571435 -5.35893,0.60629 -7.98286,1.73357 -17.92627,7.70136 -33.66274,20.20358 -62.57885,41.18617 -75.67252,54.91075 -10.10278,10.58958 -14.47258,16.7972 -26.97278,38.31683 -11.66521,20.08214 -15.67191,28.21304 -19.42338,39.4164 -8.26949,24.69587 -17.0458,87.29745 -19.078,136.0836 -2.76175,66.30056 -4.48337,77.70364 -18.49486,122.5 -12.190067,38.97304 -15.154783,56.02896 -14.206881,81.73173 0.319097,8.65246 1.00242,16.48625 1.518496,17.40842 3.373824,6.02869 169.017725,171.61501 183.931505,183.86757 l 3.25,2.67007 3.02944,-2.54911 c 4.2841,-3.60483 8.10365,-4.14355 28.47056,-4.01557 28.03527,0.17618 36.70398,2.1518 51.05366,11.63528 13.64645,9.01872 9.97969,9.86033 -12.02652,2.76037 -20.9523,-6.75994 -26.52615,-7.98754 -36.02714,-7.93473 -9.15702,0.0509 -29.14158,2.23421 -30.20755,3.30018 -1.37994,1.37995 5.35081,5.74737 20.20755,13.11219 15.62571,7.74601 28.05982,12.23148 62.5,22.54617 11.56988,3.46513 23.11369,7.5849 26.5,9.45734 7.02228,3.88295 14.97463,6.34953 24.31019,7.5403 8.61887,1.09935 98.51148,0.33121 111.89132,-0.95612 z m -76.20151,-14.14445 c -10.56542,-1.14243 -17.01266,-2.70905 -22.54015,-5.47707 -5.19513,-2.60158 -12.17838,-9.74595 -14.70495,-15.04423 -1.69639,-3.55737 -1.68706,-3.63998 0.62223,-5.50993 1.28944,-1.04412 3.63544,-1.89841 5.21333,-1.89841 2.32599,0 3.24386,0.735 4.85036,3.88399 2.61812,5.13196 11.06225,11.73979 17.43991,13.64736 2.8156,0.84216 12.31927,1.99777 21.11927,2.56803 20.72445,1.343 34.55851,0.1681 47.41698,-4.02704 5.17935,-1.68979 10.1937,-3.07234 11.14302,-3.07234 5.46204,0 -0.0299,9.3313 -7.72014,13.11729 -4.67854,2.30329 -5.67316,2.38762 -29.83986,2.53004 -13.75,0.081 -28.6,-0.24193 -33,-0.71769 z m 140.64565,-7.50166 c -9.39444,-2.52724 -14.30666,-7.32539 -11.54139,-11.27337 2.10511,-3.00547 4.01793,-2.69761 7.73642,1.24514 2.66425,2.82493 4.19024,3.52267 9.02547,4.12679 9.41712,1.17659 16.25044,-0.064 24.85874,-4.51311 l 7.7249,-3.99252 11.7751,0.13515 c 19.4465,0.2232 28.3962,-3.96242 37.45268,-17.51599 2.25653,-3.37704 5.2489,-7.37757 6.6497,-8.89007 2.87188,-3.10088 7.18222,-3.64842 9.23638,-1.1733 1.09147,1.31513 0.99822,2.15293 -0.56207,5.05023 -2.3403,4.34566 -16.39182,19.44577 -22.84138,24.5459 -4.82952,3.81904 -4.85968,3.82717 -14.2016,3.82717 -8.17729,0 -10.97771,0.51312 -22.13308,4.05541 -18.61567,5.91123 -32.30661,7.29764 -43.17987,4.37257 z M 550.2381,806.98123 c -1.42427,-1.42426 -0.5565,-4.35941 1.7322,-5.85903 2.7701,-1.81503 3.89206,-4.50908 5.52353,-13.2631 1.26142,-6.76843 10.00537,-29.29958 15.31749,-39.4697 3.23635,-6.19601 3.25921,-6.33989 3.13722,-19.7415 -0.16527,-18.15705 -2.87521,-32.30755 -8.42271,-43.98099 -4.32732,-9.10584 -4.63914,-11.55855 -1.7044,-13.40671 2.89543,-1.82341 4.92515,0.29874 9.96555,10.41935 7.19522,14.4473 8.04485,18.98406 7.55767,40.35586 l -0.41289,18.11249 -5.57971,11.5 c -7.03249,14.49422 -11.28983,26.57516 -13.17874,37.39698 -0.8122,4.65317 -2.17309,9.80695 -3.02421,11.45283 -2.48389,4.80331 -8.82388,8.57065 -10.911,6.48352 z M 323.3194,772.24456 c -4.48431,-1.62827 -9.55462,-5.35964 -15.99797,-11.77331 -4.87364,-4.85119 -6.16192,-7.58284 -3,-6.36119 0.9625,0.37187 3.9223,1.08997 6.57734,1.59577 6.10289,1.16264 6.30437,1.29984 8.64435,5.88658 2.23755,4.38596 3.51443,5.05549 9.64148,5.05549 3.19702,0 4.62632,0.46052 5.07736,1.63592 1.67423,4.36298 -4.08938,6.44916 -10.94256,3.96074 z m -19.24797,-34.9908 c -1.65,-0.72667 -8.72428,-5.64908 -15.72063,-10.93869 -6.99634,-5.28962 -16.44634,-12.03847 -21,-14.99746 -11.99709,-7.79578 -16.98657,-12.64147 -24.24847,-23.5497 -7.9076,-11.87814 -9.90474,-16.42889 -9.17729,-20.91166 0.56066,-3.45491 2.2179,-6.20835 3.73669,-6.20835 0.46498,0 2.02921,3.9375 3.47607,8.75 1.44686,4.8125 3.66708,10.55 4.93382,12.75 4.74019,8.23248 20.71934,21.62501 45.83481,38.41532 12.06781,8.06764 18.665,13.6172 18.665,15.70104 0,0.761 -0.1882,1.38364 -0.41821,1.38364 -0.23002,0 -1.01752,0.20859 -1.75,0.46354 -0.73249,0.25494 -2.68179,-0.13101 -4.33179,-0.85768 z m -48.06784,-13.16531 c -1.68731,-0.83265 -8.38369,-6.1099 -14.88086,-11.72723 -6.49717,-5.61733 -15.01664,-12.92606 -18.93217,-16.24162 -3.91552,-3.31557 -8.55066,-8.15755 -10.3003,-10.75997 -4.81993,-7.16914 -5.61874,-13.08557 -5.08779,-37.68301 0.41546,-19.24747 0.70231,-22.14322 2.70707,-27.32786 1.2333,-3.18953 3.29377,-7.01453 4.57882,-8.5 2.16929,-2.50761 2.38893,-2.56575 3.06982,-0.81257 0.40335,1.03856 0.20953,8.46356 -0.43071,16.5 -3.38558,42.49667 -3.44036,44.68053 -1.24513,49.6432 2.51797,5.69229 8.58337,11.65168 28.20766,27.71462 15.71752,12.86516 19.81728,17.41804 17.6427,19.59262 -1.45384,1.45384 -1.59794,1.44307 -5.32911,-0.39818 z m 73.55091,-39.45748 c -1.87048,-1.87048 -1.9072,-2.22911 -0.50571,-4.93929 3.4013,-6.57738 8.04013,-7.0371 10.52303,-1.04285 1.1545,2.78722 1.05671,3.30938 -1.03717,5.53822 -2.80503,2.98582 -6.26711,3.15696 -8.98015,0.44392 z m 78.06028,-21.39224 c -2.36299,-4.95121 -4.72716,-7.9176 -9.80865,-12.3072 -12.44781,-10.75294 -21.4337,-19.7566 -25.73276,-25.78363 -4.73029,-6.63158 -22.11198,-36.75527 -27.98502,-48.5 -5.62244,-11.24357 -11.18039,-18.47368 -22.64959,-29.46393 -13.82639,-13.249 -15.86733,-15.90176 -15.86733,-20.62388 0,-4.36014 2.2425,-6.38796 5.27152,-4.76688 1.00274,0.53666 6.31361,7.04091 11.80194,14.4539 5.48832,7.413 12.72245,16.04826 16.07585,19.18948 5.27939,4.94536 7.08125,7.69873 13.43548,20.53049 9.19685,18.57216 13.69952,24.98619 43.20266,61.54193 15.74488,19.50864 18.38102,23.61754 18.00339,28.06159 -0.46464,5.46806 -2.3996,4.68301 -5.74749,-2.33187 z m 163.51299,-4.90449 c -1.51714,-2.5888 -2.55634,-5.89309 -2.55634,-8.12827 0,-3.28403 0.76795,-4.51765 5.99838,-9.63562 6.67416,-6.53067 11.04885,-9.19872 14.3193,-8.73313 1.79229,0.25515 2.23728,1.07026 2.48982,4.56068 l 0.3075,4.25 -3.86134,0 c -3.04447,0 -4.52674,0.68753 -7.00681,3.25 -4.19379,4.33313 -6.3055,9.61376 -5.59511,13.99136 0.84656,5.21676 -1.17052,5.43592 -4.0954,0.44498 z M 224.00991,644.19436 c -1.68008,-2.56413 -1.59978,-5.61202 0.62033,-23.54646 2.06001,-16.64108 2.85303,-30.5964 1.96048,-34.5 -0.56275,-2.46124 -1.99262,-4.84416 -3.71694,-6.1944 -6.13907,-4.80723 -7.30235,-6.27256 -7.30235,-9.19844 0,-1.63037 0.70714,-3.67145 1.57143,-4.53573 6.3293,-6.3293 15.42284,7.51538 17.57038,26.75045 1.03874,9.30382 -0.26026,34.30724 -2.29193,44.11526 -1.88993,9.12378 -5.23756,11.9532 -8.4114,7.10932 z m 286.6578,-10.19604 c -4.9891,-4.27049 -8.81367,-5.20629 -22.09628,-5.40655 -5.225,-0.0788 -10.625,-0.45432 -12,-0.83454 -3.87575,-1.07175 -3.67889,-4.30607 0.4846,-7.96166 4.09518,-3.59562 7.63375,-3.94065 21.19304,-2.06643 8.0415,1.11153 14.75122,3.85587 20.90719,8.55126 6.28633,4.79482 6.69868,8.37581 1.18577,10.29762 -4.4817,1.56233 -4.99528,1.42538 -9.67432,-2.5797 z M 399.49777,618.95416 c -0.56329,-1.48156 -0.88965,-4.06906 -0.72525,-5.75 0.40953,-4.18737 4.65999,-4.78609 8.27979,-1.16629 4.54581,4.54581 2.85654,9.61003 -3.20563,9.61003 -2.69004,0 -3.52027,-0.51425 -4.34891,-2.69374 z m 110.82366,-4.87823 c -5.9141,-3.20846 -0.75317,-10.28516 5.69599,-7.81038 3.07466,1.17986 3.67362,3.96057 1.45942,6.77548 -2.34097,2.97606 -3.31707,3.11723 -7.15541,1.0349 z m 170.85699,-6.00982 c -1.52934,-3.98538 -0.52305,-17.03269 1.80616,-23.41821 9.03277,-24.76336 17.3063,-45.88408 21.55807,-55.03359 3.38224,-7.27833 5.32633,-13.04839 6.09108,-18.07839 2.3881,-15.70709 12.927,-35.98741 33.97964,-65.38802 14.97816,-20.91743 20.95806,-33.60548 20.95806,-44.46845 0,-4.69822 0.44212,-6.47367 2,-8.03155 2.53111,-2.53111 3.44679,-2.51018 5.91127,0.13513 2.55432,2.74174 3.45444,6.94044 2.64504,12.33793 -0.99382,6.62727 -11.71622,27.29905 -22.06601,42.54122 -10.82501,15.94203 -25.36369,40.36571 -30.05263,50.48572 -1.78383,3.85 -3.99578,11.05 -4.91545,16 -1.03177,5.5534 -2.76115,10.91478 -4.51587,14 -1.56407,2.75 -5.52161,10.85 -8.79455,18 -3.27295,7.15 -8.59278,18.4 -11.82186,25 l -5.87105,12 0.23964,10.1163 c 0.21162,8.93306 -0.003,10.42435 -1.83202,12.75 -2.3428,2.97839 -4.42245,3.38963 -5.31952,1.05191 z m -556.91916,-1.78934 c -0.30006,-0.78194 1.42623,-3.25278 4.0173,-5.75 2.4989,-2.40838 6.5557,-7.07887 9.0151,-10.37887 2.4594,-3.3 8.88931,-9.6 14.28867,-14 5.39937,-4.4 11.66666,-10.3625 13.92732,-13.25 2.26066,-2.8875 4.57941,-5.25 5.15277,-5.25 2.39365,0 4.91101,2.22416 4.91101,4.33902 0,2.7963 -3.57041,6.18621 -16.5,15.66583 -5.5,4.03245 -15.03869,12.43099 -21.19709,18.66344 -6.1584,6.23244 -11.62275,11.33171 -12.14301,11.33171 -0.52026,0 -1.18269,-0.61701 -1.47207,-1.37113 z M 644.56047,575.3979 c -1.08986,-1.7875 -1.98325,-4.04864 -1.9853,-5.02475 -0.006,-2.67054 4.70594,-4.11465 9.12763,-2.79765 6.67156,1.98712 7.52924,6.06952 1.96562,9.35603 -4.37633,2.58517 -6.8507,2.16853 -9.10795,-1.53363 z M 113.28028,560.02342 c -1.22221,-1.22221 -0.7758,-5.34484 0.93936,-8.67518 3.05441,-5.93075 6.31631,-9.36334 11.59746,-12.20434 12.13021,-6.52545 15.63875,-9.3215 18.86081,-15.03067 3.86168,-6.84253 6.67378,-8.89214 10.92045,-7.95942 6.23585,1.36963 5.16968,4.65008 -5.1519,15.85168 -4.37307,4.74592 -7.80277,7.57796 -9.61647,7.9407 -4.66308,0.93261 -17.84654,11.22544 -20.46158,15.97513 -2.18263,3.96429 -5.37717,5.81306 -7.08813,4.1021 z m 620.84785,-2.59803 c -0.88157,-1.25862 -1.5567,-4.29446 -1.5567,-7 0,-4.54674 0.13282,-4.77717 2.75,-4.7709 4.95906,0.0119 12.10505,6.3228 10.85325,9.58494 -0.59654,1.55455 -6.43223,4.40847 -9.01443,4.40847 -0.81148,0 -2.17593,-1.00013 -3.03212,-2.22251 z M 452.2217,549.1789 c -1.35944,-3.54265 -0.6979,-8.43514 1.28399,-9.49582 3.70585,-1.98331 8.75242,-1.24896 10.99316,1.59968 1.13992,1.44917 2.07258,3.17943 2.07258,3.84501 0,2.39595 -4.05805,4.81929 -8.8396,5.27874 -3.92337,0.37699 -4.98517,0.14043 -5.51013,-1.22761 z m -120.65027,-6.531 c -2.46495,-2.46495 -2.46537,-2.72448 -0.011,-6.75 2.32218,-3.80864 5.22592,-4.2089 7.45426,-1.02749 2.13569,3.04913 1.96238,4.46272 -0.89785,7.32294 -2.97556,2.97557 -3.95632,3.04368 -6.54545,0.45455 z M 124.2381,519.98123 c -1.55542,-1.55541 -0.44315,-4.40204 2.63839,-6.75244 4.11301,-3.13714 12.38334,-6.85813 13.99205,-6.2953 1.30012,0.45487 -4.22637,6.05136 -10.69715,10.83265 -4.09225,3.02378 -4.84396,3.30442 -5.93329,2.21509 z m 346.99754,-2.58814 c -2.84635,-2.08356 -1.86591,-6.89556 1.75724,-8.62454 3.38878,-1.61714 5.29211,-0.80858 7.57855,3.2195 1.13486,1.99932 1.23192,3.07069 0.39872,4.40122 -1.37611,2.19752 -7.27308,2.80562 -9.73451,1.00382 z m 103.5583,-2.30189 c -1.22238,-0.85619 -2.22251,-2.47565 -2.22251,-3.59879 0,-2.71538 5.60387,-7.84451 8.57057,-7.84451 4.80041,0 6.04581,7.5834 1.79457,10.92742 -3.14862,2.47671 -5.16112,2.60421 -8.14263,0.51588 z M 205.62785,502.9925 c -2.43296,-3.09301 -2.33177,-4.14513 2.04833,-21.2978 4.31806,-16.9097 8.03785,-23.19059 9.39353,-15.86101 0.85721,4.63458 -1.13444,27.30524 -2.91882,33.22453 -2.15983,7.16476 -4.96382,8.4591 -8.52304,3.93428 z m 481.5022,-17.67808 c -1.60728,-1.17527 -1.68069,-1.76662 -0.61874,-4.98436 1.28088,-3.8811 5.23672,-7.68216 7.99498,-7.68216 2.74557,0 4.06514,2.15646 4.06514,6.6433 0,3.25128 -0.51959,4.60722 -2.22251,5.8 -2.72549,1.90901 -6.77919,2.00716 -9.21887,0.22322 z m 186.58357,-1.21289 c -3.11004,-3.95377 -7.38955,-24.56468 -5.36078,-25.81853 1.30297,-0.80528 7.04652,5.70882 8.85966,10.04828 2.09199,5.00685 2.90713,14.95115 1.3767,16.7952 -1.73878,2.09511 -2.55658,1.92319 -4.87558,-1.02495 z m -677.90387,-6.61531 c -1.56021,-1.56021 -1.62597,-12.41319 -0.11164,-18.42711 1.26656,-5.02998 6.74597,-10.41121 10.60116,-10.41121 3.01898,0 2.87776,1.48131 -0.9136,9.58327 -2.1148,4.51923 -3.37545,9.01125 -3.75,13.36228 -0.48026,5.57894 -0.86364,6.59736 -2.57592,6.84277 -1.10642,0.15858 -2.56892,-0.26892 -3.25,-0.95 z m 213.00981,-0.93505 c -5.30584,-1.56868 -26.98122,-11.49862 -32.92228,-15.08238 -9.46168,-5.70746 -20.48547,-17.82089 -16.21786,-17.82089 0.6094,0 9.0469,4.67337 18.75,10.38526 29.08869,17.12354 31.02059,17.86498 36.63014,14.05823 3.15409,-2.14042 4.66867,-2.48747 9.76839,-2.23834 11.3917,0.55651 9.98717,6.21517 -2.25652,9.09122 -3.575,0.83976 -7.4,1.76118 -8.5,2.04758 -1.1,0.2864 -3.46334,0.0881 -5.25187,-0.44068 z M 164.68032,463.8979 c -3.46434,-6.82212 -6.24963,-9.56502 -15.62807,-15.39021 -10.71501,-6.65536 -12.02513,-7.71548 -10.91136,-8.82925 1.09421,-1.0942 12.82567,1.43385 22.88285,4.9311 6.99783,2.43341 10.05632,5.01948 11.65097,9.85132 1.07692,3.26309 0.97705,3.65309 -1.3741,5.36578 -2.18717,1.59325 -2.46197,2.39458 -2.00063,5.8341 0.77587,5.78456 -1.16267,5.04482 -4.61966,-1.76284 z m 525.06542,-17.56445 c -3.02139,-3.21613 -2.73941,-5.92052 0.83764,-8.03354 3.39996,-2.00841 6.27238,-1.5343 9.69938,1.60091 2.67927,2.45115 1.75453,4.9377 -2.69131,7.23673 -3.9572,2.04635 -5.29684,1.90905 -7.84571,-0.8041 z M 326.5948,440.13908 c -3.01215,-2.4379 -5.71993,-5.12613 -6.01729,-5.97385 -0.29737,-0.84772 -2.10788,-2.32342 -4.02337,-3.27932 -1.95867,-0.97746 -6.43652,-5.42931 -10.23271,-10.17331 -9.50378,-11.87664 -9.07151,-14.53956 1.08445,-6.68048 3.11605,2.41132 6.68501,4.90588 7.93101,5.54346 1.43997,0.73683 2.6939,2.76111 3.44125,5.55537 0.83329,3.11557 1.80211,4.55333 3.32591,4.93578 1.18257,0.29681 4.13401,3.2606 6.55875,6.5862 6.98837,9.58473 6.49491,10.41659 -2.068,3.48615 z m 152.58626,-0.0297 c -4.33971,-0.82006 -15.81471,-4.23787 -25.5,-7.59514 -9.6853,-3.35726 -25.48463,-8.53654 -35.10963,-11.50949 -26.5362,-8.19646 -44.51336,-14.28051 -46.50996,-15.74046 -2.63534,-1.92702 -0.99204,-3.65927 2.79873,-2.95023 6.26943,1.17267 42.52804,12.37394 63.71123,19.68213 23.432,8.08403 35.60129,11.21959 39.62472,10.20977 2.22943,-0.55955 2.49758,-1.02741 1.92245,-3.35415 -1.60494,-6.49288 -1.68961,-7.99784 -0.49158,-8.73825 1.58212,-0.97781 3.94441,2.12837 3.94441,5.18652 0,7.86374 20.54888,12.01534 35.0038,7.07201 3.57709,-1.2233 14.17452,-6.36255 23.54985,-11.42056 11.24235,-6.06527 20.01205,-10.05589 25.75748,-11.72085 11.05683,-3.20414 11.48364,-3.44694 20.09358,-11.43018 5.3886,-4.99637 8.54489,-7.08668 12.65871,-8.38345 3.61418,-1.13927 7.68611,-3.60265 11.95841,-7.23446 7.62563,-6.4824 9.43775,-6.97194 8.45718,-2.28468 -0.84092,4.01973 -1.04608,4.21154 -11.47901,10.73156 -4.675,2.92162 -11.60278,7.79312 -15.39506,10.82555 -10.8673,8.68982 -16.82758,11.83473 -26.76622,14.12305 -6.74583,1.55318 -13.60796,4.35147 -27.18136,11.08421 -26.85714,13.3218 -42.95086,16.86679 -61.04773,13.4471 z m -311.10963,-1.85032 c -1.65,-0.72081 -4.35,-2.4417 -6,-3.8242 -4.42135,-3.70456 -9.78062,-6.14489 -21.29831,-9.69813 -11.25051,-3.47081 -13.08806,-5.14291 -9.15329,-8.32909 1.67069,-1.35285 3.51204,-1.82099 6.16676,-1.56782 2.08166,0.19852 3.78484,-0.0202 3.78484,-0.48608 0,-0.46586 -1.85294,-3.04449 -4.11764,-5.73029 -4.81029,-5.70473 -5.76259,-10.41853 -3.90879,-19.34824 1.65625,-7.97811 3.83136,-7.3765 6.12017,1.69277 2.3557,9.3343 3.52482,12.01318 9.02517,20.67993 7.20212,11.34819 10.29507,13.92907 17.98588,15.00815 5.26347,0.73849 6.88187,1.43935 9.14521,3.96034 6.05239,6.7414 1.18178,11.54455 -7.75,7.64266 z m 111.97573,-7.08758 c -12.79017,-6.66669 -25.16442,-17.1533 -29.00523,-24.58061 -2.83175,-5.47602 -2.0705,-13.9826 2.41349,-26.9693 7.01513,-20.3175 9.29462,-24.43526 15.23923,-27.52879 5.07563,-2.64132 5.12942,0.70849 0.25411,15.82362 -1.99247,6.17733 -5.14247,14.25778 -7,17.95655 -2.50208,4.98221 -3.37733,8.03306 -3.37733,11.77234 0,4.53527 0.42428,5.50759 4.18228,9.58454 2.30025,2.49548 7.81275,7.0559 12.25,10.13427 9.16845,6.36068 15.56772,12.09561 15.56772,13.95157 0,0.69403 -0.86888,1.72688 -1.93084,2.29523 -1.52946,0.81854 -3.31588,0.31143 -8.59343,-2.43942 z m 300.62855,-9.43796 c -2.09279,-1.32515 -0.57033,-3.99294 3.17076,-5.55606 1.81673,-0.75908 9.77246,-2.35997 17.67939,-3.55754 7.90693,-1.19757 16.15842,-2.80618 18.33663,-3.5747 6.38271,-2.25195 7.70894,-1.91603 7.70894,1.95264 l 0,3.34995 -12.37003,2.67393 c -14.59362,3.15459 -28.32567,5.62904 -31.12997,5.60949 -1.1,-0.008 -2.62807,-0.41164 -3.39572,-0.89771 z M 345.07143,410.25829 c -16.40834,-5.92149 -17.01788,-6.18875 -22.32566,-9.78906 -7.10405,-4.81874 -16.5719,-12.80857 -17.51348,-14.77945 -0.46152,-0.96606 -2.35119,-2.47752 -4.19927,-3.3588 -2.73481,-1.30415 -3.64872,-2.57413 -4.91086,-6.82421 -2.02053,-6.80388 -2.04339,-11.85887 -0.0536,-11.85887 2.24907,0 9.50288,6.95877 9.50288,9.11636 0,1.036 0.47026,1.88364 1.04503,1.88364 0.57476,0 5.85041,4.9922 11.72365,11.09378 5.87325,6.10157 12.32083,11.93156 14.32797,12.95552 2.00713,1.02397 9.21899,3.5067 16.02634,5.51719 15.07401,4.45197 16.08618,4.95207 15.68769,7.75117 -0.51481,3.61619 -5.87183,3.14258 -19.31068,-1.70727 z m 287.13312,-3.23487 -1.86688,-2.56164 3.95631,-4.15694 c 6.39968,-6.72423 20.71782,-23.8267 23.57291,-28.15694 1.45055,-2.2 4.46199,-8.48531 6.6921,-13.96736 4.34846,-10.68938 7.99651,-15.53264 11.69953,-15.53264 3.14714,0 3.0016,2.21172 -0.77152,11.72397 -6.97318,17.57983 -15.98736,31.79657 -28.94028,45.64329 -5.17372,5.53072 -10.55169,9.77162 -12.17563,9.60132 -0.16481,-0.0173 -1.13976,-1.18416 -2.16654,-2.59306 z m 24.03355,1.95781 c -0.36667,-0.36666 -0.66667,-1.21799 -0.66667,-1.89184 0,-1.81606 8.82347,-11.29884 12.08038,-12.98306 3.88932,-2.01124 7.91962,-1.90741 7.91962,0.20402 0,2.27851 -5.67073,10.93338 -8.75131,13.35657 -2.43384,1.91446 -9.14796,2.74837 -10.58202,1.31431 z m -220.01168,-4.16207 c -1.88919,-2.08753 -2.22707,-9.68975 -0.67169,-15.11302 0.54081,-1.88571 2.36014,-4.8491 4.04294,-6.58531 2.63882,-2.72257 2.85575,-3.32598 1.57718,-4.3871 -0.81536,-0.67669 -2.74224,-1.08533 -4.28195,-0.90809 -2.26611,0.26086 -3.59775,1.65184 -6.98953,7.301 -4.21999,7.02858 -6.91115,9.28045 -9.77673,8.18082 -2.84668,-1.09237 -1.61325,-3.77423 4.50748,-9.80067 7.26809,-7.15612 7.45777,-9.22566 0.88491,-9.65524 -4.02061,-0.26278 -4.85762,0.0664 -7.38692,2.9051 l -2.85251,3.20147 -22.10409,-0.64573 c -12.15724,-0.35514 -25.92908,-1.10909 -30.60408,-1.67544 -4.675,-0.56635 -13.93107,-1.43051 -20.56905,-1.92036 -14.0305,-1.03539 -18.18984,-2.48236 -24.43095,-8.49921 -5.67242,-5.46859 -8.17166,-6.75974 -14.8816,-7.6881 -2.95988,-0.40952 -5.8561,-1.21908 -6.43603,-1.79901 -1.35276,-1.35276 1.84409,-18.96129 4.0017,-22.04171 0.9257,-1.32162 2.34149,-2.03582 3.66249,-1.84756 3.04876,0.4345 3.49879,5.73189 0.70196,8.26299 -2.58323,2.33779 -2.60623,3.54391 -0.0676,3.54391 1.31285,0 2.23348,0.92747 2.72972,2.75 0.72204,2.65186 0.76733,2.61147 1.26905,-1.13181 0.49623,-3.70237 0.90625,-4.08514 8.8699,-8.28039 9.26398,-4.88027 16.91478,-9.87006 28.15038,-18.35945 4.125,-3.11677 13.575,-9.74884 21,-14.73794 7.425,-4.98909 14.77356,-10.40894 16.33013,-12.0441 3.12439,-3.28215 4.60972,-8.22032 4.64601,-15.44631 0.0219,-4.3562 0.2252,-4.75 2.45243,-4.75 2.97078,0 4.99544,-1.92947 7.71718,-7.35433 2.20866,-4.4022 5.65842,-8.64567 7.02856,-8.64567 2.07281,0 0.27201,5.00033 -6.67431,18.53276 -8.13306,15.84437 -9.23339,20.46919 -5.36285,22.54064 3.01198,1.61196 8.44882,0.47977 12.4871,-2.60037 3.04249,-2.32062 3.36685,-3.00353 2.81751,-5.93181 -0.51352,-2.73728 -0.11627,-3.87396 2.29837,-6.5764 2.4148,-2.70263 3.38646,-3.14986 5.62354,-2.58839 1.48739,0.37331 3.20621,1.7802 3.81959,3.12643 0.9399,2.06286 0.72001,3.04492 -1.39858,6.24632 -1.38259,2.08924 -5.06653,5.76804 -8.18653,8.1751 -4.46639,3.44579 -6.71937,4.47704 -10.59455,4.8494 -4.23827,0.40724 -5.3548,0.10859 -8.03944,-2.15038 -1.71468,-1.44281 -3.87725,-2.6233 -4.80569,-2.6233 -4.13435,0 -17.91202,9.76939 -48.65847,34.50246 -8.25,6.63647 -16.06128,12.80238 -17.35841,13.70201 -4.95994,3.44002 0.27796,4.97007 7.85841,2.29553 6.31665,-2.22864 8.98241,-1.86654 14.7239,2 6.74871,4.54485 8.45861,4.4805 10.61158,-0.39931 1.1569,-2.62219 2.88415,-4.45156 5.27366,-5.58545 4.63471,-2.19932 5.27632,-1.35626 1.96381,2.58043 -3.84243,4.56647 -3.15677,7.31642 1.92705,7.72878 2.2,0.17845 4.35986,0.96595 4.79969,1.75 0.94964,1.69286 2.87771,1.78169 7.97105,0.36724 2.72229,-0.75599 4.4636,-2.1447 6.26255,-4.99442 1.37049,-2.171 2.99411,-3.94727 3.60805,-3.94727 0.61394,0 2.83145,1.54957 4.92779,3.44349 4.75518,4.29602 10.62349,5.69736 12.59095,3.0067 0.73696,-1.00785 1.33992,-3.09644 1.33992,-4.64132 0,-3.03098 3.3775,-7.18532 5.3125,-6.5344 0.70809,0.2382 1.23147,2.64986 1.29642,5.97366 0.15247,7.80284 0.68657,8.75187 4.92544,8.75187 5.87794,0 7.46564,-1.40381 7.46564,-6.60093 0,-5.04332 1.36969,-8.39907 3.42819,-8.39907 1.84054,0 2.57181,2.25392 2.57181,7.9268 0,8.87945 6.88423,11.07316 8,2.54926 0.65416,-4.99744 2.28066,-5.37605 4.89851,-1.14027 2.64806,4.28465 6.83005,6.12147 11.83482,5.19811 2.07167,-0.38222 10.29167,-2.88626 18.26667,-5.56455 11.99737,-4.02914 16.27439,-4.98955 24.78064,-5.56454 5.65435,-0.38222 10.52148,-1.08464 10.81585,-1.56094 0.53429,-0.8645 -1.7677,-3.35389 -8.9778,-9.70866 -3.41014,-3.00559 -3.65597,-3.5265 -2.30282,-4.87965 2.3904,-2.3904 6.31779,-0.74661 12.6524,5.29558 6.01387,5.73626 8.54948,6.53697 13.52367,4.27058 3.98018,-1.81349 2.6439,-3.99594 -4.66241,-7.61471 -7.48868,-3.70911 -8.66306,-5.37348 -5.80685,-8.22969 3.04456,-3.04456 6.40101,-2.39744 13.08452,2.52268 6.80603,5.01032 11.09693,5.77479 14.94113,2.66195 2.86846,-2.32274 2.00223,-3.75292 -2.78728,-4.6019 -8.43588,-1.49534 -9.49119,-3.50572 -4.18432,-7.97116 3.54814,-2.98556 4.7037,-3.1253 9.44895,-1.14261 3.21473,1.3432 3.53569,1.30756 4.50307,-0.5 1.39395,-2.60462 2.68331,-2.47062 10.13146,1.05293 7.36317,3.48335 11.64852,3.72438 17.66596,0.99362 3.07784,-1.39675 4.23117,-2.47249 3.99691,-3.72804 -0.18109,-0.97064 -4.15287,-4.28205 -8.82617,-7.3587 -5.62901,-3.70584 -8.49691,-6.22381 -8.49691,-7.46017 0,-2.67639 6.09391,-6.44592 10.42064,-6.44592 3.81425,0 15.86807,6.31277 16.8359,8.81722 1.09716,2.83913 -1.43475,3.37655 -7.66801,1.62758 -3.37866,-0.948 -6.38167,-1.48499 -6.67335,-1.19331 -0.29168,0.29168 0.94801,1.583 2.75486,2.86959 2.44906,1.74388 4.94526,2.42463 9.80758,2.67465 6.05923,0.31157 6.93069,0.0767 12.27238,-3.30725 6.9541,-4.40543 7.54459,-6.89609 2,-8.4359 -2.0625,-0.57278 -5.025,-1.04394 -6.58333,-1.047 -3.72433,-0.007 -3.01729,-2.18677 1.09172,-3.36522 2.53536,-0.72713 3.95911,-0.41033 7.7976,1.73504 5.35365,2.99222 9.01713,3.31232 12.2215,1.0679 4.35674,-3.05158 2.9561,-4.23729 -10.6014,-8.97464 -1.88942,-0.66022 -1.00324,-3.87827 1.184,-4.29949 1.01041,-0.19459 4.43651,0.81274 7.61356,2.23852 8.78213,3.94118 11.15335,3.55688 21.02635,-3.40769 4.675,-3.29782 8.78623,-5.99693 9.13606,-5.99802 0.90013,-0.003 3.7698,6.2773 4.47143,9.78545 0.32418,1.62091 0.0449,5.59433 -0.62059,8.82984 -1.05313,5.12004 -1.9527,6.62821 -6.93846,11.63273 -8.80991,8.84306 -10.73752,6.77809 -3.35862,-3.59796 1.89618,-2.66637 3.19627,-5.09928 2.88909,-5.40647 -1.00022,-1.00021 -8.93099,3.14191 -15.57891,8.13662 -3.575,2.68597 -6.725,5.16128 -7,5.50069 -0.275,0.33942 -3.7625,2.75821 -7.75,5.37509 -4.57847,3.00472 -7.25,5.42513 -7.25,6.5685 0,3.24703 2.96911,11.903 4.52613,13.19522 2.04616,1.69816 8.63099,-1.23127 12.13905,-5.40036 2.24842,-2.6721 2.46351,-3.59353 1.87481,-8.03142 -0.64607,-4.87026 -0.61114,-4.96428 1.22624,-3.30147 2.32623,2.10521 3.61882,2.15746 5.23377,0.21156 2.21588,-2.66997 3,-1.61149 3,4.04966 0,6.09304 -1.44919,9.67907 -5.40499,13.37465 -1.42725,1.33338 -2.59501,3.39993 -2.59501,4.59236 0,1.95224 -6.78203,8.8378 -15.11512,15.34586 -6.59376,5.14967 -16.85241,8.40061 -30.38488,9.62888 -19.14716,1.7379 -21.48473,3.39888 -16.00154,11.37004 5.44758,7.91938 6.54374,17.13855 2.03778,17.13855 -2.5524,0 -4.23459,-2.78851 -6.96488,-11.54553 -1.63784,-5.25312 -3.69997,-9.67399 -5.22279,-11.19681 -2.21086,-2.21086 -3.10492,-2.44666 -7.36408,-1.94223 -5.68289,0.67306 -12.98449,4.11879 -12.98449,6.12757 0,0.77129 2.54422,3.57465 5.65381,6.22968 7.47522,6.38247 10.83114,14.43653 6.67919,16.02978 -1.21637,0.46676 -4.00855,-1.83945 -10.32908,-8.53139 -7.81091,-8.26987 -9.01702,-9.17107 -12.27399,-9.17107 -7.12908,0 -6.08212,2.82051 3.54051,9.53818 7.70347,5.37788 9.67622,8.46182 5.41289,8.46182 -1.36399,0 -5.30164,-2.09378 -8.82332,-4.69167 -14.46611,-10.67139 -17.61639,-11.21701 -36.48204,-6.31863 -12.79679,3.32262 -14.28789,3.24252 -25.09784,-1.34825 -7.83629,-3.32791 -9.50385,-3.30686 -13.39414,0.16911 -3.27974,2.93044 -4.6975,7.87502 -4.82638,16.83245 -0.0405,2.81532 -0.56652,4.33753 -1.6414,4.75 -2.08233,0.79907 -1.87286,0.86708 -3.76322,-1.22175 z m 41.32703,-29.64959 c 0.87459,-1.05382 0.96465,-2.5614 0.31361,-5.25 l -0.91329,-3.77167 -6.44117,0.30723 c -7.13957,0.34055 -7.51365,0.53435 -8.46435,4.38512 -0.62224,2.52038 -0.3553,2.78739 4.17924,4.18035 6.29694,1.93434 9.80593,1.98049 11.32596,0.14897 z m 10.9828,-2.45593 c 1.33634,-2.49697 1.33541,-7.76216 -0.002,-8.58842 -0.57018,-0.35239 -2.82018,-0.3394 -5,0.0289 -4.59355,0.77608 -4.95654,2.15064 -1.88174,7.12577 2.32704,3.76523 5.30367,4.38525 6.88326,1.43377 z m 23.28138,-4.71429 c 11.60247,-2.81716 13.7538,-4.05644 13.7538,-7.92288 0,-3.0286 -0.62741,-3.04347 -16.38891,-0.3885 -13.48764,2.27195 -15.61278,2.78628 -15.60735,3.77732 0.0103,1.88163 4.18064,7.18261 5.65064,7.18261 0.92608,0 6.5924,-1.19185 12.59182,-2.64855 z m 34.76094,-10.85514 c 2.49248,-1.28891 3.05256,-2.14859 2.80377,-4.30349 -0.38309,-3.31801 -1.80906,-3.30593 -11.11402,0.0942 -8.22991,3.00727 -8.74993,3.45868 -6.19532,5.37795 2.43187,1.82705 9.87164,1.22768 14.50557,-1.16862 z m 13.4683,-3.65565 c 2.38418,-1.8754 2.67596,-2.67523 2.21894,-6.08259 -0.28942,-2.15778 -0.78091,-4.17793 -1.0922,-4.48922 -1.02829,-1.02829 -9.60218,4.19039 -9.60218,5.84457 0,1.77065 3.66816,6.88658 4.93772,6.88658 0.43591,0 2.02788,-0.9717 3.53772,-2.15934 z m 25.27456,-2.44164 c 1.2375,-0.79482 2.25,-2.06175 2.25,-2.81541 0,-2.16663 -9.26511,-15.58361 -10.76127,-15.58361 -2.0848,0 -13.23873,7.90895 -13.23873,9.38722 0,2.09147 5.86581,9.61675 8.29046,10.63587 2.81995,1.18529 10.53488,0.25438 13.45954,-1.62407 z m 14.36765,-7.28137 c 2.95018,-2.95018 3.88235,-4.67928 3.88235,-7.2014 0,-3.8324 -5.52005,-13.62914 -8.14971,-14.46377 -1.97316,-0.62625 -11.69676,3.98386 -12.42935,5.89295 -0.59316,1.54575 5.71888,15.65153 8.0443,17.97695 2.53274,2.53274 4.38756,2.06011 8.65241,-2.20473 z m 25.88235,30.50808 c 0,-3.16078 3.99452,-9.58321 9.19479,-14.78348 7.85683,-7.85683 15.45851,-19.19702 24.86408,-37.09225 6.39218,-12.16188 8.94113,-15.82426 8.94113,-12.84678 0,2.187 -7.47518,22.09064 -10.71143,28.52059 -5.89399,11.7105 -26.52719,36.57619 -30.3504,36.57619 -1.06599,0 -1.93817,-0.16842 -1.93817,-0.37427 z M 461.2355,348.4712 c -1.43984,-1.27781 -6.45328,-9.63789 -11.14098,-18.57795 -7.30759,-13.93653 -8.52309,-16.94958 -8.52309,-21.12755 0,-4.88568 1.58756,-7.62866 3.65239,-6.3106 1.54112,0.98375 5.63863,9.37303 10.33239,21.15461 2.21858,5.56874 5.64066,13.31582 7.60463,17.21574 3.10699,6.16964 3.3839,7.27771 2.1317,8.52991 -1.25219,1.25219 -1.77922,1.13734 -4.05704,-0.88416 z m 240.0026,0.51003 c -0.36667,-0.36666 -0.66667,-2.99528 -0.66667,-5.84137 0,-4.04615 0.89479,-6.98123 4.10283,-13.45805 4.62022,-9.32793 7.34566,-21.63709 6.501,-29.36109 -0.6619,-6.05266 -4.32204,-14.12857 -9.99331,-22.04971 -6.07676,-8.48747 -12.52382,-15.62311 -14.11551,-15.62311 -2.13185,0 -12.47065,10.95897 -18.96127,20.09867 -13.78303,19.40842 -29.49943,40.62796 -31.0357,41.90296 -1.40146,1.1631 -1.78754,1.15316 -2.55894,-0.0659 -1.25387,-1.98154 -1.16425,-6.62714 0.17848,-9.25144 0.61466,-1.20134 4.4027,-5.33426 8.41786,-9.18426 6.70588,-6.43005 7.39492,-7.47185 8.46269,-12.79515 1.28932,-6.42784 0.61515,-12.64252 -1.86638,-17.20485 -0.89746,-1.65 -1.63175,-4.125 -1.63175,-5.5 0,-2.12107 -0.46959,-2.50538 -3.09812,-2.53548 -3.50377,-0.0401 -8.77216,-3.05638 -7.87473,-4.50845 0.32499,-0.52584 6.30183,-0.9627 13.28187,-0.97081 13.61547,-0.0158 17.47029,-1.00721 17.99313,-4.62752 0.38101,-2.63825 -4.47887,-6.87843 -9.5832,-8.36122 -3.16115,-0.91829 -44.19766,-2.75423 -58.21895,-2.60466 -2.475,0.0264 -10.0125,-0.051 -16.75,-0.17193 -9.99136,-0.17938 -12.25,-0.49001 -12.25,-1.68475 0,-0.80565 0.90545,-1.94939 2.0121,-2.54166 3.20544,-1.7155 35.71779,-3.24772 56.9879,-2.68568 21.25339,0.56159 26.94446,1.60682 34.60371,6.35534 2.51664,1.56025 6.22285,3.8358 8.236,5.05678 2.01316,1.22098 5.68529,2.49105 8.16029,2.82237 7.3273,0.98089 9.63708,2.32976 16.56487,9.67359 11.44201,12.12913 16.18902,21.46644 18.43029,36.25213 1.51644,10.00406 0.74933,15.82981 -3.42199,25.98769 -1.81685,4.42434 -3.8689,9.84426 -4.56012,12.04426 -1.43947,4.58151 -5.06748,11.5 -6.03052,11.5 -0.35706,0 -0.9492,-0.3 -1.31586,-0.66667 z m -391,-17 c -1.58568,-1.58568 -0.41508,-4.72674 2.83333,-7.60266 4.1588,-3.68192 4.30018,-4.47594 1.0191,-5.72341 -3.90478,-1.48459 -2.07831,-3.66245 3.63944,-4.33963 2.7755,-0.32872 6.98136,-1.73165 9.34636,-3.11763 6.25391,-3.66504 13.09019,-13.55 9.37096,-13.55 -0.61828,0 -4.67491,1.60322 -9.01474,3.56271 -4.92685,2.22453 -8.63629,3.32604 -9.87587,2.93261 -3.89332,-1.23569 -1.8209,-4.01982 3.51475,-4.72176 7.7364,-1.01777 11.01918,-3.20806 17.89014,-11.93642 5.51387,-7.00442 6.80651,-9.40774 8.08642,-15.03455 3.44407,-15.14096 0.81525,-16.07271 -5.92111,-2.09866 -1.80187,3.73784 -4.29062,7.69607 -5.53055,8.79607 -1.23993,1.1 -2.6232,2.96398 -3.07392,4.14219 -1.01072,2.64204 -9.5162,6.19259 -11.08249,4.6263 -1.26999,-1.26999 0.49672,-4.90438 7.27868,-14.97333 2.66906,-3.96266 4.85283,-7.68481 4.85283,-8.27144 0,-0.58663 -1.125,-1.57918 -2.5,-2.20567 -1.375,-0.6265 -2.5,-1.48301 -2.5,-1.90338 0,-0.42036 1.87104,-2.54458 4.15786,-4.72049 3.68854,-3.50965 4.20916,-4.57487 4.61239,-9.43722 0.55678,-6.71407 -1.59987,-11.87434 -6.12671,-14.65953 -4.34854,-2.67549 -18.25042,-8.09743 -20.76184,-8.09743 -1.13643,0 -3.21041,0.9 -4.60883,2 -1.39842,1.1 -3.28177,2 -4.18522,2 -2.88115,0 -6.08765,2.97952 -6.08765,5.6567 0,2.44607 2.95981,5.86199 9.39545,10.8433 2.28285,1.76697 2.62867,2.85974 2.96807,9.37886 0.25511,4.89984 -0.0657,8.24594 -0.95482,9.95976 -1.15469,2.22567 -1.11514,2.82828 0.28737,4.37804 1.49692,1.65407 3.22805,4.33722 4.88825,7.57647 1.87244,3.65338 -5.83201,3.34408 -13.74572,-0.55182 -7.1087,-3.4996 -17.51222,-13.09272 -18.50998,-17.06811 -0.7122,-2.83765 1.23201,-18.76646 3.31667,-27.1732 1.79693,-7.24645 6.63866,-11.65329 18.13482,-16.50593 12.58237,-5.31114 15.31831,-5.12818 28.05457,1.87603 5.68408,3.12592 11.30908,5.78393 12.5,5.90669 1.87435,0.19322 2.15201,-0.25791 2.0663,-3.35712 -0.15253,-5.51562 -4.71453,-14.52154 -8.58364,-16.94512 -2.96743,-1.85877 -4.58935,-2.04613 -15.3768,-1.77625 -11.43979,0.2862 -12.2248,0.44086 -15.27708,3.00992 -4.85603,4.08726 -8.44287,2.02127 -3.91346,-2.25412 4.42126,-4.17331 7.96012,-5.2735 18.5,-5.75145 9.45648,-0.42883 12.47881,-1.41014 8.75,-2.84102 -1.97441,-0.75765 -1.93594,-3.36163 0.0497,-3.36163 2.84162,0 6.89637,2.79256 12.59467,8.67414 7.40231,7.64038 8.62393,10.3264 9.89958,21.76657 0.92583,8.30288 0.86046,9.79777 -0.48734,11.14557 -1.97714,1.97715 -1.95792,2.60663 0.37832,12.3881 1.06419,4.4556 2.49963,12.41765 3.18987,17.69345 l 1.25498,9.59237 -2.89955,5.36021 c -2.34246,4.33034 -2.65537,5.60225 -1.62863,6.6199 1.82223,1.80611 8.28278,-5.34606 10.636,-11.77461 5.64116,-15.41056 5.93355,-15.9657 8.40894,-15.9657 1.31204,0 2.85786,0.74881 3.43516,1.66402 1.50405,2.38441 -1.15816,7.78912 -11.62823,23.60714 -9.12364,13.78385 -18.4464,24.06376 -30.19997,33.30053 -4.35299,3.42088 -6.50346,5.81202 -6.50346,7.23127 0,1.29131 -2.22181,4.18813 -5.68235,7.40872 -5.48474,5.10442 -7.23381,6.03883 -8.65098,4.62165 z m 160.51941,-5.60911 c -1.43199,-1.72545 -1.97565,-7.06324 -0.78671,-7.72422 1.21701,-0.67659 3.85169,7.14894 2.7708,8.22983 -0.47324,0.47324 -1.35905,0.24751 -1.98409,-0.50561 z m -308.1246,-4.66274 c -1.13381,-1.13381 -2.06148,-2.49582 -2.06148,-3.02668 0,-2.37128 7.22082,-8.74817 18.26623,-16.13137 13.17416,-8.80615 16.02552,-9.54389 16.53777,-4.27886 0.41598,4.27545 -1.66739,6.00297 -8.22803,6.82267 -6.64108,0.82975 -8.15477,1.99664 -14.321,11.03996 -2.62034,3.84296 -5.522,7.13313 -6.44813,7.31148 -0.92613,0.17836 -2.61154,-0.60338 -3.74536,-1.7372 z m 122.30708,-0.55399 c -8.10824,-1.76344 -11.43026,-3.59337 -15.80805,-8.70783 -4.82401,-5.63577 -4.52247,-8.29966 0.93949,-8.29966 3.87759,0 4.09492,0.18361 7.10167,6 3.91784,7.57883 5.36051,8.12488 18.07316,6.84073 11.21015,-1.13238 12.54858,-0.90834 12.12804,2.03012 -0.51166,3.57521 -11.15775,4.58915 -22.43431,2.13664 z M 414.24952,307.8979 c -0.24197,-0.4125 -0.21923,-2.20044 0.0505,-3.9732 0.82103,-5.39526 7.55681,-10.53245 11.71684,-8.9361 2.53936,0.97445 4.76223,6.40268 3.54969,8.66833 -1.43638,2.6839 -3.61024,2.50808 -5.54759,-0.44868 -1.97815,-3.01905 -3.47625,-2.51948 -5.89104,1.96451 -1.83348,3.40458 -2.99936,4.22377 -3.87845,2.72514 z m -115.54101,-4.61914 c -5.02316,-1.81781 -10.61317,-6.95901 -16.17024,-14.87199 -5.03288,-7.16656 -6.19949,-11.34863 -3.45912,-12.40021 2.47491,-0.94971 6.29708,2.33191 10.26094,8.80981 6.84918,11.19321 10.53718,14.44047 17.29389,15.22717 3.53659,0.41177 5.47325,1.92841 4.4913,3.51723 -0.88089,1.42531 -8.15544,1.26009 -12.41677,-0.28201 z m 150.06673,-7.30098 c -3.84687,-1.17067 -5.21212,-2.05205 -4.98901,-3.2208 0.23965,-1.25542 2.25967,-1.79474 9.19058,-2.4538 9.35633,-0.88969 13.59462,-0.0205 13.59462,2.7881 0,3.70331 -9.85795,5.30225 -17.79619,2.8865 z m -148.92998,-6.02444 c -6.22277,-3.21235 -10.15311,-9.02595 -7.29591,-10.79179 0.53786,-0.33242 4.25036,1.5788 8.25,4.24715 6.64197,4.43118 7.61867,4.79103 11.27208,4.15308 2.2,-0.38415 4.3375,-0.49537 4.75,-0.24715 1.39481,0.83932 0.76124,3.19516 -1,3.71834 -3.37802,1.00347 -13.23072,0.33764 -15.97617,-1.07963 z m 152.22617,-2.92331 c -6.79222,-2.57014 -7.17422,-2.60196 -10.51274,-0.87554 -3.07649,1.59091 -3.34296,1.58216 -5.0925,-0.16739 -1.01538,-1.01538 -2.13646,-3.29771 -2.49129,-5.07184 -0.55664,-2.78321 -0.16147,-3.70936 2.88075,-6.75158 4.13216,-4.13216 5.57846,-3.88409 8.58945,1.47324 2.74495,4.88397 5.62123,5.96053 8.42745,3.15431 1.93929,-1.9393 1.99688,-2.51297 0.9386,-9.35003 -1.32974,-8.59083 -3.53755,-11.20326 -8.65651,-10.24293 -3.994,0.74928 -7.67564,-2.52915 -5.62074,-5.00515 1.68229,-2.02703 7.08841,-2.91464 12.66172,-2.07887 3.97898,0.59669 5.75595,1.77006 12.96682,8.56226 6.11073,5.75593 9.37072,8.08585 12.13248,8.6711 9.83849,2.08489 48.58394,-0.77914 66.44008,-4.9112 8.13937,-1.88352 12.41355,-2.16742 33.33643,-2.21434 20.57058,-0.0461 50.04579,1.69574 51.43333,3.0395 1.79972,1.74293 -5.50999,2.47423 -33.46455,3.34797 -27.14411,0.84841 -34.38347,1.41065 -47.96878,3.72544 -14.96948,2.55065 -17.97213,2.72903 -46.6196,2.76958 l -30.61959,0.0433 -3.80223,-2.70283 c -2.09122,-1.48655 -4.13983,-2.49417 -4.55246,-2.23915 -0.41264,0.25503 -0.50313,3.73123 -0.20108,7.7249 0.41484,5.48519 0.21233,7.53163 -0.82794,8.36676 -2.53816,2.03764 -5.34781,2.25711 -9.3771,0.73245 z m -31.83333,-17.0488 c -1.49147,-1.49147 -0.49061,-3.19906 2.48255,-4.2355 4.17552,-1.4556 5.85078,-1.38482 5.85078,0.24718 0,3.06367 -6.26133,6.06033 -8.33333,3.98832 z m -176.14852,-7.30396 c -0.7964,-1.2886 2.06047,-6.82952 5.34601,-10.36865 3.87284,-4.17175 7.92574,-5.93429 13.84234,-6.01982 6.01829,-0.087 7.8166,1.13877 6.91878,4.71596 -1.0325,4.11383 -3.33415,5.64314 -8.49305,5.64314 -3.68015,0 -5.9308,0.76825 -10.17857,3.4744 -5.95423,3.79331 -6.54476,3.99623 -7.43551,2.55497 z m 76.68185,-8.22937 c -1.86652,-1.86652 -1.41551,-7.71523 0.88156,-11.43197 2.53975,-4.1094 5.95896,-4.48133 8.30343,-0.90321 2.5726,3.92628 2.01046,6.98079 -1.91979,10.43159 -3.82258,3.35627 -5.39937,3.76942 -7.2652,1.90359 z m 188.07577,0.1794 c -17.82216,-1.03606 -24.82673,-2.43945 -27.99647,-5.60919 -5.61231,-5.61231 0.10096,-6.70452 12.38577,-2.36781 6.18361,2.18291 12.18943,3.43807 20.01302,4.18256 13.8877,1.32154 19.77141,0.58484 21.95588,-2.74908 2.64345,-4.03441 11.30585,-2.97236 9.97433,1.22291 -1.6605,5.23176 -11.94744,6.7382 -36.33253,5.32061 z m 1.01831,-9.30548 c -1.76326,-0.64566 -3.76576,-1.73642 -4.45,-2.42392 -0.99447,-0.9992 -0.24796,-1.25 3.72073,-1.25 3.12945,0 6.4099,-0.77452 8.87392,-2.09516 l 3.90911,-2.09516 1.80384,2.34516 c 2.32191,3.01868 2.29352,3.41992 -0.37419,5.28846 -2.58154,1.80818 -8.88093,1.91592 -13.48341,0.23062 z M 488.60235,237.681 c -1.56919,-1.67983 -4.23661,-6.37761 -5.92758,-10.43951 -10.43339,-25.06211 -7.62714,-39.84642 9.28019,-48.89139 3.45599,-1.84886 5.64072,-2.18939 13.61647,-2.12239 18.03673,0.15152 19.98896,2.53665 20.96192,25.61016 0.49977,11.85192 0.94968,15.05487 2.32876,16.57874 2.5258,2.79097 2.11564,4.77578 -1.90704,9.22841 -3.60956,3.99535 -5.70784,4.90537 -6.89215,2.98912 -1.6237,-2.62721 -4.44594,-15.31954 -3.89475,-17.51567 0.73684,-2.93578 -0.40943,-3.13591 -4.83959,-0.84499 -3.10764,1.60703 -3.17559,1.58972 -5.95034,-1.51577 -3.49603,-3.91274 -3.56329,-7.05271 -0.21819,-10.1855 l 2.58861,-2.42431 2.27791,2.84903 c 1.41812,1.77367 2.98883,2.7071 4.16139,2.473 1.55933,-0.31131 1.87669,-1.26432 1.84409,-5.53756 -0.0693,-9.08347 -4.76914,-11.49843 -13.46858,-6.92072 -2.47062,1.30006 -6.17974,2.91002 -8.24249,3.5777 -2.66857,0.86376 -3.93356,1.94352 -4.38522,3.74308 -1.13952,4.5402 3.12811,19.31547 5.57899,19.31547 0.49058,0 1.71653,1.6875 2.72432,3.75 1.0078,2.0625 3.06986,4.33705 4.58236,5.05457 5.20766,2.47045 3.05196,7.00461 -5.34565,11.24371 l -6.02034,3.03906 -2.85309,-3.05424 z m 38.92075,1.12885 c -2.86847,-2.32275 -2.21364,-3.32972 4.84444,-7.44967 7.68926,-4.48836 8.85076,-4.8427 10.26974,-3.13293 1.00031,1.2053 0.18318,2.41531 -4.67688,6.92555 -3.23893,3.00579 -6.40162,5.47183 -7.02819,5.48009 -0.62656,0.008 -2.16066,-0.81211 -3.40911,-1.82304 z m -114.0204,-6.03403 c -5.32352,-3.20513 -6.92894,-4.83507 -9.3206,-9.46289 -2.72567,-5.27414 -2.7991,-5.72851 -1.29642,-8.02188 1.54305,-2.35499 1.43787,-2.62424 -3.36068,-8.60334 -2.72446,-3.39475 -4.95357,-6.36747 -4.95357,-6.60604 0,-1.28964 2.41231,0.0514 7.39808,4.11282 7.05912,5.75032 8.20829,7.74961 6.14642,10.69333 -0.84947,1.2128 -1.5445,2.7715 -1.5445,3.46378 0,0.69228 4.275,4.47198 9.5,8.39934 5.225,3.92736 9.5,7.76082 9.5,8.5188 0,2.57815 -5.54882,1.43152 -12.06873,-2.49392 z m 98.7354,3.20541 c -1.19334,-1.19334 -0.70259,-6.05863 0.73114,-7.24852 1.10725,-0.91893 1.83481,-0.60454 3.5,1.51241 2.59479,3.29874 2.61849,4.0561 0.16793,5.3676 -2.24356,1.20072 -3.46458,1.303 -4.39907,0.36851 z m -288.12593,-8.26741 c -0.31751,-0.51375 0.16541,-2.79029 1.07316,-5.05898 2.52372,-6.3074 1.44615,-14.63557 -3.48353,-26.92286 -4.29909,-10.71553 -4.99476,-14.10858 -2.88037,-14.04864 3.02523,0.0858 11.25846,6.43316 13.91054,10.72432 2.52355,4.08319 4.09012,15.71551 3.1972,23.74024 -0.55154,4.9567 -1.23189,6.56512 -3.91269,9.25 -3.15606,3.16087 -6.73417,4.20924 -7.90431,2.31592 z m 240.3317,-8.72202 c -1.73593,-2.09472 -1.70528,-20.29943 0.0447,-26.54398 1.66758,-5.95053 7.12715,-13.11852 11.61328,-15.24733 7.69669,-3.65232 15.80475,-2.87457 8.71959,0.83641 -3.83872,2.0106 -8.60842,7.29482 -11.38307,12.611 -2.04571,3.91955 -2.35822,5.96764 -2.42277,15.87812 -0.0646,9.92229 -0.31417,11.55366 -1.95027,12.75 -2.4076,1.76048 -2.95485,1.72683 -4.62145,-0.28422 z m -15.94458,-4.20123 c -2.02112,-1.6366 -2.27171,-2.65558 -2.10863,-8.57428 0.4125,-14.97155 5.38834,-28.76742 13.87469,-38.4686 4.76928,-5.452 15.09211,-11.17282 26.47204,-14.67056 4.80342,-1.47638 6.13739,-1.54622 8.76272,-0.45877 1.86647,0.77312 3.34072,2.25472 3.71082,3.72934 1.00253,3.99439 -0.7062,4.70278 -7.89633,3.27361 -3.52519,-0.70069 -7.52178,-0.99481 -8.88132,-0.65358 -7.53146,1.89027 -17.17348,11.98937 -23.81623,24.94524 -3.99415,7.79009 -4.04562,8.02854 -4.04562,18.74128 0,8.53102 -0.33595,11.18675 -1.57143,12.42222 -1.94069,1.94069 -1.73483,1.95377 -4.50071,-0.2859 z M 264.12813,203.42539 c -0.85618,-1.22237 -1.5567,-3.06683 -1.5567,-4.09879 0,-4.27588 11.56016,-11.50788 16.43808,-10.2836 3.7879,0.95071 3.1284,3.24682 -1.96342,6.83587 -2.48894,1.75437 -5.39876,4.67009 -6.46628,6.47939 -2.26557,3.83987 -4.27659,4.1725 -6.45168,1.06713 z m 271.08932,-2.22974 c -3.64166,-3.37498 -3.32362,-5.70286 1.35686,-9.93139 6.22504,-5.62394 8.03127,-4.50377 3.49712,2.16883 -1.375,2.02349 -2.5,4.24962 -2.5,4.94694 0,2.19244 3.10313,1.38451 6.65278,-1.73213 3.9414,-3.46059 7.34722,-3.96783 7.34722,-1.09424 0,2.26847 -8.29534,8.09424 -11.52542,8.09424 -1.20039,0 -3.37324,-1.10351 -4.82856,-2.45225 z M 363.5728,178.88163 c -1.37424,-0.2409 -5.08834,-2.38472 -8.25355,-4.76405 -11.57809,-8.70341 -14.86153,-9.72799 -34.05061,-10.62529 -9.37756,-0.43851 -17.46902,-1.2162 -17.98102,-1.7282 -1.67934,-1.67934 2.51905,-2.8989 14.50626,-4.21379 10.70319,-1.17404 12.53635,-1.11802 21.48946,0.65672 11.84403,2.34779 25.27463,2.34497 34.28809,-0.007 6.3346,-1.65309 12.14109,-4.49566 28.47579,-13.94034 8.64223,-4.99692 13.52421,-5.96163 13.52421,-2.67248 0,1.22627 -2.38868,3.70765 -6.49782,6.75 -11.82239,8.75313 -19.88209,13.14213 -30.25218,16.47417 -5.6375,1.81139 -10.25,3.8156 -10.25,4.4538 0,1.93322 6.3084,2.49541 11.26443,1.00386 5.12688,-1.54296 27.20795,-12.90629 35.1675,-18.09784 2.78744,-1.81808 10.69307,-9.0168 17.56807,-15.99714 14.23285,-14.45094 15.53871,-15.41581 17.80144,-13.15308 1.38114,1.38114 1.39704,1.88999 0.13333,4.26781 -2.02106,3.80289 -30.54521,32.13878 -38.13106,37.8794 -3.46704,2.6237 -8.67049,5.86496 -11.56323,7.20281 -7.22407,3.34101 -31.30431,7.55118 -37.23911,6.51084 z M 290.32143,156.5678 c -0.9625,-0.5606 -1.75,-1.6912 -1.75,-2.51243 0,-2.45803 9.09753,-11.4155 14.4802,-14.25727 4.78963,-2.52868 5.70759,-2.64949 20.0198,-2.6348 8.25,0.008 21.99275,0.41251 30.53944,0.89787 16.42453,0.93274 18.85328,0.53418 21.76726,-3.57197 1.59765,-2.25126 7.00886,-2.48551 7.83253,-0.33906 0.95033,2.47652 -0.51562,6.36124 -2.87751,7.62528 -4.82174,2.58052 -10.07997,2.83507 -35.8057,1.73337 -30.38113,-1.30107 -30.38984,-1.29951 -40.95602,7.32798 -8.33437,6.80517 -10.09693,7.56753 -13.25,5.73103 z m 248.32069,-14.74507 c -2.98611,-2.076 -6.31873,-4.96584 -7.4058,-6.42186 -1.8236,-2.44251 -1.86487,-2.94148 -0.53349,-6.45014 2.08377,-5.49148 5.13721,-5.65679 7.80746,-0.42268 1.12391,2.20304 4.07244,5.70155 6.5523,7.77446 4.66972,3.90339 5.90632,7.59515 2.92705,8.7384 -2.69823,1.03541 -3.75001,0.6733 -9.34752,-3.21818 z m -140.40402,-3.8415 c -1.44059,-1.44058 -0.55106,-6.35124 1.58333,-8.74077 2.74411,-3.07214 27.43268,-21.56819 32.25764,-24.16661 3.19124,-1.7186 3.60659,-1.74029 5.08145,-0.26543 2.38703,2.38702 0.47863,5.08594 -6.33319,8.95662 -3.16574,1.79887 -10.80078,8.13342 -16.96674,14.07677 -10.16809,9.80098 -13.68097,12.08094 -15.62249,10.13942 z"
             id="path2995" />
        </g>
      </g>
      <path
         d="m 337.3997,472.02544 c -2.69724,-1.801 -3.29585,-4.90305 -2.28119,-11.82127 1.17298,-7.99768 0.68025,-13.76264 -2.77039,-32.41342 -1.57577,-8.51708 -2.77214,-19.67976 -3.24128,-30.24254 l -0.74361,-16.74253 -4.93162,-7.04448 c -10.18254,-14.54509 -9.63412,-12.89699 -8.97471,-26.97045 0.32213,-6.875 1.00992,-17.225 1.52842,-23 1.17178,-13.05109 0.27475,-31 -1.54928,-31 -1.60316,0 -5.21217,15.04984 -6.08493,25.37462 -0.52576,6.2197 -0.22055,9.16899 1.68121,16.24564 2.2339,8.31262 2.25349,8.69758 0.50749,9.97429 -6.34692,4.64098 -9.64534,-8.8602 -7.55567,-30.92707 1.55655,-16.4371 3.2654,-23.74429 6.00257,-25.66748 6.83778,-4.80437 6.98952,-5.07908 9.11392,-16.5 1.12536,-6.05 2.83955,-12.125 3.80932,-13.5 3.09897,-4.39393 8.2619,-19.45996 7.91486,-23.09648 -0.26981,-2.82725 -0.7688,-3.45501 -2.94706,-3.70762 -3.25161,-0.37708 -3.55477,0.36556 -4.94223,12.10673 -1.74175,14.73936 -1.90666,15.47232 -3.62994,16.1336 -3.36296,1.29049 -3.65085,-1.11088 -1.45496,-12.13639 2.76058,-13.86083 2.76293,-18.01784 0.0118,-20.94624 -1.92392,-2.04792 -2.00852,-2.58676 -0.84659,-5.39191 2.52803,-6.10322 8.28954,-7.45367 20.91757,-4.90293 6.47777,1.30845 10.06656,3.31309 10.06656,5.62301 0,0.89962 -2.68176,5.77544 -5.95947,10.83515 -8.30077,12.8137 -16.20266,37.90162 -17.47539,55.48308 -0.33843,4.675 -1.75873,18.82856 -3.15624,31.45236 -3.06388,27.67638 -2.84072,30.41185 3.17251,38.88901 8.0907,11.40587 8.53285,12.67683 9.59187,27.57195 0.53683,7.55048 2.10145,18.47369 3.52175,24.58668 1.77445,7.63727 2.75839,15.47182 3.21862,25.62801 0.6285,13.86935 0.80352,14.8124 3.37461,18.18328 3.1117,4.07964 3.26279,5.53985 1.26136,12.1901 -1.76501,5.86468 -4.12228,7.7549 -7.14992,5.7333 z m 289.97673,-37.871 c -0.94678,-3.77229 0.24625,-22.22553 2.15701,-33.36369 0.89636,-5.225 2.94302,-13.37841 4.54815,-18.11869 3.78992,-11.19244 3.69886,-15.57945 -0.58159,-28.02083 -4.20093,-12.21025 -4.35312,-16.24342 -0.87212,-23.11283 2.4169,-4.76954 2.5755,-5.83059 1.97554,-13.21676 -0.35878,-4.41699 -0.9239,-11.6495 -1.25582,-16.07225 l -0.60348,-8.04135 4.12794,-4.76947 C 640.62518,285.10218 641,284.17232 641,279.19781 c 0,-7.40321 1.72289,-10.94434 8.40104,-17.267 6.35855,-6.02007 8.05536,-8.79085 9.04958,-14.77744 1.52344,-9.17316 -3.6795,-17.81529 -12.76095,-21.19601 -2.92869,-1.09025 -9.32853,-2.21563 -14.68967,-2.5831 -20.43607,-1.40075 -22,-1.9841 -22,-8.20597 0,-2.98193 -0.46482,-3.6728 -3.25,-4.83044 -4.51518,-1.87672 -18.90546,-3.48338 -41.11155,-4.59008 -10.37386,-0.517 -20.55073,-1.39486 -22.61528,-1.95078 -3.70023,-0.99637 -7.85907,-4.90952 -15.9245,-14.98375 -3.28528,-4.10353 -3.55802,-4.23082 -7.9939,-3.73083 -5.43971,0.61313 -7.55554,-0.32888 -9.59442,-4.27164 -3.75885,-7.26882 -0.41658,-10.39502 11.1135,-10.39502 7.73083,0 9.82496,1.57766 11.31473,8.52423 3.76298,17.54615 16.88902,22.85077 56.54319,22.85077 22.46119,0 25.02544,0.56532 26.49053,5.84011 0.5591,2.01294 1.01906,4.20656 1.02212,4.87471 0.0114,2.4806 3.80415,3.21389 13.62638,2.63453 l 9.8792,-0.58273 6.9055,3.62365 c 8.19381,4.29968 15.10995,9.76461 17.656,13.95125 2.54489,4.18473 3.36343,12.25732 1.95445,19.27519 -1.10991,5.52828 -1.67401,6.35049 -9.34856,13.62579 l -8.16739,7.7425 0.21768,7.4278 0.21767,7.42779 -3.60241,2.12548 -3.60242,2.12547 0.65467,6.20423 c 2.01129,19.06077 1.94002,20.70175 -1.30906,30.14182 -4.95611,14.3998 -3.93,25.38053 3.04318,32.56591 5.593,5.76321 5.53041,7.41174 -0.69269,18.2445 -5.58537,9.72266 -7.29532,16.23034 -8.0839,30.76553 -0.56981,10.50289 -0.43671,11.88191 1.51632,15.71016 2.77646,5.44232 2.70148,7.67902 -0.32386,9.6613 -3.88262,2.54399 -7.3736,2.107 -8.15875,-1.0213 z"
         transform="translate(-51,37.209248)"
         id="path2997"
         style="fill:#4772fe" />
    </g>
  </g>
</svg>
