<?xml version="1.0" encoding="UTF-8" standalone="no"?>
<!-- Created with Inkscape (http://www.inkscape.org/) -->

<svg
   xmlns:dc="http://purl.org/dc/elements/1.1/"
   xmlns:cc="http://creativecommons.org/ns#"
   xmlns:rdf="http://www.w3.org/1999/02/22-rdf-syntax-ns#"
   xmlns:svg="http://www.w3.org/2000/svg"
   xmlns="http://www.w3.org/2000/svg"
   xmlns:sodipodi="http://sodipodi.sourceforge.net/DTD/sodipodi-0.dtd"
   xmlns:inkscape="http://www.inkscape.org/namespaces/inkscape"
   version="1.1"
   width="57.813408"
   height="53.170254"
   id="svg6146"
   inkscape:version="0.48.4 r9939"
   sodipodi:docname="mascot.svg">
  <sodipodi:namedview
     pagecolor="#ffffff"
     bordercolor="#666666"
     borderopacity="1"
     objecttolerance="10"
     gridtolerance="10"
     guidetolerance="10"
     inkscape:pageopacity="0"
     inkscape:pageshadow="2"
     inkscape:window-width="2560"
     inkscape:window-height="1391"
     id="namedview13"
     showgrid="false"
     inkscape:zoom="4.438572"
     inkscape:cx="-0.38199515"
     inkscape:cy="26.585127"
     inkscape:window-x="0"
     inkscape:window-y="25"
     inkscape:window-maximized="1"
     inkscape:current-layer="svg6146" />
  <defs
     id="defs6148">
    <filter
       color-interpolation-filters="sRGB"
       inkscape:collect="always"
       id="filter7653-6"
       x="-0.14442319"
       width="1.2888464"
       y="-0.14357929"
       height="1.2871586">
      <feGaussianBlur
         inkscape:collect="always"
         stdDeviation="2.2102493"
         id="feGaussianBlur7655-4" />
    </filter>
  </defs>
  <metadata
     id="metadata6151">
    <rdf:RDF>
      <cc:Work
         rdf:about="">
        <dc:format>image/svg+xml</dc:format>
        <dc:type
           rdf:resource="http://purl.org/dc/dcmitype/StillImage" />
        <dc:title />
      </cc:Work>
    </rdf:RDF>
  </metadata>
  <g
     inkscape:export-ydpi="90"
     inkscape:export-xdpi="90"
     inkscape:export-filename="/home/adansdpc/Desarrollo/GitHub/waalt/loqui/src-next/img/emoji/:).png"
     id="g7661-2-8-3-0-8"
     transform="matrix(0.45166405,0,0,0.45166405,-185.10801,256.93311)">
    <rect
       style="opacity:0;fill:#a02c2c;fill-opacity:1;stroke:none"
       id="rect7599-0-6-1-6-8"
       width="128"
       height="128"
       x="409.83606"
       y="-573.99847" />
    <g
       transform="matrix(2.1850573,0,0,2.1850573,-338.58478,982.66879)"
       id="g5552-9-4-4-4-1-2">
      <path
         style="fill:#e95644;fill-opacity:1;stroke:none"
         d="m 368.25,-710.0625 c -3.18874,0.0668 -6.33323,0.87439 -9.15625,2.5 -14.58794,7.73955 -20.19039,28.51323 -14.21875,39.59375 4.25072,6.85355 14.33254,11.56756 24.71875,11.78125 5.88362,-0.12105 11.66017,-1.70102 16.34375,-4.28125 3.78991,1.79056 7.68365,3.03069 11.40625,3.1875 3.17169,0.12012 5.69957,0.39969 1.6875,-2.40625 -2.27714,-1.54414 -4.38165,-3.63188 -6.125,-6.375 0.51316,-0.61877 0.99651,-1.24561 1.40625,-1.90625 5.97164,-11.08052 0.36919,-31.8542 -14.21875,-39.59375 -2.82302,-1.62561 -5.96751,-2.4332 -9.15625,-2.5 l -1.34375,0 -1.34375,0 z"
         id="path5026-3-6-3-6-7-9"
         inkscape:connector-curvature="0"
         inkscape:transform-center-x="-2.3694396" />
      <path
         inkscape:connector-curvature="0"
         id="path7511-9"
         d="m 368.60243,-701.5897 c -2.16908,0.052 -4.27222,0.63576 -6.19916,1.74998 -9.9574,5.3048 -13.80026,19.50746 -9.72417,27.10224 4.52913,7.33284 18.72548,11.11242 28.29124,5.12827 7.04706,-4.07499 8.90361,-14.16394 4.34548,-22.88701 -0.14575,-0.28214 -0.29539,-0.58917 -0.45581,-0.86742 -0.16041,-0.27825 -0.33033,-0.55425 -0.5014,-0.82172 -3.6188,-5.71659 -9.31825,-9.13772 -14.81416,-9.38916 -0.31227,-0.0145 -0.63216,-0.0225 -0.94202,-0.015 z"
         style="fill:#ffffff;fill-opacity:1;stroke:none;filter:url(#filter7653-6)"
         transform="matrix(1.1265416,0,0,1.1265416,-46.749306,86.443082)" />
      <path
         style="fill:#ffffff;fill-opacity:1;stroke:none"
         d="m 368.60243,-701.5897 c -2.16908,0.052 -4.27222,0.63576 -6.19916,1.74998 -9.9574,5.3048 -13.80026,19.50746 -9.72417,27.10224 4.52913,7.33284 18.72548,11.11242 28.29124,5.12827 7.04706,-4.07499 8.90361,-14.16394 4.34548,-22.88701 -0.14575,-0.28214 -0.29539,-0.58917 -0.45581,-0.86742 -0.16041,-0.27825 -0.33033,-0.55425 -0.5014,-0.82172 -3.6188,-5.71659 -9.31825,-9.13772 -14.81416,-9.38916 -0.31227,-0.0145 -0.63216,-0.0225 -0.94202,-0.015 z"
         id="path5840-3-72-35-3-6-2-4-0-89-4-6"
         inkscape:connector-curvature="0" />
      <path
         id="path3982-2-0-9-3-5-2-5-0"
         d="m 377.77897,-690.37602 c -2.42306,0 -4.38329,1.46456 -4.38329,3.26012 0,0.45449 0.12854,0.87764 0.35585,1.27048 0.67084,-1.15881 2.21802,-1.96566 4.02744,-1.96566 1.81193,0 3.3743,0.80427 4.0436,1.96566 0.22565,-0.39164 0.33967,-0.81773 0.33967,-1.27048 0,-1.79556 -1.96021,-3.26012 -4.38327,-3.26012 z"
         style="fill:#e95644;fill-opacity:1;stroke:none"
         inkscape:connector-curvature="0" />
      <path
         inkscape:connector-curvature="0"
         id="path5426-2-1-1-2-3-1-7-3-1-3-2"
         d="m 373.39568,-680.55152 c 0,2.1766 -1.77186,3.94111 -3.95755,3.94111 -2.1857,0 -3.95756,-1.76451 -3.95756,-3.94111 l 7.91511,0 z"
         style="fill:#e95644;fill-opacity:1;fill-rule:evenodd;stroke:none" />
      <path
         inkscape:connector-curvature="0"
         style="fill:#e95644;fill-opacity:1;stroke:none"
         d="m 361.0973,-690.37602 c -2.42306,0 -4.38329,1.46456 -4.38329,3.26012 0,0.45449 0.12854,0.87764 0.35585,1.27048 0.67084,-1.15881 2.21802,-1.96566 4.02744,-1.96566 1.81193,0 3.3743,0.80427 4.0436,1.96566 0.22565,-0.39164 0.33967,-0.81773 0.33967,-1.27048 0,-1.79556 -1.96021,-3.26012 -4.38327,-3.26012 z"
         id="path5597-7-9-4-0-9-5" />
    </g>
  </g>
</svg>

