<?xml version="1.0" encoding="UTF-8" standalone="no"?>
<!-- Created with Inkscape (http://www.inkscape.org/) -->

<svg
   xmlns:dc="http://purl.org/dc/elements/1.1/"
   xmlns:cc="http://creativecommons.org/ns#"
   xmlns:rdf="http://www.w3.org/1999/02/22-rdf-syntax-ns#"
   xmlns:svg="http://www.w3.org/2000/svg"
   xmlns="http://www.w3.org/2000/svg"
   xmlns:xlink="http://www.w3.org/1999/xlink"
   xmlns:sodipodi="http://sodipodi.sourceforge.net/DTD/sodipodi-0.dtd"
   xmlns:inkscape="http://www.inkscape.org/namespaces/inkscape"
   version="1.1"
   width="48"
   height="48"
   id="svg4528"
   inkscape:version="0.48.4 r9939"
   sodipodi:docname="protocols.svg"
   inkscape:export-filename="/home/adansdpc/Imágenes/Waalt/Chat/gmailxmpp.png"
   inkscape:export-xdpi="90"
   inkscape:export-ydpi="90">
  <sodipodi:namedview
     pagecolor="#ffffff"
     bordercolor="#666666"
     borderopacity="1"
     objecttolerance="10"
     gridtolerance="10"
     guidetolerance="10"
     inkscape:pageopacity="0"
     inkscape:pageshadow="2"
     inkscape:window-width="2560"
     inkscape:window-height="1391"
     id="namedview23"
     showgrid="false"
     inkscape:snap-global="true"
     inkscape:snap-page="true"
     inkscape:snap-bbox="true"
     inkscape:bbox-paths="true"
     inkscape:bbox-nodes="true"
     inkscape:snap-bbox-edge-midpoints="true"
     inkscape:zoom="1.22"
     inkscape:cx="45.233085"
     inkscape:cy="18.650792"
     inkscape:window-x="0"
     inkscape:window-y="25"
     inkscape:window-maximized="1"
     inkscape:current-layer="svg4528" />
  <defs
     id="defs4530">
    <linearGradient
       x1="-1807.2"
       y1="125.86"
       x2="-1807.2"
       y2="0.00048828"
       id="SVGID_1_-0"
       gradientUnits="userSpaceOnUse"
       gradientTransform="translate(1916,0)">
      <stop
         id="stop4302-3"
         style="stop-color:#1b3967;stop-opacity:1"
         offset="0.011" />
      <stop
         id="stop4304-4"
         style="stop-color:#13b5ea;stop-opacity:1"
         offset="0.46700001" />
      <stop
         id="stop4306-7"
         style="stop-color:#002b5c;stop-opacity:1"
         offset="0.99449998" />
    </linearGradient>
    <linearGradient
       x1="-1073.2"
       y1="126.85"
       x2="-1073.2"
       y2="1.279e-13"
       id="SVGID_2_-1"
       gradientUnits="userSpaceOnUse"
       gradientTransform="matrix(-1,0,0,1,-1008.2,0)">
      <stop
         id="stop4313-6"
         style="stop-color:#1b3967;stop-opacity:1"
         offset="0.011" />
      <stop
         id="stop4315-2"
         style="stop-color:#13b5ea;stop-opacity:1"
         offset="0.46700001" />
      <stop
         id="stop4317-5"
         style="stop-color:#002b5c;stop-opacity:1"
         offset="0.99449998" />
    </linearGradient>
    <linearGradient
       inkscape:collect="always"
       xlink:href="#SVGID_1_-0-1"
       id="linearGradient4944"
       gradientUnits="userSpaceOnUse"
       gradientTransform="translate(1916,0)"
       x1="-1807.2"
       y1="125.86"
       x2="-1807.2"
       y2="0.00048828" />
    <linearGradient
       id="SVGID_1_-0-1"
       y2="0.00048828"
       gradientUnits="userSpaceOnUse"
       x2="-1807.2"
       gradientTransform="translate(1916,0)"
       y1="125.86"
       x1="-1807.2">
      <stop
         stop-color="#1b3967"
         offset=".011"
         id="stop4302-3-4" />
      <stop
         stop-color="#13b5ea"
         offset=".467"
         id="stop4304-4-0" />
      <stop
         stop-color="#002b5c"
         offset=".9945"
         id="stop4306-7-6" />
    </linearGradient>
    <linearGradient
       inkscape:collect="always"
       xlink:href="#SVGID_2_-1-0"
       id="linearGradient4946"
       gradientUnits="userSpaceOnUse"
       gradientTransform="matrix(-1,0,0,1,-1008.2,0)"
       x1="-1073.2"
       y1="126.85"
       x2="-1073.2"
       y2="1.279e-13" />
    <linearGradient
       id="SVGID_2_-1-0"
       y2="1.279e-13"
       gradientUnits="userSpaceOnUse"
       x2="-1073.2"
       gradientTransform="matrix(-1,0,0,1,-1008.2,0)"
       y1="126.85"
       x1="-1073.2">
      <stop
         stop-color="#1b3967"
         offset=".011"
         id="stop4313-6-0" />
      <stop
         stop-color="#13b5ea"
         offset=".467"
         id="stop4315-2-1" />
      <stop
         stop-color="#002b5c"
         offset=".9945"
         id="stop4317-5-9" />
    </linearGradient>
    <linearGradient
       inkscape:collect="always"
       xlink:href="#linearGradient4920"
       id="linearGradient4941"
       gradientUnits="userSpaceOnUse"
       gradientTransform="matrix(0.05954747,0,0,0.05954747,572.3643,174.86829)"
       x1="1316.665"
       y1="231.07143"
       x2="1316.665"
       y2="-231.95239" />
    <linearGradient
       inkscape:collect="always"
       id="linearGradient4920">
      <stop
         style="stop-color:#449a34;stop-opacity:1;"
         offset="0"
         id="stop4922" />
      <stop
         style="stop-color:#62b84a;stop-opacity:1"
         offset="1"
         id="stop4924" />
    </linearGradient>
    <linearGradient
       y2="-231.95239"
       x2="1316.665"
       y1="231.07143"
       x1="1316.665"
       gradientTransform="matrix(0.05954747,0,0,0.05954747,572.3643,174.86829)"
       gradientUnits="userSpaceOnUse"
       id="linearGradient5004"
       xlink:href="#linearGradient4920"
       inkscape:collect="always" />
    <linearGradient
       y2="-231.95239"
       x2="1316.665"
       y1="231.07143"
       x1="1316.665"
       gradientTransform="matrix(0.05954747,0,0,0.05954747,-42.218954,13.812119)"
       gradientUnits="userSpaceOnUse"
       id="linearGradient24641"
       xlink:href="#linearGradient4920-2"
       inkscape:collect="always" />
    <linearGradient
       inkscape:collect="always"
       id="linearGradient4920-2">
      <stop
         style="stop-color:#449a34;stop-opacity:1;"
         offset="0"
         id="stop4922-7" />
      <stop
         style="stop-color:#62b84a;stop-opacity:1"
         offset="1"
         id="stop4924-6" />
    </linearGradient>
    <clipPath
       id="clipPath26-4-2">
      <path
         d="m 200.978,431.179 c 0,83.87 67.976,151.846 151.846,151.846 83.864,0 151.867,-67.976 151.867,-151.846 0,-83.857 -68.003,-151.847 -151.867,-151.847 -83.87,0 -151.846,67.99 -151.846,151.847"
         id="path28-5-3"
         inkscape:connector-curvature="0" />
    </clipPath>
    <clipPath
       id="clipPath54-3-1">
      <path
         d="m 347.15,332.338 c 0,0 -36.141,19.277 -36.743,11.457 -0.608,-7.834 0,-39.758 4.211,-42.178 4.225,-2.406 34.344,15.661 34.344,15.661 l -1.812,15.06 z"
         id="path56-2-6"
         inkscape:connector-curvature="0" />
    </clipPath>
    <linearGradient
       inkscape:collect="always"
       xlink:href="#linearGradient62-5-2"
       id="linearGradient3047-6-3"
       gradientUnits="userSpaceOnUse"
       gradientTransform="matrix(38.754883,0,0,-38.754883,310.20703,323.5293)"
       spreadMethod="pad"
       x1="0"
       y1="0"
       x2="1"
       y2="0" />
    <linearGradient
       x1="0"
       y1="0"
       x2="1"
       y2="0"
       id="linearGradient62-5-2"
       gradientUnits="userSpaceOnUse"
       gradientTransform="matrix(38.754883,0,0,-38.754883,310.20703,323.5293)"
       spreadMethod="pad">
      <stop
         id="stop64-2-5"
         style="stop-color:#b4d66f;stop-opacity:1"
         offset="0" />
      <stop
         id="stop66-1-6"
         style="stop-color:#0db14b;stop-opacity:1"
         offset="0.69101101" />
      <stop
         id="stop68-3-3"
         style="stop-color:#0db14b;stop-opacity:1"
         offset="0.69101101" />
      <stop
         id="stop70-0-0"
         style="stop-color:#0db14b;stop-opacity:1"
         offset="1" />
    </linearGradient>
    <clipPath
       id="clipPath78-8-3">
      <path
         d="m 361.007,333.555 c 0,0 24.705,18.675 30.126,17.472 5.421,-1.216 6.624,-39.764 1.798,-41.589 -4.82,-1.792 -33.086,9.789 -33.086,9.789 l 1.162,14.328 z"
         id="path80-2-5"
         inkscape:connector-curvature="0" />
    </clipPath>
    <linearGradient
       inkscape:collect="always"
       xlink:href="#linearGradient86-6-2"
       id="linearGradient3049-4-7"
       gradientUnits="userSpaceOnUse"
       gradientTransform="matrix(36.111328,0,0,-36.111328,359.84473,330.16602)"
       spreadMethod="pad"
       x1="0"
       y1="0"
       x2="1"
       y2="0" />
    <linearGradient
       x1="0"
       y1="0"
       x2="1"
       y2="0"
       id="linearGradient86-6-2"
       gradientUnits="userSpaceOnUse"
       gradientTransform="matrix(36.111328,0,0,-36.111328,359.84473,330.16602)"
       spreadMethod="pad">
      <stop
         id="stop88-3-3"
         style="stop-color:#b4d66f;stop-opacity:1"
         offset="0" />
      <stop
         id="stop90-8-1"
         style="stop-color:#0db14b;stop-opacity:1"
         offset="0.69101101" />
      <stop
         id="stop92-8-1"
         style="stop-color:#0db14b;stop-opacity:1"
         offset="0.69101101" />
      <stop
         id="stop94-8-1"
         style="stop-color:#0db14b;stop-opacity:1"
         offset="1" />
    </linearGradient>
    <clipPath
       id="clipPath102-4-3">
      <path
         d="m 339.925,332.338 c 0,-12.64 -1.805,-18.074 3.616,-19.271 5.421,-1.21 15.654,0 19.277,2.407 3.61,2.413 0.595,18.669 -0.608,21.697 -1.203,3.001 -22.285,0.588 -22.285,-4.833"
         id="path104-0-4"
         inkscape:connector-curvature="0" />
    </clipPath>
    <linearGradient
       inkscape:collect="always"
       xlink:href="#linearGradient110-9-7"
       id="linearGradient3051-1-9"
       gradientUnits="userSpaceOnUse"
       gradientTransform="matrix(24.898437,0,0,-24.898437,339.63672,325.53418)"
       spreadMethod="pad"
       x1="0"
       y1="0"
       x2="1"
       y2="0" />
    <linearGradient
       x1="0"
       y1="0"
       x2="1"
       y2="0"
       id="linearGradient110-9-7"
       gradientUnits="userSpaceOnUse"
       gradientTransform="matrix(24.898437,0,0,-24.898437,339.63672,325.53418)"
       spreadMethod="pad">
      <stop
         id="stop112-6-8"
         style="stop-color:#73c063;stop-opacity:1"
         offset="0" />
      <stop
         id="stop114-9-4"
         style="stop-color:#0db14b;stop-opacity:1"
         offset="1" />
    </linearGradient>
    <linearGradient
       inkscape:collect="always"
       xlink:href="#SVGID_1_-0-1-0"
       id="linearGradient3069-6"
       gradientUnits="userSpaceOnUse"
       gradientTransform="translate(1916,0)"
       x1="-1807.2"
       y1="125.86"
       x2="-1807.2"
       y2="0.00048828" />
    <linearGradient
       id="SVGID_1_-0-1-0"
       y2="0.00048828"
       gradientUnits="userSpaceOnUse"
       x2="-1807.2"
       gradientTransform="translate(1916,0)"
       y1="125.86"
       x1="-1807.2">
      <stop
         stop-color="#1b3967"
         offset=".011"
         id="stop4302-3-4-9" />
      <stop
         stop-color="#13b5ea"
         offset=".467"
         id="stop4304-4-0-2" />
      <stop
         stop-color="#002b5c"
         offset=".9945"
         id="stop4306-7-6-1" />
    </linearGradient>
    <linearGradient
       inkscape:collect="always"
       xlink:href="#SVGID_2_-1-0-5"
       id="linearGradient3071-3"
       gradientUnits="userSpaceOnUse"
       gradientTransform="matrix(-1,0,0,1,-1008.2,0)"
       x1="-1073.2"
       y1="126.85"
       x2="-1073.2"
       y2="1.279e-13" />
    <linearGradient
       id="SVGID_2_-1-0-5"
       y2="1.279e-13"
       gradientUnits="userSpaceOnUse"
       x2="-1073.2"
       gradientTransform="matrix(-1,0,0,1,-1008.2,0)"
       y1="126.85"
       x1="-1073.2">
      <stop
         stop-color="#1b3967"
         offset=".011"
         id="stop4313-6-0-0" />
      <stop
         stop-color="#13b5ea"
         offset=".467"
         id="stop4315-2-1-7" />
      <stop
         stop-color="#002b5c"
         offset=".9945"
         id="stop4317-5-9-9" />
    </linearGradient>
  </defs>
  <metadata
     id="metadata4533">
    <rdf:RDF>
      <cc:Work
         rdf:about="">
        <dc:format>image/svg+xml</dc:format>
        <dc:type
           rdf:resource="http://purl.org/dc/dcmitype/StillImage" />
        <dc:title />
      </cc:Work>
    </rdf:RDF>
  </metadata>
  <g
     transform="matrix(1.0376673,0,0,1.0376673,-1.8080303,-1.8080303)"
     id="g24448">
    <g
       id="g24637"
       transform="translate(2.9224076e-7,1.7423988)">
      <rect
         y="5.5834799"
         x="27.188944"
         height="11.372466"
         width="15.719699"
         id="rect4928-5"
         style="fill:#ffffff;fill-opacity:1;stroke:none" />
      <path
         inkscape:connector-curvature="0"
         id="path4912-7"
         d="m 36.181766,25.60649 0,-1.96536 -0.47896,-0.0169 c -2.60091,-0.0921 -5.10997,-1.06414 -7.14286,-2.76718 -0.34269,-0.28705 -0.99852,-0.93436 -1.3017,-1.28468 -1.69482,-1.95868 -2.67964,-4.33876 -2.86898,-6.93381 -0.0389,-0.52925 -0.0176,-1.6111 0.041,-2.11792 0.20393,-1.7554609 0.76315,-3.3926409 1.65905,-4.8563709 1.61148,-2.63309 4.17295,-4.52966 7.14499,-5.29040993 2.43195,-0.6225 4.96476,-0.46507 7.29079,0.45317992 3.96309,1.56456001 6.78779,5.15545001 7.36424,9.36191091 0.22115,1.61411 0.11032,3.3364 -0.32781,5.09363 -0.26147,1.04865 -0.5892,1.93138 -1.10181,2.96779 -0.82905,1.67605 -1.86913,3.1003 -3.33012,4.56009 -1.41649,1.41527 -3.04358,2.64455 -4.96527,3.7513 -0.44737,0.25766 -1.9052,1.01014 -1.95703,1.01014 -0.0161,0 -0.0257,-0.7227 -0.0257,-1.96535 z m -3.93706,-8.54641 c 1.27692,-0.21882 2.32009,-1.12093 2.73681,-2.36679 0.17548,-0.52459 0.17475,-0.51079 0.1749,-3.34394 0,-2.7976009 0.008,-2.6603809 -0.1565,-2.8354209 -0.0403,-0.0427 -0.12132,-0.10009 -0.18069,-0.12757 -0.10219,-0.0473 -0.22299,-0.05 -2.29326,-0.05 -2.0562,0 -2.19174,0.003 -2.29348,0.0491 -0.13517,0.0614 -0.27152,0.21401 -0.31015,0.34719 -0.0205,0.0709 -0.0271,0.76261 -0.0213,2.2889709 l 0.008,2.18735 0.0744,0.11245 c 0.0411,0.0619 0.12506,0.14594 0.18685,0.18688 l 0.11244,0.0744 1.56193,0.008 1.56192,0.008 -0.0183,0.15429 c -0.0572,0.46864 -0.22203,0.83869 -0.49655,1.11279 -0.21705,0.21669 -0.41225,0.32156 -0.79694,0.42811 -0.23941,0.0663 -0.3111,0.0981 -0.37099,0.16437 l -0.0742,0.0821 0,0.69026 0,0.69026 0.0917,0.0917 c 0.10702,0.10696 0.1414,0.11026 0.50388,0.0482 z m 7.31153,0 c 1.46978,-0.25187 2.6314,-1.42446 2.87008,-2.89722 0.063,-0.38711 0.0623,-5.3208209 0,-5.4710309 -0.0557,-0.13302 -0.1631,-0.24424 -0.29534,-0.30547 -0.10226,-0.0473 -0.22306,-0.05 -2.29333,-0.05 -2.0562,0 -2.19174,0.003 -2.29348,0.0491 -0.13517,0.0614 -0.27152,0.21401 -0.31015,0.34719 -0.0205,0.0709 -0.0271,0.76261 -0.0213,2.2889709 l 0.008,2.18735 0.0744,0.11245 c 0.0411,0.0619 0.12506,0.14594 0.18692,0.18688 l 0.11237,0.0744 1.56193,0.008 1.56192,0.008 -0.0183,0.15429 c -0.0572,0.46864 -0.22203,0.83869 -0.49655,1.11279 -0.21705,0.21669 -0.41225,0.32156 -0.79694,0.42811 -0.23941,0.0663 -0.3111,0.0981 -0.37099,0.16437 l -0.0742,0.0821 0,0.69026 0,0.69026 0.0918,0.0917 c 0.10694,0.10696 0.1414,0.11026 0.5038,0.0482 z"
         style="fill:url(#linearGradient24641);fill-opacity:1" />
    </g>
    <g
       id="g23612"
       style="display:inline"
       transform="matrix(0.08849,0,0,-0.08849026,-15.411211,62.011726)">
      <path
         inkscape:connector-curvature="0"
         style="fill:#ec2027;fill-opacity:1;fill-rule:nonzero;stroke:none"
         id="path20"
         d="m 200.978,431.179 c 0,83.87 67.976,151.846 151.846,151.846 83.864,0 151.867,-67.976 151.867,-151.846 0,-83.857 -68.003,-151.847 -151.867,-151.847 -83.87,0 -151.846,67.99 -151.846,151.847" />
      <g
         id="g22">
        <g
           id="g24"
           clip-path="url(#clipPath26-4-2)">
          <path
             inkscape:connector-curvature="0"
             style="fill:#cccdce;fill-opacity:1;fill-rule:nonzero;stroke:none"
             id="path30"
             d="m 404.477,225.273 c -4.704,21.616 -31.999,70.561 -42.349,91.26 -10.343,20.699 -20.706,49.875 -15.996,68.701 0.847,3.418 -8.969,29.511 -6.139,31.35 21.957,14.335 27.754,-1.559 36.552,4.867 4.539,3.322 10.664,-2.734 12.25,2.762 5.64,19.756 -7.848,54.182 -22.894,69.234 -4.908,4.908 -12.448,7.985 -20.959,9.625 -3.26,4.471 -8.531,8.764 -15.996,12.729 -8.34,4.429 -26.427,10.281 -35.82,11.84 -6.494,1.066 -7.957,-0.752 -10.732,-1.21 2.584,-0.226 14.868,-6.296 17.267,-6.652 -2.399,-1.613 -9.427,0.075 -13.904,-1.934 -2.263,-1.019 -3.951,-4.902 -3.938,-6.734 12.825,1.292 32.827,0.035 44.639,-5.222 -9.406,-1.067 -23.7,-2.256 -29.853,-5.496 -17.876,-9.42 -25.757,-31.412 -21.061,-57.764 4.717,-26.339 25.416,-122.322 32.006,-154.315 6.59,-32.005 -14.123,-52.698 -27.289,-58.337 l 14.123,-0.951 -4.717,-10.356 c 16.939,-1.873 35.759,3.76 35.759,3.76 -3.767,-10.343 -29.169,-14.117 -29.169,-14.117 0,0 12.236,-3.752 31.992,3.774 19.756,7.526 31.985,12.229 31.985,12.229 l 9.42,-24.459 17.883,17.87 7.526,-18.82 c 0,0 14.11,4.71 9.414,26.366" />
          <path
             inkscape:connector-curvature="0"
             style="fill:#ffffff;fill-opacity:1;fill-rule:nonzero;stroke:none"
             id="path32"
             d="m 408.605,229.396 c -4.696,21.635 -31.992,70.581 -42.348,91.28 -10.35,20.699 -20.699,49.875 -15.996,68.687 0.861,3.418 0.882,17.405 3.718,19.264 21.958,14.335 20.399,0.478 29.197,6.904 4.539,3.309 8.169,7.315 9.748,12.818 5.653,19.762 -7.834,54.181 -22.894,69.241 -4.901,4.901 -12.434,7.984 -20.938,9.611 -3.281,4.485 -8.552,8.778 -16.017,12.742 -14.068,7.479 -31.513,10.459 -47.667,7.527 2.584,-0.24 8.497,-5.578 10.883,-5.934 -3.609,-2.44 -13.193,-2.126 -13.132,-7.554 12.831,1.279 26.893,-0.752 38.719,-6.002 -9.406,-1.066 -18.156,-3.39 -24.309,-6.63 -17.882,-9.407 -22.586,-28.226 -17.882,-54.585 4.703,-26.353 25.416,-122.329 31.992,-154.322 6.583,-31.992 -14.11,-52.691 -27.289,-58.338 l 14.123,-0.936 -4.703,-10.37 c 16.925,-1.866 35.758,3.773 35.758,3.773 -3.766,-10.363 -29.182,-14.109 -29.182,-14.109 0,0 12.236,-3.774 32.006,3.773 19.762,7.52 31.992,12.216 31.992,12.216 l 9.406,-24.459 17.876,17.876 7.54,-18.819 c 0,0 14.109,4.71 9.399,26.346" />
          <path
             inkscape:connector-curvature="0"
             style="fill:#0071bc;fill-opacity:1;fill-rule:nonzero;stroke:none"
             id="path34"
             d="m 300.42,445.459 c 0,5.455 4.423,9.885 9.892,9.885 5.455,0 9.871,-4.43 9.871,-9.885 0,-5.469 -4.416,-9.885 -9.871,-9.885 -5.469,0 -9.892,4.416 -9.892,9.885" />
          <path
             inkscape:connector-curvature="0"
             style="fill:#ffffff;fill-opacity:1;fill-rule:nonzero;stroke:none"
             id="path36"
             d="m 312.13,448.754 c 0,1.422 1.148,2.57 2.563,2.57 1.415,0 2.571,-1.148 2.571,-2.57 0,-1.415 -1.156,-2.57 -2.571,-2.57 -1.415,0 -2.563,1.155 -2.563,2.57" />
          <path
             inkscape:connector-curvature="0"
             style="fill:#0071bc;fill-opacity:1;fill-rule:nonzero;stroke:none"
             id="path38"
             d="m 367.877,451.324 c 0,4.676 3.808,8.484 8.49,8.484 4.696,0 8.49,-3.808 8.49,-8.484 0,-4.703 -3.794,-8.504 -8.49,-8.504 -4.682,0 -8.49,3.801 -8.49,8.504" />
          <path
             inkscape:connector-curvature="0"
             style="fill:#ffffff;fill-opacity:1;fill-rule:nonzero;stroke:none"
             id="path40"
             d="m 377.939,454.141 c 0,1.216 0.992,2.201 2.202,2.201 1.223,0 2.194,-0.985 2.194,-2.201 0,-1.217 -0.971,-2.195 -2.194,-2.195 -1.21,0 -2.202,0.978 -2.202,2.195" />
          <path
             inkscape:connector-curvature="0"
             style="fill:#188dcd;fill-opacity:1;fill-rule:nonzero;stroke:none"
             id="path42"
             d="m 313.114,474.102 c 0,0 -7.451,3.363 -14.683,-1.183 -7.233,-4.546 -6.973,-9.201 -6.973,-9.201 0,0 -3.842,8.572 6.412,12.762 10.254,4.211 15.244,-2.378 15.244,-2.378" />
          <path
             inkscape:connector-curvature="0"
             style="fill:#188dcd;fill-opacity:1;fill-rule:nonzero;stroke:none"
             id="path44"
             d="m 381.48,474.771 c 0,0 -5.352,3.063 -9.501,3.015 -8.539,-0.116 -10.87,-3.89 -10.87,-3.89 0,0 1.436,8.99 12.36,7.192 5.906,-0.984 8.011,-6.317 8.011,-6.317" />
        </g>
      </g>
      <path
         inkscape:connector-curvature="0"
         style="fill:none;stroke:#ffffff;stroke-width:20.70800018;stroke-linecap:butt;stroke-linejoin:miter;stroke-miterlimit:4;stroke-opacity:1;stroke-dasharray:none"
         id="path46"
         d="m 205.192,430.01 c 0,82.195 66.62,148.804 148.808,148.804 82.188,0 148.825,-66.609 148.825,-148.804 0,-82.182 -66.637,-148.819 -148.825,-148.819 -82.188,0 -148.808,66.637 -148.808,148.819 z" />
      <path
         inkscape:connector-curvature="0"
         style="fill:#fdd204;fill-opacity:1;fill-rule:nonzero;stroke:none"
         id="path48"
         d="m 338.599,407.52 c 0.998,6.056 16.652,17.513 27.733,18.21 11.102,0.698 14.561,0.541 23.823,2.755 9.263,2.215 33.141,8.162 39.751,11.218 6.617,3.049 34.638,-1.517 14.882,-12.53 -8.552,-4.785 -31.589,-13.569 -48.043,-18.478 -16.447,-4.922 -26.414,4.703 -31.883,-3.39 -4.341,-6.426 -0.882,-15.231 18.758,-17.063 26.537,-2.454 51.981,11.949 54.783,4.3 2.817,-7.649 -22.811,-17.206 -38.404,-17.514 -15.586,-0.294 -47.011,10.302 -51.707,13.583 -4.71,3.282 -11.006,10.924 -9.693,18.909" />
      <g
         id="g50">
        <g
           id="g52"
           clip-path="url(#clipPath54-3-1)">
          <g
             id="g58">
            <g
               id="g60">
              <path
                 inkscape:connector-curvature="0"
                 style="fill:url(#linearGradient3047-6-3);stroke:none"
                 id="path72"
                 d="m 347.15,332.338 c 0,0 -36.141,19.277 -36.743,11.457 -0.608,-7.834 0,-39.758 4.211,-42.178 4.225,-2.406 34.344,15.661 34.344,15.661 l -1.812,15.06 z" />
            </g>
          </g>
        </g>
      </g>
      <g
         id="g74">
        <g
           id="g76"
           clip-path="url(#clipPath78-8-3)">
          <g
             id="g82">
            <g
               id="g84">
              <path
                 inkscape:connector-curvature="0"
                 style="fill:url(#linearGradient3049-4-7);stroke:none"
                 id="path96"
                 d="m 361.007,333.555 c 0,0 24.705,18.675 30.126,17.472 5.421,-1.216 6.624,-39.764 1.798,-41.589 -4.82,-1.792 -33.086,9.789 -33.086,9.789 l 1.162,14.328 z" />
            </g>
          </g>
        </g>
      </g>
      <g
         id="g98">
        <g
           id="g100"
           clip-path="url(#clipPath102-4-3)">
          <g
             id="g106">
            <g
               id="g108">
              <path
                 inkscape:connector-curvature="0"
                 style="fill:url(#linearGradient3051-1-9);stroke:none"
                 id="path116"
                 d="m 339.925,332.338 c 0,-12.64 -1.805,-18.074 3.616,-19.271 5.421,-1.21 15.654,0 19.277,2.407 3.61,2.413 0.595,18.669 -0.608,21.697 -1.203,3.001 -22.285,0.588 -22.285,-4.833" />
            </g>
          </g>
        </g>
      </g>
      <path
         inkscape:connector-curvature="0"
         style="fill:none;stroke:#ec2027;stroke-width:15.49600029;stroke-linecap:butt;stroke-linejoin:miter;stroke-miterlimit:4;stroke-opacity:1;stroke-dasharray:none"
         id="path118"
         d="m 201.596,429.552 c 0,83.87 67.987,151.853 151.843,151.853 83.857,0 151.847,-67.983 151.847,-151.853 0,-83.864 -67.99,-151.847 -151.847,-151.847 -83.856,0 -151.843,67.983 -151.843,151.847 z" />
    </g>
    <g
       transform="matrix(0.16998901,0,0,0.16998901,18.60941,26.374168)"
       id="g4341-8-4-2">
      <path
         style="fill:url(#linearGradient3069-6)"
         inkscape:connector-curvature="0"
         id="path4308-2-1-4"
         d="m 136.29,14.189 c 0.077,1.313 -1.786,0.968 -1.786,2.293 0,38.551 -44.72,96.831 -89.847,108.19 v 1.182 c 59.957,-5.51 126.73,-66.8 128.24,-125.85 l -36.6,14.189 z" />
      <path
         style="fill:#e96d1f"
         inkscape:connector-curvature="0"
         id="path4310-5-2-3"
         d="m 120.23,17.96 c 0.077,1.313 0.121,2.633 0.121,3.958 0,38.551 -30.7,90.497 -75.827,101.86 v 1.637 c 59.065,-3.823 105.81,-63.023 105.81,-109.2 0,-2.375 -0.125,-4.729 -0.371,-7.056 l -29.73,8.796 z" />
      <path
         style="fill:url(#linearGradient3071-3)"
         inkscape:connector-curvature="0"
         id="path4319-6-8-0"
         d="m 36.599,14.189 c -0.077,1.313 1.787,0.968 1.787,2.293 0,38.551 46.558,97.366 91.688,108.73 v 1.639 C 70.121,121.331 1.514,59.051 0.004,0.001 L 36.603,14.19 z" />
      <path
         style="fill:#a0ce67"
         inkscape:connector-curvature="0"
         id="path4321-1-5-4"
         d="m 54.731,18.932 c -0.076,1.313 -0.12,2.63 -0.12,3.957 0,38.551 30.699,90.497 75.827,101.86 v 1.639 c -59.044,-2.79 -105.81,-63.024 -105.81,-109.2 0,-2.375 0.128,-4.729 0.371,-7.056 l 29.73,8.798 z" />
      <path
         style="fill:#439639"
         inkscape:connector-curvature="0"
         id="path4323-1-1-0"
         d="m 24.713,9.583 7.617,2.722 c -0.041,0.962 -0.066,2.254 -0.066,3.225 0,41.219 37.271,98.204 87.272,107.12 3.245,1.088 7.538,2.077 10.932,2.931 v 1.638 C 65.214,121.659 19.368,55.353 24.708,9.579 z" />
      <path
         style="fill:#d9541e"
         inkscape:connector-curvature="0"
         id="path4325-4-9-3"
         d="m 150.34,8.76 -7.833,2.625 c 0.041,0.963 0.191,2.203 0.191,3.173 0,41.219 -37.272,98.205 -87.274,107.12 -3.243,1.089 -7.538,2.077 -10.93,2.932 v 1.639 c 68.344,-8.66 111.18,-71.719 105.84,-117.49 z" />
    </g>
  </g>
</svg>
